<?xml version="1.0" encoding="UTF-8"?>
<svg xmlns="http://www.w3.org/2000/svg" xmlns:xlink="http://www.w3.org/1999/xlink" width="1920" height="1080" viewBox="0 0 1920 1080">
<defs>
<g>
<g id="glyph-0-0">
<path d="M 3.515625 0 L 2.902344 0 L 1.917969 -1.636719 C 1.890625 -1.6875 1.855469 -1.757812 1.820312 -1.851562 L 1.808594 -1.851562 C 1.789062 -1.804688 1.753906 -1.734375 1.707031 -1.636719 L 0.691406 0 L 0.078125 0 L 1.511719 -2.152344 L 0.191406 -4.277344 L 0.804688 -4.277344 L 1.679688 -2.773438 C 1.738281 -2.675781 1.789062 -2.574219 1.832031 -2.476562 L 1.84375 -2.476562 C 1.90625 -2.609375 1.964844 -2.710938 2.011719 -2.785156 L 2.921875 -4.277344 L 3.496094 -4.277344 L 2.152344 -2.15625 Z "/>
</g>
<g id="glyph-0-1">
</g>
<g id="glyph-0-2">
<path d="M 1.242188 0.0351562 L 1.242188 -3.507812 L 0.886719 -3.148438 L 0.449219 -3.148438 L 1.433594 -4.101562 L 1.445312 -4.101562 L 2.4375 -3.148438 L 2 -3.148438 L 1.636719 -3.515625 L 1.636719 0.0351562 Z "/>
</g>
<g id="glyph-0-3">
<path d="M 3.339844 -4.277344 L 1.929688 -1.582031 L 1.929688 0 L 1.429688 0 L 1.429688 -1.570312 L 0.0546875 -4.277344 L 0.625 -4.277344 L 1.582031 -2.34375 C 1.59375 -2.320312 1.628906 -2.234375 1.6875 -2.082031 L 1.695312 -2.082031 C 1.714844 -2.148438 1.753906 -2.238281 1.808594 -2.34375 L 2.8125 -4.277344 Z "/>
</g>
<g id="glyph-0-4">
<path d="M 1.636719 -4.105469 L 1.636719 -0.550781 L 2 -0.921875 L 2.4375 -0.921875 L 1.445312 0.03125 L 1.433594 0.03125 L 0.449219 -0.921875 L 0.886719 -0.921875 L 1.242188 -0.554688 L 1.242188 -4.105469 Z "/>
</g>
<g id="glyph-0-5">
<path d="M 0.6875 -1.980469 L 4.238281 -1.980469 L 3.871094 -2.339844 L 3.871094 -2.78125 L 4.828125 -1.789062 L 4.828125 -1.777344 L 3.871094 -0.789062 L 3.871094 -1.230469 L 4.234375 -1.582031 L 0.6875 -1.582031 Z "/>
</g>
<g id="glyph-0-6">
<path d="M 2.578125 -0.140625 C 2.34375 0 2.066406 0.0703125 1.742188 0.0703125 C 1.308594 0.0703125 0.957031 -0.0703125 0.6875 -0.355469 C 0.421875 -0.636719 0.285156 -1.003906 0.285156 -1.457031 C 0.285156 -1.960938 0.429688 -2.363281 0.71875 -2.667969 C 1.007812 -2.972656 1.390625 -3.125 1.875 -3.125 C 2.140625 -3.125 2.378906 -3.078125 2.582031 -2.976562 L 2.582031 -2.476562 C 2.355469 -2.636719 2.113281 -2.714844 1.855469 -2.714844 C 1.542969 -2.714844 1.289062 -2.601562 1.085938 -2.378906 C 0.886719 -2.15625 0.789062 -1.863281 0.789062 -1.496094 C 0.789062 -1.140625 0.882812 -0.855469 1.070312 -0.652344 C 1.257812 -0.445312 1.511719 -0.339844 1.824219 -0.339844 C 2.09375 -0.339844 2.34375 -0.429688 2.578125 -0.605469 Z "/>
</g>
<g id="glyph-0-7">
<path d="M 1.773438 0.0703125 C 1.320312 0.0703125 0.957031 -0.0703125 0.6875 -0.359375 C 0.421875 -0.644531 0.285156 -1.023438 0.285156 -1.492188 C 0.285156 -2.003906 0.425781 -2.40625 0.707031 -2.695312 C 0.988281 -2.984375 1.367188 -3.125 1.84375 -3.125 C 2.300781 -3.125 2.65625 -2.988281 2.910156 -2.707031 C 3.167969 -2.425781 3.292969 -2.035156 3.292969 -1.539062 C 3.292969 -1.050781 3.15625 -0.660156 2.878906 -0.367188 C 2.605469 -0.0742188 2.234375 0.0703125 1.773438 0.0703125 M 2.773438 -1.800781 C 2.691406 -2.410156 2.371094 -2.714844 1.808594 -2.714844 C 1.539062 -2.714844 1.3125 -2.636719 1.136719 -2.476562 C 0.960938 -2.316406 0.851562 -2.09375 0.804688 -1.800781 L 2.773438 -1.800781 M 2.785156 -1.386719 L 0.792969 -1.386719 C 0.8125 -1.0625 0.914062 -0.808594 1.097656 -0.621094 C 1.277344 -0.433594 1.515625 -0.339844 1.808594 -0.339844 C 2.417969 -0.339844 2.746094 -0.6875 2.785156 -1.386719 Z "/>
</g>
<g id="glyph-0-8">
<path d="M 0.996094 -0.441406 L 0.984375 -0.441406 L 0.984375 1.40625 L 0.496094 1.40625 L 0.496094 -3.054688 L 0.984375 -3.054688 L 0.984375 -2.519531 L 0.996094 -2.519531 C 1.238281 -2.925781 1.589844 -3.125 2.054688 -3.125 C 2.445312 -3.125 2.753906 -2.988281 2.976562 -2.714844 C 3.195312 -2.441406 3.304688 -2.078125 3.304688 -1.617188 C 3.304688 -1.105469 3.183594 -0.695312 2.933594 -0.390625 C 2.683594 -0.0820312 2.34375 0.0703125 1.914062 0.0703125 C 1.515625 0.0703125 1.210938 -0.0976562 0.996094 -0.441406 M 0.984375 -1.675781 L 0.984375 -1.246094 C 0.984375 -0.996094 1.066406 -0.78125 1.230469 -0.605469 C 1.394531 -0.429688 1.601562 -0.339844 1.855469 -0.339844 C 2.152344 -0.339844 2.382812 -0.453125 2.550781 -0.679688 C 2.71875 -0.90625 2.804688 -1.222656 2.804688 -1.625 C 2.804688 -1.964844 2.726562 -2.234375 2.570312 -2.425781 C 2.410156 -2.617188 2.199219 -2.714844 1.929688 -2.714844 C 1.644531 -2.714844 1.417969 -2.617188 1.246094 -2.417969 C 1.070312 -2.21875 0.984375 -1.972656 0.984375 -1.675781 Z "/>
</g>
<g id="glyph-0-9">
<path d="M 2.191406 -2.636719 L 0.984375 -2.636719 L 0.984375 0 L 0.496094 0 L 0.496094 -3.054688 L 2.191406 -3.054688 Z "/>
</g>
</g>
</defs>
<g fill="rgb(93.72549%, 32.54902%, 31.372549%)" fill-opacity="1">
<use xlink:href="#glyph-0-0" x="30" y="26.59375"/>
<use xlink:href="#glyph-0-1" x="34" y="26.59375"/>
<use xlink:href="#glyph-0-2" x="36" y="26.59375"/>
<use xlink:href="#glyph-0-1" x="39" y="26.59375"/>
<use xlink:href="#glyph-0-1" x="41" y="26.59375"/>
<use xlink:href="#glyph-0-3" x="43" y="26.59375"/>
<use xlink:href="#glyph-0-1" x="46" y="26.59375"/>
<use xlink:href="#glyph-0-4" x="48" y="26.59375"/>
<use xlink:href="#glyph-0-1" x="51" y="26.59375"/>
<use xlink:href="#glyph-0-1" x="53" y="26.59375"/>
<use xlink:href="#glyph-0-5" x="55" y="26.59375"/>
<use xlink:href="#glyph-0-1" x="60" y="26.59375"/>
<use xlink:href="#glyph-0-1" x="62" y="26.59375"/>
</g>
<g fill="rgb(93.72549%, 32.54902%, 31.372549%)" fill-opacity="1">
<use xlink:href="#glyph-0-6" x="64" y="26.59375"/>
<use xlink:href="#glyph-0-7" x="67" y="26.59375"/>
<use xlink:href="#glyph-0-8" x="71" y="26.59375"/>
<use xlink:href="#glyph-0-7" x="75" y="26.59375"/>
<use xlink:href="#glyph-0-9" x="79" y="26.59375"/>
</g>
</svg>
