<?xml version="1.0" encoding="UTF-8"?>
<svg xmlns="http://www.w3.org/2000/svg" xmlns:xlink="http://www.w3.org/1999/xlink" width="1920" height="1080" viewBox="0 0 1920 1080">
<defs>
<g>
<g id="glyph-0-0">
<path d="M 6.816406 -2.566406 C 6.816406 -1.6875 6.503906 -0.9375 5.871094 -0.3125 C 5.242188 0.3125 4.484375 0.625 3.605469 0.625 C 2.722656 0.625 1.964844 0.3125 1.335938 -0.3125 C 0.707031 -0.9375 0.390625 -1.6875 0.390625 -2.566406 C 0.390625 -3.445312 0.707031 -4.199219 1.335938 -4.828125 C 1.964844 -5.453125 2.722656 -5.765625 3.605469 -5.765625 C 4.484375 -5.765625 5.242188 -5.453125 5.871094 -4.828125 C 6.503906 -4.199219 6.816406 -3.445312 6.816406 -2.566406 M 6.527344 -2.566406 C 6.527344 -3.378906 6.242188 -4.070312 5.675781 -4.640625 C 5.105469 -5.210938 4.414062 -5.496094 3.605469 -5.496094 C 2.792969 -5.496094 2.101562 -5.210938 1.535156 -4.640625 C 0.964844 -4.070312 0.679688 -3.378906 0.679688 -2.566406 C 0.679688 -1.757812 0.964844 -1.070312 1.535156 -0.503906 C 2.105469 0.0664062 2.796875 0.347656 3.605469 0.347656 C 4.414062 0.347656 5.101562 0.0664062 5.671875 -0.503906 C 6.242188 -1.070312 6.527344 -1.757812 6.527344 -2.566406 M 4.816406 -1.671875 L 4.253906 -1.671875 L 4.253906 -0.539062 L 3.699219 -0.539062 L 3.699219 -1.671875 L 1.839844 -1.671875 L 1.839844 -2.265625 L 3.726562 -4.605469 L 4.253906 -4.605469 L 4.253906 -2.125 L 4.816406 -2.125 L 4.816406 -1.671875 M 3.699219 -2.125 L 3.699219 -3.890625 L 2.296875 -2.125 Z "/>
</g>
<g id="glyph-1-0">
</g>
<g id="glyph-1-1">
<path d="M 2.433594 -1.785156 L 0.507812 -1.785156 L 0.507812 -2.238281 L 2.433594 -2.238281 Z "/>
</g>
<g id="glyph-1-2">
<path d="M 2.554688 0 L 1.976562 0 L 1.976562 -4.371094 C 1.929688 -4.324219 1.863281 -4.273438 1.777344 -4.214844 C 1.695312 -4.160156 1.597656 -4.101562 1.488281 -4.046875 C 1.382812 -3.988281 1.269531 -3.9375 1.152344 -3.886719 C 1.03125 -3.835938 0.917969 -3.796875 0.804688 -3.769531 L 0.804688 -4.355469 C 0.929688 -4.390625 1.066406 -4.4375 1.207031 -4.5 C 1.351562 -4.558594 1.488281 -4.625 1.628906 -4.699219 C 1.765625 -4.773438 1.894531 -4.851562 2.015625 -4.933594 C 2.140625 -5.011719 2.246094 -5.09375 2.335938 -5.171875 L 2.554688 -5.171875 Z "/>
</g>
<g id="glyph-1-3">
<path d="M 3.992188 -0.894531 L 0.960938 -2.425781 L 0.960938 -2.632812 L 3.992188 -4.328125 L 3.992188 -3.796875 L 1.726562 -2.550781 L 1.726562 -2.535156 L 3.992188 -1.433594 L 3.992188 -0.894531 M 4.132812 0 L 0.816406 0 L 0.816406 -0.46875 L 4.132812 -0.46875 Z "/>
</g>
<g id="glyph-1-4">
<path d="M 2.46875 -3.027344 C 2.367188 -3.101562 2.222656 -3.140625 2.03125 -3.140625 C 1.785156 -3.140625 1.578125 -3.027344 1.414062 -2.792969 C 1.246094 -2.558594 1.164062 -2.242188 1.164062 -1.839844 L 1.164062 0 L 0.585938 0 L 0.585938 -3.609375 L 1.164062 -3.609375 L 1.164062 -2.867188 L 1.179688 -2.867188 C 1.261719 -3.121094 1.386719 -3.320312 1.554688 -3.460938 C 1.722656 -3.605469 1.914062 -3.675781 2.125 -3.675781 C 2.273438 -3.675781 2.390625 -3.660156 2.46875 -3.625 Z "/>
</g>
<g id="glyph-1-5">
<path d="M 1.113281 -0.804688 L 0.550781 0.929688 L 0.136719 0.929688 L 0.550781 -0.804688 Z "/>
</g>
<g id="glyph-1-6">
<path d="M 1.128906 1.699219 L 0.605469 1.699219 L 0.605469 -5.523438 L 1.128906 -5.523438 Z "/>
</g>
<g id="glyph-1-7">
<path d="M 3.992188 -2.433594 L 0.960938 -0.902344 L 0.960938 -1.4375 L 3.230469 -2.527344 L 3.230469 -2.550781 L 0.960938 -3.808594 L 0.960938 -4.335938 L 3.992188 -2.636719 L 3.992188 -2.433594 M 4.132812 0 L 0.816406 0 L 0.816406 -0.46875 L 4.132812 -0.46875 Z "/>
</g>
<g id="glyph-1-8">
<path d="M 3.597656 -2.550781 C 3.597656 -2.125 3.558594 -1.75 3.484375 -1.425781 C 3.40625 -1.097656 3.296875 -0.824219 3.152344 -0.597656 C 3.007812 -0.375 2.828125 -0.203125 2.617188 -0.0859375 C 2.40625 0.03125 2.167969 0.0898438 1.902344 0.0898438 C 1.648438 0.0898438 1.421875 0.03125 1.222656 -0.078125 C 1.023438 -0.191406 0.855469 -0.355469 0.71875 -0.566406 C 0.582031 -0.78125 0.480469 -1.042969 0.410156 -1.355469 C 0.339844 -1.667969 0.304688 -2.023438 0.304688 -2.425781 C 0.304688 -2.867188 0.339844 -3.257812 0.414062 -3.597656 C 0.488281 -3.9375 0.597656 -4.21875 0.742188 -4.449219 C 0.882812 -4.679688 1.0625 -4.851562 1.273438 -4.96875 C 1.488281 -5.082031 1.730469 -5.140625 2.007812 -5.140625 C 3.066406 -5.140625 3.597656 -4.277344 3.597656 -2.550781 M 3.003906 -2.492188 C 3.003906 -3.933594 2.664062 -4.652344 1.976562 -4.652344 C 1.257812 -4.652344 0.894531 -3.917969 0.894531 -2.453125 C 0.894531 -1.089844 1.25 -0.40625 1.957031 -0.40625 C 2.65625 -0.40625 3.003906 -1.101562 3.003906 -2.492188 Z "/>
</g>
<g id="glyph-1-9">
<path d="M 0.785156 0.078125 C 0.679688 0.078125 0.585938 0.0390625 0.507812 -0.0390625 C 0.433594 -0.117188 0.394531 -0.210938 0.394531 -0.316406 C 0.394531 -0.425781 0.433594 -0.519531 0.507812 -0.597656 C 0.585938 -0.675781 0.679688 -0.714844 0.785156 -0.714844 C 0.898438 -0.714844 0.992188 -0.675781 1.070312 -0.597656 C 1.144531 -0.519531 1.183594 -0.425781 1.183594 -0.316406 C 1.183594 -0.210938 1.144531 -0.117188 1.070312 -0.0390625 C 0.992188 0.0390625 0.898438 0.078125 0.785156 0.078125 Z "/>
</g>
<g id="glyph-1-10">
<path d="M 3.5625 -4.722656 C 3.484375 -4.589844 3.390625 -4.421875 3.28125 -4.222656 C 3.171875 -4.023438 3.054688 -3.796875 2.933594 -3.546875 C 2.8125 -3.296875 2.6875 -3.03125 2.558594 -2.742188 C 2.433594 -2.457031 2.316406 -2.160156 2.203125 -1.855469 C 2.09375 -1.550781 1.996094 -1.238281 1.914062 -0.925781 C 1.828125 -0.613281 1.769531 -0.304688 1.730469 0 L 1.109375 0 C 1.152344 -0.300781 1.21875 -0.609375 1.304688 -0.921875 C 1.394531 -1.234375 1.496094 -1.542969 1.605469 -1.847656 C 1.71875 -2.148438 1.835938 -2.4375 1.960938 -2.71875 C 2.085938 -3 2.207031 -3.257812 2.324219 -3.492188 C 2.441406 -3.726562 2.550781 -3.933594 2.648438 -4.113281 C 2.746094 -4.292969 2.824219 -4.433594 2.882812 -4.535156 L 0.34375 -4.535156 L 0.34375 -5.058594 L 3.5625 -5.058594 Z "/>
</g>
<g id="glyph-1-11">
<path d="M 0.816406 -2.339844 L 5.011719 -2.339844 L 4.578125 -2.765625 L 4.578125 -3.285156 L 5.707031 -2.117188 L 5.707031 -2.101562 L 4.578125 -0.929688 L 4.578125 -1.453125 L 5.003906 -1.871094 L 0.816406 -1.871094 Z "/>
</g>
<g id="glyph-1-12">
<path d="M 3.222656 -3.609375 L 2.011719 -1.785156 L 3.203125 0 L 2.527344 0 L 1.820312 -1.171875 C 1.773438 -1.242188 1.722656 -1.335938 1.660156 -1.445312 L 1.648438 -1.445312 C 1.636719 -1.425781 1.578125 -1.332031 1.480469 -1.171875 L 0.757812 0 L 0.0898438 0 L 1.324219 -1.769531 L 0.144531 -3.609375 L 0.816406 -3.609375 L 1.515625 -2.378906 C 1.566406 -2.285156 1.617188 -2.191406 1.667969 -2.09375 L 1.683594 -2.09375 L 2.585938 -3.609375 Z "/>
</g>
<g id="glyph-1-13">
<path d="M 3.460938 -3.609375 L 2.023438 -0.0195312 L 2.023438 1.660156 L 1.445312 1.660156 L 1.445312 -0.0273438 L 0.0507812 -3.609375 L 0.691406 -3.609375 L 1.640625 -0.917969 L 1.742188 -0.5625 L 1.75 -0.5625 C 1.773438 -0.644531 1.808594 -0.765625 1.863281 -0.929688 L 2.859375 -3.609375 Z "/>
</g>
<g id="glyph-1-14">
<path d="M 3.496094 0 L 2.921875 0 L 2.921875 -1.453125 C 2.496094 -1.222656 2.105469 -1.105469 1.75 -1.105469 C 0.941406 -1.105469 0.535156 -1.535156 0.535156 -2.390625 L 0.535156 -3.609375 L 1.113281 -3.609375 L 1.113281 -2.417969 C 1.113281 -1.890625 1.34375 -1.625 1.796875 -1.625 C 2.148438 -1.625 2.519531 -1.726562 2.921875 -1.929688 L 2.921875 -3.609375 L 3.496094 -3.609375 Z "/>
</g>
<g id="glyph-1-15">
<path d="M 2.851562 -3.117188 L 1.769531 -3.117188 L 1.769531 0 L 1.191406 0 L 1.191406 -3.117188 L 0.105469 -3.117188 L 0.105469 -3.609375 L 2.851562 -3.609375 Z "/>
</g>
<g id="glyph-1-16">
<path d="M 0.316406 -0.160156 L 0.316406 -0.707031 C 0.589844 -0.503906 0.902344 -0.402344 1.253906 -0.402344 C 1.597656 -0.402344 1.871094 -0.507812 2.082031 -0.71875 C 2.292969 -0.929688 2.40625 -1.214844 2.425781 -1.574219 L 0.890625 -1.574219 L 0.890625 -2.066406 L 2.425781 -2.066406 C 2.398438 -2.425781 2.28125 -2.703125 2.070312 -2.90625 C 1.859375 -3.109375 1.582031 -3.210938 1.234375 -3.210938 C 0.898438 -3.210938 0.605469 -3.117188 0.359375 -2.933594 L 0.359375 -3.503906 C 0.609375 -3.632812 0.902344 -3.695312 1.242188 -3.695312 C 1.816406 -3.695312 2.257812 -3.527344 2.5625 -3.195312 C 2.871094 -2.859375 3.027344 -2.386719 3.027344 -1.777344 C 3.027344 -1.210938 2.867188 -0.757812 2.550781 -0.421875 C 2.234375 -0.0859375 1.808594 0.0859375 1.277344 0.0859375 C 0.90625 0.0859375 0.585938 0.00390625 0.316406 -0.160156 Z "/>
</g>
<g id="glyph-1-17">
<path d="M 3.609375 0 L 3.089844 0 L 3.089844 -2.882812 C 3.039062 -2.78125 2.957031 -2.636719 2.851562 -2.453125 L 1.183594 0 L 0.585938 0 L 0.585938 -3.609375 L 1.113281 -3.609375 L 1.113281 -0.765625 C 1.144531 -0.832031 1.203125 -0.949219 1.296875 -1.113281 L 3.011719 -3.609375 L 3.609375 -3.609375 L 3.609375 0 M 3.398438 -5.367188 C 3.363281 -5.035156 3.230469 -4.773438 3 -4.582031 C 2.769531 -4.390625 2.476562 -4.296875 2.128906 -4.296875 C 1.773438 -4.296875 1.480469 -4.390625 1.257812 -4.582031 C 1.03125 -4.773438 0.910156 -5.035156 0.890625 -5.367188 L 1.460938 -5.367188 C 1.492188 -4.925781 1.71875 -4.703125 2.136719 -4.703125 C 2.324219 -4.703125 2.480469 -4.761719 2.601562 -4.878906 C 2.726562 -4.996094 2.800781 -5.160156 2.828125 -5.367188 Z "/>
</g>
</g>
</defs>
<g fill="rgb(80.784314%, 57.647059%, 84.705882%)" fill-opacity="1">
<use xlink:href="#glyph-0-0" x="30" y="27.793945"/>
</g>
<g fill="rgb(80.784314%, 57.647059%, 84.705882%)" fill-opacity="1">
<use xlink:href="#glyph-1-0" x="37" y="27.793945"/>
<use xlink:href="#glyph-1-1" x="39" y="27.793945"/>
<use xlink:href="#glyph-1-2" x="42" y="27.793945"/>
<use xlink:href="#glyph-1-0" x="46" y="27.793945"/>
<use xlink:href="#glyph-1-3" x="48" y="27.793945"/>
<use xlink:href="#glyph-1-0" x="53" y="27.793945"/>
<use xlink:href="#glyph-1-4" x="55" y="27.793945"/>
<use xlink:href="#glyph-1-0" x="58" y="27.793945"/>
<use xlink:href="#glyph-1-3" x="60" y="27.793945"/>
<use xlink:href="#glyph-1-0" x="65" y="27.793945"/>
<use xlink:href="#glyph-1-2" x="67" y="27.793945"/>
<use xlink:href="#glyph-1-5" x="71" y="27.793945"/>
<use xlink:href="#glyph-1-0" x="73" y="27.793945"/>
<use xlink:href="#glyph-1-0" x="75" y="27.793945"/>
<use xlink:href="#glyph-1-6" x="77" y="27.793945"/>
<use xlink:href="#glyph-1-4" x="79" y="27.793945"/>
<use xlink:href="#glyph-1-6" x="82" y="27.793945"/>
<use xlink:href="#glyph-1-0" x="84" y="27.793945"/>
<use xlink:href="#glyph-1-7" x="86" y="27.793945"/>
<use xlink:href="#glyph-1-0" x="91" y="27.793945"/>
<use xlink:href="#glyph-1-8" x="93" y="27.793945"/>
<use xlink:href="#glyph-1-9" x="97" y="27.793945"/>
<use xlink:href="#glyph-1-10" x="99" y="27.793945"/>
<use xlink:href="#glyph-1-0" x="103" y="27.793945"/>
<use xlink:href="#glyph-1-11" x="105" y="27.793945"/>
<use xlink:href="#glyph-1-0" x="111" y="27.793945"/>
</g>
<g fill="rgb(80.784314%, 57.647059%, 84.705882%)" fill-opacity="1">
<use xlink:href="#glyph-1-12" x="113" y="27.793945"/>
<use xlink:href="#glyph-1-13" x="116" y="27.793945"/>
<use xlink:href="#glyph-1-14" x="119" y="27.793945"/>
<use xlink:href="#glyph-1-15" x="123" y="27.793945"/>
<use xlink:href="#glyph-1-16" x="126" y="27.793945"/>
<use xlink:href="#glyph-1-17" x="129" y="27.793945"/>
</g>
</svg>
