<?xml version="1.0" encoding="UTF-8"?>
<svg xmlns="http://www.w3.org/2000/svg" xmlns:xlink="http://www.w3.org/1999/xlink" width="1920" height="1080" viewBox="0 0 1920 1080">
<defs>
<g>
<g id="glyph-0-0">
<path d="M 6.816406 -2.566406 C 6.816406 -1.6875 6.503906 -0.9375 5.871094 -0.3125 C 5.242188 0.3125 4.484375 0.625 3.605469 0.625 C 2.722656 0.625 1.964844 0.3125 1.335938 -0.3125 C 0.707031 -0.9375 0.390625 -1.6875 0.390625 -2.566406 C 0.390625 -3.445312 0.707031 -4.199219 1.335938 -4.828125 C 1.964844 -5.453125 2.722656 -5.765625 3.605469 -5.765625 C 4.484375 -5.765625 5.242188 -5.453125 5.871094 -4.828125 C 6.503906 -4.199219 6.816406 -3.445312 6.816406 -2.566406 M 6.527344 -2.566406 C 6.527344 -3.378906 6.242188 -4.070312 5.675781 -4.640625 C 5.105469 -5.210938 4.414062 -5.496094 3.605469 -5.496094 C 2.792969 -5.496094 2.101562 -5.210938 1.535156 -4.640625 C 0.964844 -4.070312 0.679688 -3.378906 0.679688 -2.566406 C 0.679688 -1.757812 0.964844 -1.070312 1.535156 -0.503906 C 2.105469 0.0664062 2.796875 0.347656 3.605469 0.347656 C 4.414062 0.347656 5.101562 0.0664062 5.671875 -0.503906 C 6.242188 -1.070312 6.527344 -1.757812 6.527344 -2.566406 M 4.914062 -0.601562 L 2.335938 -0.601562 L 2.335938 -1.144531 C 2.742188 -1.503906 3.085938 -1.824219 3.363281 -2.105469 C 3.675781 -2.421875 3.890625 -2.679688 4.015625 -2.878906 C 4.144531 -3.089844 4.210938 -3.296875 4.210938 -3.5 C 4.210938 -3.707031 4.144531 -3.871094 4.007812 -3.984375 C 3.878906 -4.089844 3.707031 -4.144531 3.496094 -4.144531 C 3.152344 -4.144531 2.820312 -4.035156 2.5 -3.816406 L 2.425781 -3.816406 L 2.425781 -4.359375 C 2.75 -4.539062 3.109375 -4.628906 3.503906 -4.628906 C 3.894531 -4.628906 4.207031 -4.527344 4.445312 -4.328125 C 4.679688 -4.128906 4.796875 -3.859375 4.796875 -3.527344 C 4.796875 -3.246094 4.722656 -2.984375 4.574219 -2.742188 C 4.46875 -2.570312 4.285156 -2.351562 4.015625 -2.078125 C 3.769531 -1.824219 3.40625 -1.492188 2.929688 -1.078125 L 4.914062 -1.078125 Z "/>
</g>
<g id="glyph-1-0">
</g>
<g id="glyph-1-1">
<path d="M 4.183594 0 L 3.355469 0 L 1.402344 -2.3125 C 1.332031 -2.402344 1.285156 -2.460938 1.269531 -2.488281 L 1.253906 -2.488281 L 1.253906 0 L 0.664062 0 L 0.664062 -5.058594 L 1.253906 -5.058594 L 1.253906 -2.679688 L 1.269531 -2.679688 C 1.300781 -2.730469 1.347656 -2.789062 1.402344 -2.851562 L 3.292969 -5.058594 L 4.03125 -5.058594 L 1.863281 -2.632812 Z "/>
</g>
<g id="glyph-1-2">
<path d="M 2.09375 0.0859375 C 1.5625 0.0859375 1.136719 -0.0859375 0.816406 -0.421875 C 0.496094 -0.757812 0.339844 -1.207031 0.339844 -1.761719 C 0.339844 -2.371094 0.503906 -2.84375 0.835938 -3.183594 C 1.167969 -3.527344 1.613281 -3.695312 2.179688 -3.695312 C 2.71875 -3.695312 3.136719 -3.53125 3.441406 -3.199219 C 3.742188 -2.867188 3.894531 -2.40625 3.894531 -1.820312 C 3.894531 -1.242188 3.730469 -0.78125 3.40625 -0.433594 C 3.078125 -0.0898438 2.644531 0.0859375 2.09375 0.0859375 M 2.136719 -3.210938 C 1.765625 -3.210938 1.472656 -3.082031 1.253906 -2.832031 C 1.039062 -2.578125 0.929688 -2.230469 0.929688 -1.785156 C 0.929688 -1.355469 1.039062 -1.019531 1.257812 -0.773438 C 1.476562 -0.527344 1.769531 -0.402344 2.136719 -0.402344 C 2.511719 -0.402344 2.796875 -0.523438 3 -0.765625 C 3.199219 -1.007812 3.300781 -1.351562 3.300781 -1.796875 C 3.300781 -2.25 3.199219 -2.597656 3 -2.84375 C 2.796875 -3.085938 2.511719 -3.210938 2.136719 -3.210938 Z "/>
</g>
<g id="glyph-1-3">
<path d="M 0.585938 0 L 0.585938 -3.609375 L 2.160156 -3.609375 C 2.511719 -3.609375 2.792969 -3.53125 3 -3.375 C 3.207031 -3.21875 3.308594 -3.003906 3.308594 -2.730469 C 3.308594 -2.261719 3.078125 -1.976562 2.617188 -1.875 C 3.167969 -1.804688 3.445312 -1.527344 3.445312 -1.039062 C 3.445312 -0.746094 3.332031 -0.5 3.105469 -0.300781 C 2.878906 -0.101562 2.597656 0 2.261719 0 L 0.585938 0 M 1.164062 -3.117188 L 1.164062 -2.101562 L 2.03125 -2.101562 C 2.496094 -2.101562 2.730469 -2.28125 2.730469 -2.644531 C 2.730469 -2.960938 2.519531 -3.117188 2.101562 -3.117188 L 1.164062 -3.117188 M 1.164062 -1.609375 L 1.164062 -0.492188 L 2.164062 -0.492188 C 2.632812 -0.492188 2.867188 -0.683594 2.867188 -1.0625 C 2.867188 -1.425781 2.605469 -1.609375 2.082031 -1.609375 Z "/>
</g>
<g id="glyph-1-4">
<path d="M 3.171875 0 L 2.59375 0 L 2.59375 -0.5625 L 2.578125 -0.5625 C 2.328125 -0.132812 1.957031 0.0859375 1.46875 0.0859375 C 1.105469 0.0859375 0.824219 -0.0117188 0.621094 -0.199219 C 0.417969 -0.390625 0.316406 -0.644531 0.316406 -0.960938 C 0.316406 -1.632812 0.714844 -2.027344 1.507812 -2.136719 L 2.59375 -2.289062 C 2.59375 -2.902344 2.34375 -3.210938 1.847656 -3.210938 C 1.414062 -3.210938 1.019531 -3.0625 0.671875 -2.765625 L 0.671875 -3.355469 C 1.023438 -3.582031 1.433594 -3.695312 1.898438 -3.695312 C 2.746094 -3.695312 3.171875 -3.246094 3.171875 -2.347656 L 3.171875 0 M 2.59375 -1.828125 L 1.722656 -1.707031 C 1.453125 -1.667969 1.25 -1.601562 1.113281 -1.507812 C 0.976562 -1.414062 0.910156 -1.242188 0.910156 -1 C 0.910156 -0.824219 0.972656 -0.679688 1.097656 -0.570312 C 1.222656 -0.457031 1.390625 -0.402344 1.601562 -0.402344 C 1.886719 -0.402344 2.125 -0.503906 2.3125 -0.703125 C 2.5 -0.90625 2.59375 -1.160156 2.59375 -1.46875 Z "/>
</g>
<g id="glyph-1-5">
<path d="M 1.179688 -0.523438 L 1.164062 -0.523438 L 1.164062 1.660156 L 0.585938 1.660156 L 0.585938 -3.609375 L 1.164062 -3.609375 L 1.164062 -2.976562 L 1.179688 -2.976562 C 1.460938 -3.457031 1.878906 -3.695312 2.425781 -3.695312 C 2.890625 -3.695312 3.253906 -3.535156 3.515625 -3.210938 C 3.777344 -2.886719 3.90625 -2.453125 3.90625 -1.910156 C 3.90625 -1.308594 3.761719 -0.824219 3.464844 -0.460938 C 3.171875 -0.0976562 2.769531 0.0859375 2.261719 0.0859375 C 1.792969 0.0859375 1.433594 -0.117188 1.179688 -0.523438 M 1.164062 -1.976562 L 1.164062 -1.472656 C 1.164062 -1.175781 1.261719 -0.921875 1.453125 -0.714844 C 1.648438 -0.507812 1.894531 -0.402344 2.195312 -0.402344 C 2.542969 -0.402344 2.820312 -0.535156 3.015625 -0.804688 C 3.214844 -1.070312 3.316406 -1.445312 3.316406 -1.921875 C 3.316406 -2.324219 3.222656 -2.640625 3.035156 -2.867188 C 2.851562 -3.09375 2.597656 -3.210938 2.28125 -3.210938 C 1.945312 -3.210938 1.675781 -3.09375 1.46875 -2.859375 C 1.265625 -2.625 1.164062 -2.332031 1.164062 -1.976562 Z "/>
</g>
<g id="glyph-1-6">
<path d="M 3.609375 0 L 3.089844 0 L 3.089844 -2.882812 C 3.039062 -2.78125 2.957031 -2.636719 2.851562 -2.453125 L 1.183594 0 L 0.585938 0 L 0.585938 -3.609375 L 1.113281 -3.609375 L 1.113281 -0.765625 C 1.144531 -0.832031 1.203125 -0.949219 1.296875 -1.113281 L 3.011719 -3.609375 L 3.609375 -3.609375 Z "/>
</g>
<g id="glyph-1-7">
<path d="M 4.117188 1.316406 L 3.617188 1.316406 L 3.617188 0 L 0.585938 0 L 0.585938 -3.609375 L 1.164062 -3.609375 L 1.164062 -0.488281 L 3.003906 -0.488281 L 3.003906 -3.609375 L 3.582031 -3.609375 L 3.582031 -0.488281 L 4.117188 -0.488281 Z "/>
</g>
<g id="glyph-1-8">
<path d="M 3.582031 0 L 3.003906 0 L 3.003906 -1.640625 L 1.164062 -1.640625 L 1.164062 0 L 0.585938 0 L 0.585938 -3.609375 L 1.164062 -3.609375 L 1.164062 -2.128906 L 3.003906 -2.128906 L 3.003906 -3.609375 L 3.582031 -3.609375 Z "/>
</g>
<g id="glyph-1-9">
<path d="M 0.585938 0 L 0.585938 -3.609375 L 1.164062 -3.609375 L 1.164062 -2.226562 L 2.136719 -2.226562 C 2.507812 -2.226562 2.800781 -2.128906 3.015625 -1.9375 C 3.234375 -1.742188 3.34375 -1.472656 3.34375 -1.128906 C 3.34375 -0.78125 3.234375 -0.503906 3.015625 -0.304688 C 2.796875 -0.101562 2.519531 0 2.1875 0 L 0.585938 0 M 1.164062 -1.726562 L 1.164062 -0.492188 L 2.03125 -0.492188 C 2.511719 -0.492188 2.75 -0.707031 2.75 -1.128906 C 2.75 -1.527344 2.507812 -1.726562 2.023438 -1.726562 Z "/>
</g>
<g id="glyph-1-10">
<path d="M 3.496094 0 L 2.921875 0 L 2.921875 -1.453125 C 2.496094 -1.222656 2.105469 -1.105469 1.75 -1.105469 C 0.941406 -1.105469 0.535156 -1.535156 0.535156 -2.390625 L 0.535156 -3.609375 L 1.113281 -3.609375 L 1.113281 -2.417969 C 1.113281 -1.890625 1.34375 -1.625 1.796875 -1.625 C 2.148438 -1.625 2.519531 -1.726562 2.921875 -1.929688 L 2.921875 -3.609375 L 3.496094 -3.609375 Z "/>
</g>
<g id="glyph-1-11">
<path d="M 2.59375 -3.117188 L 1.164062 -3.117188 L 1.164062 0 L 0.585938 0 L 0.585938 -3.609375 L 2.59375 -3.609375 Z "/>
</g>
<g id="glyph-1-12">
<path d="M 3.21875 0 L 2.644531 0 L 2.644531 -3.121094 L 1.804688 -3.121094 C 1.710938 -1.953125 1.542969 -1.132812 1.308594 -0.660156 C 1.078125 -0.1875 0.761719 0.0507812 0.367188 0.0507812 C 0.246094 0.0507812 0.144531 0.03125 0.0546875 0 L 0.0546875 -0.496094 C 0.140625 -0.453125 0.226562 -0.433594 0.324219 -0.433594 C 0.839844 -0.433594 1.175781 -1.492188 1.324219 -3.609375 L 3.21875 -3.609375 Z "/>
</g>
<g id="glyph-1-13">
<path d="M 0.316406 -0.160156 L 0.316406 -0.707031 C 0.589844 -0.503906 0.902344 -0.402344 1.253906 -0.402344 C 1.597656 -0.402344 1.871094 -0.507812 2.082031 -0.71875 C 2.292969 -0.929688 2.40625 -1.214844 2.425781 -1.574219 L 0.890625 -1.574219 L 0.890625 -2.066406 L 2.425781 -2.066406 C 2.398438 -2.425781 2.28125 -2.703125 2.070312 -2.90625 C 1.859375 -3.109375 1.582031 -3.210938 1.234375 -3.210938 C 0.898438 -3.210938 0.605469 -3.117188 0.359375 -2.933594 L 0.359375 -3.503906 C 0.609375 -3.632812 0.902344 -3.695312 1.242188 -3.695312 C 1.816406 -3.695312 2.257812 -3.527344 2.5625 -3.195312 C 2.871094 -2.859375 3.027344 -2.386719 3.027344 -1.777344 C 3.027344 -1.210938 2.867188 -0.757812 2.550781 -0.421875 C 2.234375 -0.0859375 1.808594 0.0859375 1.277344 0.0859375 C 0.90625 0.0859375 0.585938 0.00390625 0.316406 -0.160156 Z "/>
</g>
<g id="glyph-1-14">
<path d="M 3.609375 0 L 3.089844 0 L 3.089844 -2.882812 C 3.039062 -2.78125 2.957031 -2.636719 2.851562 -2.453125 L 1.183594 0 L 0.585938 0 L 0.585938 -3.609375 L 1.113281 -3.609375 L 1.113281 -0.765625 C 1.144531 -0.832031 1.203125 -0.949219 1.296875 -1.113281 L 3.011719 -3.609375 L 3.609375 -3.609375 L 3.609375 0 M 3.398438 -5.367188 C 3.363281 -5.035156 3.230469 -4.773438 3 -4.582031 C 2.769531 -4.390625 2.476562 -4.296875 2.128906 -4.296875 C 1.773438 -4.296875 1.480469 -4.390625 1.257812 -4.582031 C 1.03125 -4.773438 0.910156 -5.035156 0.890625 -5.367188 L 1.460938 -5.367188 C 1.492188 -4.925781 1.71875 -4.703125 2.136719 -4.703125 C 2.324219 -4.703125 2.480469 -4.761719 2.601562 -4.878906 C 2.726562 -4.996094 2.800781 -5.160156 2.828125 -5.367188 Z "/>
</g>
<g id="glyph-1-15">
<path d="M 2.851562 -3.117188 L 1.769531 -3.117188 L 1.769531 0 L 1.191406 0 L 1.191406 -3.117188 L 0.105469 -3.117188 L 0.105469 -3.609375 L 2.851562 -3.609375 Z "/>
</g>
<g id="glyph-1-16">
<path d="M 3.734375 1.316406 L 3.246094 1.316406 L 3.246094 0 L 0.558594 0 L 0.558594 1.316406 L 0.0625 1.316406 L 0.0625 -0.488281 L 0.382812 -0.488281 C 1 -1.378906 1.3125 -2.417969 1.324219 -3.609375 L 3.199219 -3.609375 L 3.199219 -0.488281 L 3.734375 -0.488281 L 3.734375 1.316406 M 2.621094 -0.488281 L 2.621094 -3.121094 L 1.820312 -3.121094 C 1.757812 -2.148438 1.480469 -1.269531 1 -0.488281 Z "/>
</g>
<g id="glyph-1-17">
<path d="M 3.222656 -3.609375 L 2.011719 -1.785156 L 3.203125 0 L 2.527344 0 L 1.820312 -1.171875 C 1.773438 -1.242188 1.722656 -1.335938 1.660156 -1.445312 L 1.648438 -1.445312 C 1.636719 -1.425781 1.578125 -1.332031 1.480469 -1.171875 L 0.757812 0 L 0.0898438 0 L 1.324219 -1.769531 L 0.144531 -3.609375 L 0.816406 -3.609375 L 1.515625 -2.378906 C 1.566406 -2.285156 1.617188 -2.191406 1.667969 -2.09375 L 1.683594 -2.09375 L 2.585938 -3.609375 Z "/>
</g>
</g>
</defs>
<g fill="rgb(87.843137%, 87.843137%, 87.843137%)" fill-opacity="1">
<use xlink:href="#glyph-0-0" x="30" y="27.793945"/>
</g>
<g fill="rgb(87.843137%, 87.843137%, 87.843137%)" fill-opacity="1">
<use xlink:href="#glyph-1-0" x="37" y="27.793945"/>
<use xlink:href="#glyph-1-1" x="39" y="27.793945"/>
<use xlink:href="#glyph-1-2" x="43" y="27.793945"/>
<use xlink:href="#glyph-1-3" x="47" y="27.793945"/>
<use xlink:href="#glyph-1-4" x="51" y="27.793945"/>
<use xlink:href="#glyph-1-5" x="55" y="27.793945"/>
<use xlink:href="#glyph-1-6" x="59" y="27.793945"/>
<use xlink:href="#glyph-1-4" x="63" y="27.793945"/>
<use xlink:href="#glyph-1-7" x="67" y="27.793945"/>
<use xlink:href="#glyph-1-0" x="71" y="27.793945"/>
<use xlink:href="#glyph-1-8" x="73" y="27.793945"/>
<use xlink:href="#glyph-1-9" x="77" y="27.793945"/>
<use xlink:href="#glyph-1-0" x="81" y="27.793945"/>
<use xlink:href="#glyph-1-10" x="83" y="27.793945"/>
<use xlink:href="#glyph-1-6" x="87" y="27.793945"/>
<use xlink:href="#glyph-1-11" x="91" y="27.793945"/>
<use xlink:href="#glyph-1-12" x="94" y="27.793945"/>
<use xlink:href="#glyph-1-13" x="98" y="27.793945"/>
<use xlink:href="#glyph-1-12" x="101" y="27.793945"/>
<use xlink:href="#glyph-1-6" x="105" y="27.793945"/>
<use xlink:href="#glyph-1-14" x="109" y="27.793945"/>
<use xlink:href="#glyph-1-11" x="113" y="27.793945"/>
<use xlink:href="#glyph-1-0" x="116" y="27.793945"/>
<use xlink:href="#glyph-1-15" x="118" y="27.793945"/>
<use xlink:href="#glyph-1-2" x="121" y="27.793945"/>
<use xlink:href="#glyph-1-16" x="125" y="27.793945"/>
<use xlink:href="#glyph-1-2" x="129" y="27.793945"/>
<use xlink:href="#glyph-1-5" x="133" y="27.793945"/>
<use xlink:href="#glyph-1-17" x="137" y="27.793945"/>
<use xlink:href="#glyph-1-2" x="140" y="27.793945"/>
<use xlink:href="#glyph-1-14" x="144" y="27.793945"/>
<use xlink:href="#glyph-1-12" x="148" y="27.793945"/>
<use xlink:href="#glyph-1-8" x="152" y="27.793945"/>
<use xlink:href="#glyph-1-2" x="156" y="27.793945"/>
</g>
</svg>
