<?xml version="1.0" encoding="UTF-8"?>
<svg xmlns="http://www.w3.org/2000/svg" xmlns:xlink="http://www.w3.org/1999/xlink" width="854" height="480" viewBox="0 0 854 480">
<defs>
<g>
<g id="glyph-0-0">
<path d="M 3.617188 -1.542969 C 3.617188 -1.296875 3.574219 -1.074219 3.480469 -0.871094 C 3.386719 -0.671875 3.257812 -0.5 3.089844 -0.355469 C 2.921875 -0.210938 2.71875 -0.101562 2.484375 -0.0234375 C 2.25 0.0546875 1.988281 0.09375 1.707031 0.09375 C 1.1875 0.09375 0.773438 -0.00390625 0.46875 -0.203125 L 0.46875 -0.871094 C 0.835938 -0.582031 1.253906 -0.4375 1.726562 -0.4375 C 1.917969 -0.4375 2.089844 -0.460938 2.242188 -0.507812 C 2.394531 -0.558594 2.527344 -0.625 2.636719 -0.71875 C 2.746094 -0.808594 2.832031 -0.917969 2.890625 -1.046875 C 2.953125 -1.175781 2.980469 -1.324219 2.980469 -1.484375 C 2.980469 -2.195312 2.476562 -2.550781 1.460938 -2.550781 L 1.011719 -2.550781 L 1.011719 -3.078125 L 1.4375 -3.078125 C 2.335938 -3.078125 2.785156 -3.414062 2.785156 -4.082031 C 2.785156 -4.699219 2.441406 -5.007812 1.757812 -5.007812 C 1.375 -5.007812 1.011719 -4.878906 0.675781 -4.621094 L 0.675781 -5.226562 C 1.023438 -5.433594 1.433594 -5.535156 1.914062 -5.535156 C 2.140625 -5.535156 2.347656 -5.503906 2.53125 -5.441406 C 2.71875 -5.378906 2.875 -5.289062 3.007812 -5.175781 C 3.140625 -5.0625 3.242188 -4.925781 3.3125 -4.765625 C 3.386719 -4.605469 3.421875 -4.429688 3.421875 -4.238281 C 3.421875 -3.523438 3.058594 -3.0625 2.335938 -2.855469 L 2.335938 -2.839844 C 2.519531 -2.820312 2.691406 -2.773438 2.847656 -2.707031 C 3.003906 -2.636719 3.140625 -2.546875 3.253906 -2.433594 C 3.367188 -2.324219 3.457031 -2.191406 3.523438 -2.042969 C 3.585938 -1.890625 3.617188 -1.722656 3.617188 -1.542969 Z "/>
</g>
<g id="glyph-0-1">
<path d="M 0.847656 0.0820312 C 0.730469 0.0820312 0.632812 0.0429688 0.546875 -0.0429688 C 0.464844 -0.125 0.425781 -0.226562 0.425781 -0.339844 C 0.425781 -0.457031 0.464844 -0.558594 0.546875 -0.644531 C 0.632812 -0.726562 0.730469 -0.769531 0.847656 -0.769531 C 0.964844 -0.769531 1.066406 -0.726562 1.152344 -0.644531 C 1.234375 -0.558594 1.277344 -0.457031 1.277344 -0.339844 C 1.277344 -0.226562 1.234375 -0.125 1.152344 -0.0429688 C 1.066406 0.0429688 0.964844 0.0820312 0.847656 0.0820312 Z "/>
</g>
<g id="glyph-0-2">
</g>
<g id="glyph-0-3">
<path d="M 4.421875 -0.226562 C 4.019531 -0.015625 3.515625 0.0898438 2.917969 0.0898438 C 2.140625 0.0898438 1.523438 -0.160156 1.054688 -0.65625 C 0.589844 -1.15625 0.355469 -1.808594 0.355469 -2.621094 C 0.355469 -3.492188 0.617188 -4.195312 1.144531 -4.730469 C 1.667969 -5.269531 2.332031 -5.535156 3.136719 -5.535156 C 3.652344 -5.535156 4.082031 -5.460938 4.421875 -5.3125 L 4.421875 -4.632812 C 4.03125 -4.851562 3.601562 -4.960938 3.128906 -4.960938 C 2.503906 -4.960938 1.996094 -4.75 1.609375 -4.332031 C 1.21875 -3.914062 1.023438 -3.355469 1.023438 -2.660156 C 1.023438 -1.996094 1.207031 -1.464844 1.570312 -1.074219 C 1.933594 -0.679688 2.410156 -0.480469 3 -0.480469 C 3.546875 -0.480469 4.019531 -0.605469 4.421875 -0.847656 Z "/>
</g>
<g id="glyph-0-4">
<path d="M 2.253906 0.0898438 C 1.679688 0.0898438 1.222656 -0.0898438 0.878906 -0.453125 C 0.535156 -0.816406 0.363281 -1.296875 0.363281 -1.898438 C 0.363281 -2.550781 0.542969 -3.0625 0.898438 -3.429688 C 1.257812 -3.796875 1.738281 -3.980469 2.347656 -3.980469 C 2.925781 -3.980469 3.378906 -3.800781 3.703125 -3.445312 C 4.03125 -3.085938 4.191406 -2.59375 4.191406 -1.960938 C 4.191406 -1.339844 4.015625 -0.84375 3.667969 -0.46875 C 3.316406 -0.09375 2.84375 0.0898438 2.253906 0.0898438 M 2.300781 -3.457031 C 1.902344 -3.457031 1.585938 -3.320312 1.351562 -3.046875 C 1.117188 -2.773438 1.003906 -2.398438 1.003906 -1.921875 C 1.003906 -1.460938 1.121094 -1.097656 1.355469 -0.832031 C 1.589844 -0.566406 1.90625 -0.433594 2.300781 -0.433594 C 2.703125 -0.433594 3.011719 -0.5625 3.230469 -0.824219 C 3.445312 -1.085938 3.554688 -1.457031 3.554688 -1.9375 C 3.554688 -2.421875 3.445312 -2.796875 3.230469 -3.0625 C 3.011719 -3.324219 2.703125 -3.457031 2.300781 -3.457031 Z "/>
</g>
<g id="glyph-0-5">
<path d="M 2.660156 -3.257812 C 2.550781 -3.34375 2.390625 -3.382812 2.1875 -3.382812 C 1.921875 -3.382812 1.699219 -3.257812 1.519531 -3.007812 C 1.34375 -2.757812 1.253906 -2.414062 1.253906 -1.980469 L 1.253906 0 L 0.628906 0 L 0.628906 -3.890625 L 1.253906 -3.890625 L 1.253906 -3.085938 L 1.269531 -3.085938 C 1.355469 -3.359375 1.492188 -3.574219 1.675781 -3.726562 C 1.855469 -3.878906 2.0625 -3.957031 2.285156 -3.957031 C 2.449219 -3.957031 2.570312 -3.9375 2.660156 -3.902344 Z "/>
</g>
<g id="glyph-0-6">
<path d="M 3.753906 -1.789062 L 1.011719 -1.789062 C 1.019531 -1.355469 1.136719 -1.023438 1.359375 -0.785156 C 1.582031 -0.550781 1.886719 -0.433594 2.277344 -0.433594 C 2.714844 -0.433594 3.117188 -0.578125 3.484375 -0.867188 L 3.484375 -0.28125 C 3.144531 -0.03125 2.691406 0.0898438 2.128906 0.0898438 C 1.582031 0.0898438 1.148438 -0.0859375 0.835938 -0.4375 C 0.523438 -0.792969 0.363281 -1.289062 0.363281 -1.929688 C 0.363281 -2.535156 0.535156 -3.027344 0.878906 -3.410156 C 1.222656 -3.789062 1.648438 -3.980469 2.15625 -3.980469 C 2.664062 -3.980469 3.058594 -3.816406 3.339844 -3.484375 C 3.617188 -3.15625 3.753906 -2.699219 3.753906 -2.113281 L 3.753906 -1.789062 M 3.117188 -2.316406 C 3.117188 -2.675781 3.027344 -2.957031 2.859375 -3.15625 C 2.6875 -3.355469 2.449219 -3.457031 2.144531 -3.457031 C 1.851562 -3.457031 1.601562 -3.351562 1.398438 -3.140625 C 1.191406 -2.929688 1.066406 -2.65625 1.019531 -2.316406 Z "/>
</g>
<g id="glyph-0-7">
<path d="M 1.253906 0 L 0.628906 0 L 0.628906 -5.757812 L 1.253906 -5.757812 Z "/>
</g>
<g id="glyph-0-8">
<path d="M 3.414062 0 L 2.792969 0 L 2.792969 -0.609375 L 2.777344 -0.609375 C 2.503906 -0.140625 2.105469 0.0898438 1.578125 0.0898438 C 1.191406 0.0898438 0.890625 -0.0117188 0.671875 -0.214844 C 0.453125 -0.421875 0.339844 -0.695312 0.339844 -1.03125 C 0.339844 -1.757812 0.769531 -2.183594 1.625 -2.300781 L 2.792969 -2.464844 C 2.792969 -3.125 2.523438 -3.457031 1.988281 -3.457031 C 1.523438 -3.457031 1.097656 -3.296875 0.722656 -2.976562 L 0.722656 -3.617188 C 1.105469 -3.859375 1.542969 -3.980469 2.042969 -3.980469 C 2.957031 -3.980469 3.414062 -3.496094 3.414062 -2.527344 L 3.414062 0 M 2.792969 -1.96875 L 1.851562 -1.839844 C 1.566406 -1.796875 1.347656 -1.726562 1.199219 -1.625 C 1.054688 -1.519531 0.980469 -1.339844 0.980469 -1.078125 C 0.980469 -0.886719 1.046875 -0.734375 1.183594 -0.613281 C 1.320312 -0.492188 1.5 -0.433594 1.722656 -0.433594 C 2.03125 -0.433594 2.289062 -0.542969 2.488281 -0.757812 C 2.691406 -0.972656 2.792969 -1.25 2.792969 -1.578125 Z "/>
</g>
<g id="glyph-0-9">
<path d="M 2.433594 -0.0390625 C 2.289062 0.0429688 2.09375 0.0820312 1.851562 0.0820312 C 1.171875 0.0820312 0.832031 -0.296875 0.832031 -1.054688 L 0.832031 -3.355469 L 0.164062 -3.355469 L 0.164062 -3.890625 L 0.832031 -3.890625 L 0.832031 -4.839844 L 1.453125 -5.039062 L 1.453125 -3.890625 L 2.433594 -3.890625 L 2.433594 -3.355469 L 1.453125 -3.355469 L 1.453125 -1.164062 C 1.453125 -0.90625 1.5 -0.71875 1.585938 -0.609375 C 1.675781 -0.496094 1.824219 -0.441406 2.027344 -0.441406 C 2.183594 -0.441406 2.320312 -0.484375 2.433594 -0.570312 Z "/>
</g>
<g id="glyph-0-10">
<path d="M 0.949219 -4.875 C 0.839844 -4.875 0.742188 -4.914062 0.664062 -4.988281 C 0.585938 -5.066406 0.546875 -5.164062 0.546875 -5.277344 C 0.546875 -5.394531 0.585938 -5.492188 0.664062 -5.570312 C 0.742188 -5.644531 0.839844 -5.683594 0.949219 -5.683594 C 1.0625 -5.683594 1.160156 -5.644531 1.238281 -5.570312 C 1.320312 -5.492188 1.359375 -5.394531 1.359375 -5.277344 C 1.359375 -5.167969 1.320312 -5.070312 1.238281 -4.992188 C 1.160156 -4.914062 1.0625 -4.875 0.949219 -4.875 M 1.253906 0 L 0.628906 0 L 0.628906 -3.890625 L 1.253906 -3.890625 Z "/>
</g>
<g id="glyph-0-11">
<path d="M 3.859375 0 L 3.234375 0 L 3.234375 -2.21875 C 3.234375 -3.042969 2.933594 -3.457031 2.332031 -3.457031 C 2.019531 -3.457031 1.761719 -3.339844 1.558594 -3.105469 C 1.355469 -2.871094 1.253906 -2.574219 1.253906 -2.21875 L 1.253906 0 L 0.628906 0 L 0.628906 -3.890625 L 1.253906 -3.890625 L 1.253906 -3.242188 L 1.269531 -3.242188 C 1.5625 -3.734375 1.988281 -3.980469 2.542969 -3.980469 C 2.96875 -3.980469 3.296875 -3.84375 3.519531 -3.566406 C 3.746094 -3.292969 3.859375 -2.894531 3.859375 -2.378906 Z "/>
</g>
<g id="glyph-0-12">
<path d="M 3.28125 -0.179688 C 2.980469 0 2.628906 0.0898438 2.21875 0.0898438 C 1.664062 0.0898438 1.214844 -0.0898438 0.875 -0.449219 C 0.535156 -0.8125 0.363281 -1.277344 0.363281 -1.851562 C 0.363281 -2.492188 0.546875 -3.007812 0.914062 -3.398438 C 1.28125 -3.785156 1.773438 -3.980469 2.386719 -3.980469 C 2.726562 -3.980469 3.027344 -3.917969 3.289062 -3.789062 L 3.289062 -3.152344 C 3 -3.355469 2.691406 -3.457031 2.363281 -3.457031 C 1.964844 -3.457031 1.636719 -3.3125 1.382812 -3.027344 C 1.128906 -2.742188 1.003906 -2.371094 1.003906 -1.90625 C 1.003906 -1.449219 1.121094 -1.089844 1.363281 -0.828125 C 1.601562 -0.566406 1.921875 -0.433594 2.324219 -0.433594 C 2.664062 -0.433594 2.980469 -0.546875 3.28125 -0.769531 Z "/>
</g>
<g id="glyph-0-13">
<path d="M 2.550781 -5.210938 C 2.429688 -5.277344 2.292969 -5.3125 2.136719 -5.3125 C 1.703125 -5.3125 1.484375 -5.039062 1.484375 -4.488281 L 1.484375 -3.890625 L 2.394531 -3.890625 L 2.394531 -3.355469 L 1.484375 -3.355469 L 1.484375 0 L 0.867188 0 L 0.867188 -3.355469 L 0.203125 -3.355469 L 0.203125 -3.890625 L 0.867188 -3.890625 L 0.867188 -4.519531 C 0.867188 -4.925781 0.984375 -5.25 1.21875 -5.484375 C 1.453125 -5.722656 1.75 -5.839844 2.101562 -5.839844 C 2.289062 -5.839844 2.441406 -5.816406 2.550781 -5.773438 Z "/>
</g>
<g id="glyph-0-14">
<path d="M 3.859375 0 L 3.234375 0 L 3.234375 -1.765625 L 1.253906 -1.765625 L 1.253906 0 L 0.628906 0 L 0.628906 -3.890625 L 1.253906 -3.890625 L 1.253906 -2.292969 L 3.234375 -2.292969 L 3.234375 -3.890625 L 3.859375 -3.890625 Z "/>
</g>
<g id="glyph-0-15">
<path d="M 0.628906 0 L 0.628906 -3.890625 L 1.253906 -3.890625 L 1.253906 -2.394531 L 2.300781 -2.394531 C 2.699219 -2.394531 3.015625 -2.292969 3.25 -2.085938 C 3.484375 -1.878906 3.601562 -1.585938 3.601562 -1.214844 C 3.601562 -0.839844 3.480469 -0.542969 3.246094 -0.328125 C 3.011719 -0.109375 2.714844 0 2.355469 0 L 0.628906 0 M 1.253906 -1.859375 L 1.253906 -0.53125 L 2.1875 -0.53125 C 2.703125 -0.53125 2.960938 -0.757812 2.960938 -1.214844 C 2.960938 -1.644531 2.703125 -1.859375 2.179688 -1.859375 Z "/>
</g>
<g id="glyph-0-16">
<path d="M 3.761719 0 L 3.144531 0 L 3.144531 -1.566406 C 2.6875 -1.316406 2.269531 -1.191406 1.882812 -1.191406 C 1.011719 -1.191406 0.578125 -1.652344 0.578125 -2.574219 L 0.578125 -3.890625 L 1.199219 -3.890625 L 1.199219 -2.605469 C 1.199219 -2.035156 1.445312 -1.75 1.9375 -1.75 C 2.3125 -1.75 2.714844 -1.859375 3.144531 -2.078125 L 3.144531 -3.890625 L 3.761719 -3.890625 Z "/>
</g>
<g id="glyph-0-17">
<path d="M 3.890625 0 L 3.328125 0 L 3.328125 -3.101562 C 3.269531 -2.992188 3.1875 -2.839844 3.070312 -2.644531 L 1.277344 0 L 0.628906 0 L 0.628906 -3.890625 L 1.199219 -3.890625 L 1.199219 -0.824219 C 1.230469 -0.898438 1.296875 -1.023438 1.398438 -1.199219 L 3.242188 -3.890625 L 3.890625 -3.890625 Z "/>
</g>
<g id="glyph-0-18">
<path d="M 2.792969 -3.355469 L 1.253906 -3.355469 L 1.253906 0 L 0.628906 0 L 0.628906 -3.890625 L 2.792969 -3.890625 Z "/>
</g>
<g id="glyph-0-19">
<path d="M 3.46875 0 L 2.847656 0 L 2.847656 -3.359375 L 1.945312 -3.359375 C 1.839844 -2.101562 1.664062 -1.21875 1.410156 -0.710938 C 1.160156 -0.203125 0.820312 0.0546875 0.394531 0.0546875 C 0.265625 0.0546875 0.15625 0.0351562 0.0625 0 L 0.0625 -0.535156 C 0.148438 -0.488281 0.246094 -0.46875 0.347656 -0.46875 C 0.90625 -0.46875 1.265625 -1.609375 1.425781 -3.890625 L 3.46875 -3.890625 Z "/>
</g>
<g id="glyph-0-20">
<path d="M 0.339844 -0.171875 L 0.339844 -0.757812 C 0.636719 -0.542969 0.972656 -0.433594 1.351562 -0.433594 C 1.71875 -0.433594 2.015625 -0.546875 2.242188 -0.773438 C 2.46875 -1 2.59375 -1.304688 2.613281 -1.695312 L 0.957031 -1.695312 L 0.957031 -2.226562 L 2.613281 -2.226562 C 2.582031 -2.609375 2.453125 -2.910156 2.230469 -3.128906 C 2.003906 -3.347656 1.703125 -3.457031 1.328125 -3.457031 C 0.96875 -3.457031 0.652344 -3.355469 0.386719 -3.160156 L 0.386719 -3.773438 C 0.65625 -3.910156 0.972656 -3.980469 1.335938 -3.980469 C 1.953125 -3.980469 2.429688 -3.800781 2.761719 -3.4375 C 3.09375 -3.078125 3.257812 -2.570312 3.257812 -1.914062 C 3.257812 -1.304688 3.089844 -0.816406 2.746094 -0.453125 C 2.40625 -0.0898438 1.949219 0.0898438 1.375 0.0898438 C 0.976562 0.0898438 0.632812 0.00390625 0.339844 -0.171875 Z "/>
</g>
<g id="glyph-0-21">
<path d="M 3.636719 -5.800781 L 3.636719 -5.21875 C 3.535156 -5.140625 3.367188 -5.085938 3.136719 -5.046875 C 2.566406 -4.960938 2.167969 -4.878906 1.941406 -4.796875 C 1.714844 -4.71875 1.53125 -4.546875 1.382812 -4.289062 C 1.238281 -4.027344 1.144531 -3.644531 1.105469 -3.144531 L 1.121094 -3.144531 C 1.425781 -3.585938 1.855469 -3.804688 2.417969 -3.804688 C 2.933594 -3.804688 3.347656 -3.628906 3.660156 -3.277344 C 3.976562 -2.925781 4.132812 -2.460938 4.132812 -1.882812 C 4.132812 -1.289062 3.96875 -0.8125 3.640625 -0.449219 C 3.3125 -0.0898438 2.871094 0.0898438 2.316406 0.0898438 C 1.71875 0.0898438 1.257812 -0.121094 0.9375 -0.546875 C 0.613281 -0.96875 0.453125 -1.574219 0.453125 -2.363281 C 0.453125 -2.976562 0.511719 -3.496094 0.625 -3.921875 C 0.742188 -4.347656 0.90625 -4.667969 1.109375 -4.882812 C 1.316406 -5.097656 1.546875 -5.246094 1.796875 -5.328125 C 2.050781 -5.410156 2.480469 -5.503906 3.09375 -5.613281 C 3.339844 -5.667969 3.519531 -5.730469 3.636719 -5.800781 M 1.097656 -2.527344 L 1.097656 -1.988281 C 1.101562 -1.789062 1.128906 -1.589844 1.1875 -1.394531 C 1.246094 -1.199219 1.332031 -1.027344 1.4375 -0.878906 C 1.546875 -0.726562 1.675781 -0.617188 1.824219 -0.542969 C 1.972656 -0.46875 2.140625 -0.433594 2.332031 -0.433594 C 2.679688 -0.433594 2.957031 -0.5625 3.171875 -0.820312 C 3.386719 -1.082031 3.492188 -1.414062 3.492188 -1.820312 C 3.492188 -2.265625 3.382812 -2.617188 3.164062 -2.878906 C 2.945312 -3.140625 2.652344 -3.273438 2.277344 -3.273438 C 1.757812 -3.273438 1.363281 -3.023438 1.097656 -2.527344 Z "/>
</g>
<g id="glyph-0-22">
<path d="M 3.414062 0 L 2.792969 0 L 2.792969 -0.609375 L 2.777344 -0.609375 C 2.503906 -0.140625 2.105469 0.0898438 1.578125 0.0898438 C 1.191406 0.0898438 0.890625 -0.0117188 0.671875 -0.214844 C 0.453125 -0.421875 0.339844 -0.695312 0.339844 -1.03125 C 0.339844 -1.757812 0.769531 -2.183594 1.625 -2.300781 L 2.792969 -2.464844 C 2.792969 -3.125 2.523438 -3.457031 1.988281 -3.457031 C 1.523438 -3.457031 1.097656 -3.296875 0.722656 -2.976562 L 0.722656 -3.617188 C 1.105469 -3.859375 1.542969 -3.980469 2.042969 -3.980469 C 2.957031 -3.980469 3.414062 -3.496094 3.414062 -2.527344 L 3.414062 0 M 2.792969 -1.96875 L 1.851562 -1.839844 C 1.566406 -1.796875 1.347656 -1.726562 1.199219 -1.625 C 1.054688 -1.519531 0.980469 -1.339844 0.980469 -1.078125 C 0.980469 -0.886719 1.046875 -0.734375 1.183594 -0.613281 C 1.320312 -0.492188 1.5 -0.433594 1.722656 -0.433594 C 2.03125 -0.433594 2.289062 -0.542969 2.488281 -0.757812 C 2.691406 -0.972656 2.792969 -1.25 2.792969 -1.578125 Z "/>
</g>
<g id="glyph-0-23">
<path d="M 3.472656 -3.890625 L 2.164062 -1.921875 L 3.449219 0 L 2.722656 0 L 1.960938 -1.261719 C 1.910156 -1.339844 1.855469 -1.4375 1.789062 -1.558594 L 1.773438 -1.558594 C 1.761719 -1.535156 1.703125 -1.433594 1.59375 -1.261719 L 0.816406 0 L 0.0976562 0 L 1.425781 -1.90625 L 0.15625 -3.890625 L 0.882812 -3.890625 L 1.632812 -2.558594 C 1.6875 -2.460938 1.742188 -2.359375 1.796875 -2.253906 L 1.8125 -2.253906 L 2.785156 -3.890625 Z "/>
</g>
<g id="glyph-0-24">
<path d="M 3.726562 -3.890625 L 2.179688 -0.0234375 L 2.179688 1.789062 L 1.558594 1.789062 L 1.558594 -0.03125 L 0.0546875 -3.890625 L 0.746094 -3.890625 L 1.765625 -0.988281 L 1.875 -0.609375 L 1.882812 -0.609375 C 1.910156 -0.695312 1.949219 -0.824219 2.003906 -1.003906 L 3.078125 -3.890625 Z "/>
</g>
<g id="glyph-0-25">
<path d="M 3.890625 0 L 3.328125 0 L 3.328125 -3.101562 C 3.269531 -2.992188 3.1875 -2.839844 3.070312 -2.644531 L 1.277344 0 L 0.628906 0 L 0.628906 -3.890625 L 1.199219 -3.890625 L 1.199219 -0.824219 C 1.230469 -0.898438 1.296875 -1.023438 1.398438 -1.199219 L 3.242188 -3.890625 L 3.890625 -3.890625 L 3.890625 0 M 3.660156 -5.78125 C 3.621094 -5.421875 3.480469 -5.140625 3.230469 -4.933594 C 2.980469 -4.730469 2.667969 -4.625 2.292969 -4.625 C 1.910156 -4.625 1.59375 -4.730469 1.355469 -4.933594 C 1.113281 -5.140625 0.980469 -5.421875 0.957031 -5.78125 L 1.570312 -5.78125 C 1.609375 -5.304688 1.851562 -5.066406 2.300781 -5.066406 C 2.503906 -5.066406 2.671875 -5.128906 2.800781 -5.253906 C 2.933594 -5.378906 3.015625 -5.554688 3.046875 -5.78125 Z "/>
</g>
<g id="glyph-0-26">
<path d="M 4.832031 0 L 4.214844 0 L 4.214844 -3.207031 C 4.160156 -3.042969 4.074219 -2.804688 3.957031 -2.492188 L 2.984375 0 L 2.425781 0 L 1.425781 -2.492188 C 1.371094 -2.625 1.285156 -2.863281 1.164062 -3.207031 L 1.164062 0 L 0.628906 0 L 0.628906 -3.890625 L 1.425781 -3.890625 L 2.449219 -1.351562 C 2.523438 -1.167969 2.617188 -0.910156 2.730469 -0.585938 L 3.007812 -1.335938 L 4.003906 -3.890625 L 4.832031 -3.890625 Z "/>
</g>
<g id="glyph-0-27">
<path d="M 5.796875 0 L 4.953125 0 L 3.210938 -1.921875 L 3.199219 -1.921875 L 3.199219 0 L 2.605469 0 L 2.605469 -1.921875 L 2.589844 -1.921875 L 0.847656 0 L 0.015625 0 L 1.945312 -2.003906 L 0.132812 -3.890625 L 0.925781 -3.890625 L 2.589844 -2.070312 L 2.605469 -2.070312 L 2.605469 -3.890625 L 3.199219 -3.890625 L 3.199219 -2.070312 L 3.210938 -2.070312 L 4.875 -3.890625 L 5.675781 -3.890625 L 3.859375 -2.003906 Z "/>
</g>
</g>
</defs>
<g fill="rgb(0%, 0%, 0%)" fill-opacity="1">
<use xlink:href="#glyph-0-0" x="30" y="28.392578"/>
<use xlink:href="#glyph-0-1" x="34" y="28.392578"/>
<use xlink:href="#glyph-0-2" x="36" y="28.392578"/>
<use xlink:href="#glyph-0-3" x="38" y="28.392578"/>
<use xlink:href="#glyph-0-4" x="43" y="28.392578"/>
<use xlink:href="#glyph-0-5" x="48" y="28.392578"/>
<use xlink:href="#glyph-0-5" x="51" y="28.392578"/>
<use xlink:href="#glyph-0-6" x="54" y="28.392578"/>
<use xlink:href="#glyph-0-7" x="58" y="28.392578"/>
<use xlink:href="#glyph-0-8" x="60" y="28.392578"/>
<use xlink:href="#glyph-0-9" x="64" y="28.392578"/>
<use xlink:href="#glyph-0-10" x="67" y="28.392578"/>
<use xlink:href="#glyph-0-4" x="69" y="28.392578"/>
<use xlink:href="#glyph-0-11" x="74" y="28.392578"/>
<use xlink:href="#glyph-0-2" x="78" y="28.392578"/>
<use xlink:href="#glyph-0-12" x="80" y="28.392578"/>
<use xlink:href="#glyph-0-4" x="84" y="28.392578"/>
<use xlink:href="#glyph-0-6" x="89" y="28.392578"/>
<use xlink:href="#glyph-0-13" x="93" y="28.392578"/>
<use xlink:href="#glyph-0-13" x="95" y="28.392578"/>
<use xlink:href="#glyph-0-10" x="97" y="28.392578"/>
<use xlink:href="#glyph-0-12" x="99" y="28.392578"/>
<use xlink:href="#glyph-0-10" x="103" y="28.392578"/>
<use xlink:href="#glyph-0-6" x="105" y="28.392578"/>
<use xlink:href="#glyph-0-11" x="109" y="28.392578"/>
<use xlink:href="#glyph-0-9" x="113" y="28.392578"/>
<use xlink:href="#glyph-0-2" x="116" y="28.392578"/>
</g>
<g fill="rgb(0%, 0%, 0%)" fill-opacity="1">
<use xlink:href="#glyph-0-14" x="118" y="28.392578"/>
<use xlink:href="#glyph-0-15" x="122" y="28.392578"/>
<use xlink:href="#glyph-0-2" x="126" y="28.392578"/>
<use xlink:href="#glyph-0-16" x="128" y="28.392578"/>
<use xlink:href="#glyph-0-17" x="132" y="28.392578"/>
<use xlink:href="#glyph-0-18" x="137" y="28.392578"/>
<use xlink:href="#glyph-0-19" x="140" y="28.392578"/>
<use xlink:href="#glyph-0-20" x="144" y="28.392578"/>
<use xlink:href="#glyph-0-19" x="148" y="28.392578"/>
<use xlink:href="#glyph-0-2" x="152" y="28.392578"/>
<use xlink:href="#glyph-0-21" x="154" y="28.392578"/>
<use xlink:href="#glyph-0-22" x="159" y="28.392578"/>
<use xlink:href="#glyph-0-2" x="163" y="28.392578"/>
<use xlink:href="#glyph-0-23" x="165" y="28.392578"/>
<use xlink:href="#glyph-0-24" x="169" y="28.392578"/>
<use xlink:href="#glyph-0-16" x="173" y="28.392578"/>
<use xlink:href="#glyph-0-17" x="177" y="28.392578"/>
<use xlink:href="#glyph-0-25" x="182" y="28.392578"/>
<use xlink:href="#glyph-0-18" x="187" y="28.392578"/>
<use xlink:href="#glyph-0-2" x="190" y="28.392578"/>
<use xlink:href="#glyph-0-23" x="192" y="28.392578"/>
<use xlink:href="#glyph-0-20" x="196" y="28.392578"/>
<use xlink:href="#glyph-0-26" x="200" y="28.392578"/>
<use xlink:href="#glyph-0-27" x="205" y="28.392578"/>
<use xlink:href="#glyph-0-17" x="211" y="28.392578"/>
<use xlink:href="#glyph-0-14" x="216" y="28.392578"/>
<use xlink:href="#glyph-0-20" x="220" y="28.392578"/>
<use xlink:href="#glyph-0-1" x="224" y="28.392578"/>
</g>
</svg>
