<?xml version="1.0" encoding="UTF-8"?>
<svg xmlns="http://www.w3.org/2000/svg" xmlns:xlink="http://www.w3.org/1999/xlink" width="854" height="480" viewBox="0 0 854 480">
<defs>
<g>
<g id="glyph-0-0">
<path d="M 3.539062 0 L 2.839844 0 L 1.1875 -1.957031 C 1.125 -2.03125 1.089844 -2.082031 1.074219 -2.105469 L 1.0625 -2.105469 L 1.0625 0 L 0.5625 0 L 0.5625 -4.277344 L 1.0625 -4.277344 L 1.0625 -2.269531 L 1.074219 -2.269531 C 1.101562 -2.3125 1.140625 -2.359375 1.1875 -2.414062 L 2.785156 -4.277344 L 3.410156 -4.277344 L 1.574219 -2.226562 Z "/>
</g>
<g id="glyph-0-1">
<path d="M 1.773438 0.0703125 C 1.320312 0.0703125 0.960938 -0.0703125 0.691406 -0.355469 C 0.421875 -0.640625 0.285156 -1.019531 0.285156 -1.492188 C 0.285156 -2.003906 0.425781 -2.40625 0.707031 -2.695312 C 0.988281 -2.984375 1.367188 -3.125 1.84375 -3.125 C 2.300781 -3.125 2.65625 -2.988281 2.910156 -2.707031 C 3.167969 -2.425781 3.292969 -2.035156 3.292969 -1.539062 C 3.292969 -1.050781 3.15625 -0.660156 2.878906 -0.367188 C 2.605469 -0.0742188 2.234375 0.0703125 1.773438 0.0703125 M 1.808594 -2.714844 C 1.492188 -2.714844 1.246094 -2.609375 1.0625 -2.394531 C 0.878906 -2.179688 0.789062 -1.886719 0.789062 -1.511719 C 0.789062 -1.148438 0.878906 -0.863281 1.066406 -0.652344 C 1.25 -0.445312 1.496094 -0.339844 1.808594 -0.339844 C 2.125 -0.339844 2.367188 -0.441406 2.539062 -0.648438 C 2.707031 -0.851562 2.792969 -1.144531 2.792969 -1.523438 C 2.792969 -1.902344 2.707031 -2.199219 2.539062 -2.40625 C 2.367188 -2.613281 2.125 -2.714844 1.808594 -2.714844 Z "/>
</g>
<g id="glyph-0-2">
<path d="M 0.996094 -0.441406 L 0.984375 -0.441406 L 0.984375 1.40625 L 0.496094 1.40625 L 0.496094 -3.054688 L 0.984375 -3.054688 L 0.984375 -2.519531 L 0.996094 -2.519531 C 1.238281 -2.925781 1.589844 -3.125 2.054688 -3.125 C 2.445312 -3.125 2.753906 -2.988281 2.976562 -2.714844 C 3.195312 -2.441406 3.304688 -2.078125 3.304688 -1.617188 C 3.304688 -1.105469 3.183594 -0.695312 2.933594 -0.390625 C 2.683594 -0.0820312 2.34375 0.0703125 1.914062 0.0703125 C 1.515625 0.0703125 1.210938 -0.0976562 0.996094 -0.441406 M 0.984375 -1.675781 L 0.984375 -1.246094 C 0.984375 -0.996094 1.066406 -0.78125 1.230469 -0.605469 C 1.394531 -0.429688 1.601562 -0.339844 1.855469 -0.339844 C 2.152344 -0.339844 2.382812 -0.453125 2.550781 -0.679688 C 2.71875 -0.90625 2.804688 -1.222656 2.804688 -1.625 C 2.804688 -1.964844 2.726562 -2.234375 2.570312 -2.425781 C 2.410156 -2.617188 2.199219 -2.714844 1.929688 -2.714844 C 1.644531 -2.714844 1.417969 -2.617188 1.246094 -2.417969 C 1.070312 -2.21875 0.984375 -1.972656 0.984375 -1.675781 Z "/>
</g>
<g id="glyph-0-3">
<path d="M 2.949219 -1.40625 L 0.792969 -1.40625 C 0.800781 -1.066406 0.894531 -0.800781 1.066406 -0.617188 C 1.242188 -0.433594 1.484375 -0.339844 1.789062 -0.339844 C 2.132812 -0.339844 2.449219 -0.453125 2.738281 -0.679688 L 2.738281 -0.222656 C 2.46875 -0.0273438 2.117188 0.0703125 1.675781 0.0703125 C 1.242188 0.0703125 0.902344 -0.0664062 0.65625 -0.34375 C 0.410156 -0.621094 0.285156 -1.011719 0.285156 -1.515625 C 0.285156 -1.992188 0.421875 -2.378906 0.691406 -2.679688 C 0.960938 -2.976562 1.296875 -3.125 1.695312 -3.125 C 2.09375 -3.125 2.402344 -2.996094 2.621094 -2.738281 C 2.839844 -2.480469 2.949219 -2.121094 2.949219 -1.660156 L 2.949219 -1.40625 M 2.449219 -1.820312 C 2.449219 -2.101562 2.378906 -2.324219 2.246094 -2.480469 C 2.109375 -2.636719 1.925781 -2.714844 1.6875 -2.714844 C 1.453125 -2.714844 1.257812 -2.632812 1.097656 -2.46875 C 0.9375 -2.300781 0.835938 -2.085938 0.800781 -1.820312 Z "/>
</g>
<g id="glyph-0-4">
<path d="M 2.722656 0 L 2.238281 0 L 2.238281 -2.640625 L 1.527344 -2.640625 C 1.445312 -1.652344 1.304688 -0.957031 1.109375 -0.558594 C 0.910156 -0.15625 0.644531 0.0429688 0.308594 0.0429688 C 0.207031 0.0429688 0.121094 0.0273438 0.046875 0 L 0.046875 -0.421875 C 0.117188 -0.386719 0.191406 -0.367188 0.273438 -0.367188 C 0.710938 -0.367188 0.992188 -1.261719 1.117188 -3.054688 L 2.722656 -3.054688 Z "/>
</g>
<g id="glyph-0-5">
<path d="M 2.582031 0 L 2.09375 0 L 2.09375 -1.265625 L 1.6875 -1.265625 C 1.488281 -1.265625 1.308594 -1.105469 1.148438 -0.789062 L 0.75 0 L 0.183594 0 L 0.699219 -0.941406 C 0.816406 -1.160156 0.960938 -1.304688 1.128906 -1.375 C 0.890625 -1.40625 0.710938 -1.496094 0.585938 -1.636719 C 0.460938 -1.78125 0.398438 -1.960938 0.398438 -2.175781 C 0.398438 -2.445312 0.496094 -2.660156 0.691406 -2.816406 C 0.886719 -2.976562 1.160156 -3.054688 1.515625 -3.054688 L 2.582031 -3.054688 L 2.582031 0 M 2.09375 -1.675781 L 2.09375 -2.636719 L 1.515625 -2.636719 C 1.105469 -2.636719 0.898438 -2.480469 0.898438 -2.167969 C 0.898438 -1.839844 1.097656 -1.675781 1.496094 -1.675781 Z "/>
</g>
<g id="glyph-0-6">
<path d="M 3.480469 1.113281 L 3.0625 1.113281 L 3.0625 0 L 0.496094 0 L 0.496094 -3.054688 L 0.984375 -3.054688 L 0.984375 -0.414062 L 2.542969 -0.414062 L 2.542969 -3.054688 L 3.03125 -3.054688 L 3.03125 -0.414062 L 3.480469 -0.414062 Z "/>
</g>
<g id="glyph-0-7">
<path d="M 3.054688 0 L 2.613281 0 L 2.613281 -2.4375 C 2.570312 -2.351562 2.503906 -2.230469 2.414062 -2.078125 L 1.003906 0 L 0.496094 0 L 0.496094 -3.054688 L 0.941406 -3.054688 L 0.941406 -0.648438 C 0.964844 -0.707031 1.019531 -0.804688 1.097656 -0.941406 L 2.546875 -3.054688 L 3.054688 -3.054688 Z "/>
</g>
<g id="glyph-0-8">
<path d="M 3.054688 0 L 2.613281 0 L 2.613281 -2.4375 C 2.570312 -2.351562 2.503906 -2.230469 2.414062 -2.078125 L 1.003906 0 L 0.496094 0 L 0.496094 -3.054688 L 0.941406 -3.054688 L 0.941406 -0.648438 C 0.964844 -0.707031 1.019531 -0.804688 1.097656 -0.941406 L 2.546875 -3.054688 L 3.054688 -3.054688 L 3.054688 0 M 2.875 -4.542969 C 2.847656 -4.261719 2.734375 -4.039062 2.539062 -3.878906 C 2.339844 -3.714844 2.097656 -3.632812 1.800781 -3.632812 C 1.5 -3.632812 1.253906 -3.714844 1.0625 -3.878906 C 0.875 -4.039062 0.769531 -4.261719 0.75 -4.542969 L 1.234375 -4.542969 C 1.261719 -4.167969 1.453125 -3.980469 1.808594 -3.980469 C 1.96875 -3.980469 2.097656 -4.03125 2.203125 -4.128906 C 2.304688 -4.226562 2.367188 -4.363281 2.394531 -4.542969 Z "/>
</g>
<g id="glyph-0-9">
<path d="M 3.03125 0 L 2.542969 0 L 2.542969 -1.386719 L 0.984375 -1.386719 L 0.984375 0 L 0.496094 0 L 0.496094 -3.054688 L 0.984375 -3.054688 L 0.984375 -1.800781 L 2.542969 -1.800781 L 2.542969 -3.054688 L 3.03125 -3.054688 Z "/>
</g>
<g id="glyph-0-10">
</g>
<g id="glyph-0-11">
<path d="M 3.03125 0 L 2.34375 0 L 0.996094 -1.46875 L 0.984375 -1.46875 L 0.984375 0 L 0.496094 0 L 0.496094 -3.054688 L 0.984375 -3.054688 L 0.984375 -1.65625 L 0.996094 -1.65625 L 2.28125 -3.054688 L 2.921875 -3.054688 L 1.503906 -1.582031 Z "/>
</g>
<g id="glyph-0-12">
<path d="M 0.269531 -0.132812 L 0.269531 -0.597656 C 0.5 -0.425781 0.765625 -0.339844 1.0625 -0.339844 C 1.351562 -0.339844 1.582031 -0.429688 1.761719 -0.605469 C 1.941406 -0.785156 2.035156 -1.027344 2.054688 -1.332031 L 0.75 -1.332031 L 0.75 -1.75 L 2.054688 -1.75 C 2.027344 -2.050781 1.929688 -2.289062 1.75 -2.457031 C 1.574219 -2.628906 1.339844 -2.714844 1.042969 -2.714844 C 0.761719 -2.714844 0.511719 -2.636719 0.304688 -2.484375 L 0.304688 -2.964844 C 0.515625 -3.074219 0.765625 -3.125 1.050781 -3.125 C 1.535156 -3.125 1.910156 -2.984375 2.167969 -2.703125 C 2.429688 -2.417969 2.558594 -2.019531 2.558594 -1.503906 C 2.558594 -1.023438 2.425781 -0.640625 2.160156 -0.355469 C 1.890625 -0.0703125 1.53125 0.0703125 1.082031 0.0703125 C 0.769531 0.0703125 0.496094 0.00390625 0.269531 -0.132812 Z "/>
</g>
<g id="glyph-0-13">
<path d="M 2.316406 0.0703125 L 2.316406 1.4375 L 1.875 1.4375 L 1.875 0.0703125 L 1.777344 0.0703125 C 1.332031 0.0703125 0.972656 -0.0742188 0.699219 -0.359375 C 0.421875 -0.648438 0.285156 -1.027344 0.285156 -1.492188 C 0.285156 -1.988281 0.425781 -2.382812 0.703125 -2.679688 C 0.980469 -2.976562 1.347656 -3.125 1.800781 -3.125 L 1.875 -3.125 L 1.875 -4.351562 L 2.316406 -4.351562 L 2.316406 -3.125 L 2.382812 -3.125 C 2.839844 -3.125 3.210938 -2.980469 3.488281 -2.683594 C 3.765625 -2.386719 3.902344 -1.992188 3.902344 -1.492188 C 3.902344 -1.027344 3.765625 -0.648438 3.492188 -0.359375 C 3.222656 -0.0742188 2.863281 0.0703125 2.417969 0.0703125 L 2.316406 0.0703125 M 2.316406 -2.714844 L 2.316406 -0.339844 L 2.382812 -0.339844 C 2.691406 -0.339844 2.9375 -0.445312 3.125 -0.65625 C 3.308594 -0.863281 3.402344 -1.148438 3.402344 -1.511719 C 3.402344 -1.886719 3.308594 -2.183594 3.128906 -2.394531 C 2.945312 -2.609375 2.703125 -2.714844 2.394531 -2.714844 L 2.316406 -2.714844 M 1.875 -0.339844 L 1.875 -2.714844 L 1.800781 -2.714844 C 1.496094 -2.714844 1.25 -2.609375 1.066406 -2.394531 C 0.878906 -2.179688 0.789062 -1.886719 0.789062 -1.511719 C 0.789062 -1.152344 0.878906 -0.871094 1.066406 -0.65625 C 1.253906 -0.445312 1.5 -0.339844 1.8125 -0.339844 Z "/>
</g>
<g id="glyph-0-14">
<path d="M 2.414062 -2.636719 L 1.496094 -2.636719 L 1.496094 0 L 1.007812 0 L 1.007812 -2.636719 L 0.0898438 -2.636719 L 0.0898438 -3.054688 L 2.414062 -3.054688 Z "/>
</g>
<g id="glyph-0-15">
<path d="M 2.089844 -2.558594 C 2.003906 -2.625 1.878906 -2.660156 1.71875 -2.660156 C 1.511719 -2.660156 1.335938 -2.558594 1.195312 -2.363281 C 1.054688 -2.167969 0.984375 -1.898438 0.984375 -1.558594 L 0.984375 0 L 0.496094 0 L 0.496094 -3.054688 L 0.984375 -3.054688 L 0.984375 -2.425781 L 0.996094 -2.425781 C 1.066406 -2.640625 1.171875 -2.808594 1.316406 -2.929688 C 1.460938 -3.050781 1.621094 -3.109375 1.796875 -3.109375 C 1.921875 -3.109375 2.019531 -3.09375 2.089844 -3.066406 Z "/>
</g>
<g id="glyph-0-16">
<path d="M 1.578125 -0.820312 L 1.015625 0.0078125 L 1.566406 0.816406 L 1.132812 0.816406 L 0.816406 0.285156 L 0.8125 0.285156 L 0.484375 0.816406 L 0.0546875 0.816406 L 0.621094 0.015625 L 0.078125 -0.820312 L 0.511719 -0.820312 L 0.820312 -0.257812 L 0.828125 -0.257812 L 1.15625 -0.820312 Z "/>
</g>
<g id="glyph-0-17">
<path d="M 1.003906 0.636719 C 1.003906 0.992188 1 1.214844 0.996094 1.300781 L 0.589844 1.300781 C 0.613281 1.082031 0.625 0.824219 0.625 0.53125 C 0.480469 0.0117188 0.253906 -0.523438 -0.0585938 -1.066406 L 0.371094 -1.066406 C 0.605469 -0.632812 0.777344 -0.21875 0.890625 0.179688 L 0.902344 0.179688 C 1.136719 -0.148438 1.253906 -0.488281 1.253906 -0.839844 C 1.253906 -0.925781 1.246094 -1 1.234375 -1.066406 L 1.617188 -1.066406 C 1.628906 -1.003906 1.632812 -0.941406 1.632812 -0.875 C 1.632812 -0.414062 1.421875 0.0898438 1.003906 0.636719 Z "/>
</g>
<g id="glyph-0-18">
<path d="M 2.058594 -1.511719 L 0.429688 -1.511719 L 0.429688 -1.894531 L 2.058594 -1.894531 Z "/>
</g>
<g id="glyph-0-19">
<path d="M 2.191406 -2.636719 L 0.984375 -2.636719 L 0.984375 0 L 0.496094 0 L 0.496094 -3.054688 L 2.191406 -3.054688 Z "/>
</g>
<g id="glyph-0-20">
<path d="M 0.664062 0.0664062 C 0.574219 0.0664062 0.496094 0.03125 0.429688 -0.03125 C 0.367188 -0.0976562 0.335938 -0.175781 0.335938 -0.269531 C 0.335938 -0.359375 0.367188 -0.4375 0.429688 -0.503906 C 0.496094 -0.574219 0.574219 -0.605469 0.664062 -0.605469 C 0.757812 -0.605469 0.839844 -0.574219 0.902344 -0.503906 C 0.96875 -0.4375 1.003906 -0.359375 1.003906 -0.269531 C 1.003906 -0.175781 0.96875 -0.0976562 0.902344 -0.03125 C 0.839844 0.03125 0.757812 0.0664062 0.664062 0.0664062 Z "/>
</g>
</g>
</defs>
<g fill="rgb(100%, 83.529412%, 30.980392%)" fill-opacity="1">
<use xlink:href="#glyph-0-0" x="30" y="26.59375"/>
<use xlink:href="#glyph-0-1" x="34" y="26.59375"/>
<use xlink:href="#glyph-0-2" x="38" y="26.59375"/>
<use xlink:href="#glyph-0-2" x="42" y="26.59375"/>
<use xlink:href="#glyph-0-3" x="46" y="26.59375"/>
<use xlink:href="#glyph-0-4" x="49" y="26.59375"/>
<use xlink:href="#glyph-0-5" x="52" y="26.59375"/>
<use xlink:href="#glyph-0-6" x="55" y="26.59375"/>
<use xlink:href="#glyph-0-7" x="59" y="26.59375"/>
<use xlink:href="#glyph-0-8" x="63" y="26.59375"/>
<use xlink:href="#glyph-0-9" x="67" y="26.59375"/>
<use xlink:href="#glyph-0-10" x="71" y="26.59375"/>
<use xlink:href="#glyph-0-11" x="73" y="26.59375"/>
<use xlink:href="#glyph-0-1" x="76" y="26.59375"/>
<use xlink:href="#glyph-0-12" x="80" y="26.59375"/>
<use xlink:href="#glyph-0-13" x="83" y="26.59375"/>
<use xlink:href="#glyph-0-13" x="87" y="26.59375"/>
<use xlink:href="#glyph-0-7" x="91" y="26.59375"/>
<use xlink:href="#glyph-0-6" x="95" y="26.59375"/>
<use xlink:href="#glyph-0-7" x="99" y="26.59375"/>
<use xlink:href="#glyph-0-3" x="103" y="26.59375"/>
<use xlink:href="#glyph-0-9" x="106" y="26.59375"/>
<use xlink:href="#glyph-0-14" x="110" y="26.59375"/>
<use xlink:href="#glyph-0-10" x="113" y="26.59375"/>
</g>
<g fill="rgb(100%, 83.529412%, 30.980392%)" fill-opacity="1">
<use xlink:href="#glyph-0-15" x="115" y="26.59375"/>
<use xlink:href="#glyph-0-16" x="117" y="26.59375"/>
</g>
<g fill="rgb(100%, 83.529412%, 30.980392%)" fill-opacity="1">
<use xlink:href="#glyph-0-17" x="119" y="26.59375"/>
<use xlink:href="#glyph-0-10" x="121" y="26.59375"/>
<use xlink:href="#glyph-0-18" x="123" y="26.59375"/>
</g>
<g fill="rgb(100%, 83.529412%, 30.980392%)" fill-opacity="1">
<use xlink:href="#glyph-0-7" x="125" y="26.59375"/>
<use xlink:href="#glyph-0-8" x="129" y="26.59375"/>
<use xlink:href="#glyph-0-19" x="133" y="26.59375"/>
<use xlink:href="#glyph-0-10" x="135" y="26.59375"/>
<use xlink:href="#glyph-0-1" x="137" y="26.59375"/>
<use xlink:href="#glyph-0-4" x="141" y="26.59375"/>
<use xlink:href="#glyph-0-20" x="144" y="26.59375"/>
</g>
</svg>
