<?xml version="1.0" encoding="UTF-8"?>
<svg xmlns="http://www.w3.org/2000/svg" xmlns:xlink="http://www.w3.org/1999/xlink" width="854" height="480" viewBox="0 0 854 480">
<defs>
<g>
<g id="glyph-0-0">
<path d="M 1.84375 -3.113281 L 1.84375 -1.058594 L 2.242188 -1.058594 L 2.242188 -0.730469 L 1.84375 -0.730469 L 1.84375 0 L 1.492188 0 L 1.492188 -0.730469 L 0.03125 -0.730469 L 0.03125 -1.039062 C 0.167969 -1.191406 0.304688 -1.355469 0.441406 -1.53125 C 0.582031 -1.707031 0.714844 -1.882812 0.839844 -2.0625 C 0.96875 -2.242188 1.085938 -2.417969 1.191406 -2.597656 C 1.300781 -2.777344 1.390625 -2.949219 1.464844 -3.113281 L 1.84375 -3.113281 M 0.433594 -1.058594 L 1.492188 -1.058594 L 1.492188 -2.578125 C 1.382812 -2.390625 1.28125 -2.222656 1.183594 -2.074219 C 1.085938 -1.921875 0.996094 -1.789062 0.90625 -1.667969 C 0.820312 -1.546875 0.738281 -1.433594 0.65625 -1.335938 C 0.578125 -1.238281 0.503906 -1.144531 0.433594 -1.058594 Z "/>
</g>
<g id="glyph-0-1">
<path d="M 2.101562 -0.949219 C 2.101562 -0.796875 2.078125 -0.660156 2.023438 -0.539062 C 1.972656 -0.414062 1.898438 -0.308594 1.800781 -0.222656 C 1.707031 -0.132812 1.589844 -0.0664062 1.453125 -0.015625 C 1.316406 0.03125 1.167969 0.0546875 1 0.0546875 C 0.710938 0.0546875 0.496094 0.0117188 0.355469 -0.0742188 L 0.355469 -0.453125 C 0.566406 -0.316406 0.785156 -0.25 1.003906 -0.25 C 1.117188 -0.25 1.21875 -0.265625 1.308594 -0.300781 C 1.398438 -0.332031 1.476562 -0.378906 1.539062 -0.4375 C 1.605469 -0.496094 1.652344 -0.570312 1.6875 -0.652344 C 1.722656 -0.738281 1.738281 -0.828125 1.738281 -0.929688 C 1.738281 -1.132812 1.671875 -1.289062 1.535156 -1.40625 C 1.398438 -1.519531 1.199219 -1.578125 0.941406 -1.578125 C 0.898438 -1.578125 0.855469 -1.578125 0.808594 -1.574219 C 0.761719 -1.574219 0.71875 -1.570312 0.671875 -1.570312 C 0.625 -1.566406 0.578125 -1.566406 0.535156 -1.5625 C 0.492188 -1.558594 0.449219 -1.554688 0.414062 -1.550781 L 0.519531 -3.113281 L 1.960938 -3.113281 L 1.960938 -2.789062 L 0.828125 -2.789062 L 0.765625 -1.878906 C 0.8125 -1.878906 0.863281 -1.882812 0.914062 -1.882812 C 0.964844 -1.886719 1.011719 -1.886719 1.050781 -1.886719 C 1.21875 -1.886719 1.363281 -1.867188 1.496094 -1.824219 C 1.625 -1.78125 1.734375 -1.71875 1.824219 -1.636719 C 1.917969 -1.558594 1.984375 -1.457031 2.03125 -1.34375 C 2.078125 -1.226562 2.101562 -1.09375 2.101562 -0.949219 Z "/>
</g>
</g>
</defs>
<g fill="rgb(100%, 71.764706%, 30.196078%)" fill-opacity="1">
<use xlink:href="#glyph-0-0" x="30" y="24.794922"/>
<use xlink:href="#glyph-0-1" x="32" y="24.794922"/>
</g>
</svg>
