<?xml version="1.0" encoding="UTF-8"?>
<svg xmlns="http://www.w3.org/2000/svg" xmlns:xlink="http://www.w3.org/1999/xlink" width="854" height="480" viewBox="0 0 854 480">
<defs>
<g>
<g id="glyph-0-0">
<path d="M 4.097656 -2.644531 C 4.097656 -1.808594 3.878906 -1.144531 3.4375 -0.648438 C 2.996094 -0.152344 2.417969 0.09375 1.707031 0.09375 C 1.40625 0.09375 1.121094 0.0664062 0.855469 0.00390625 C 0.589844 -0.0546875 0.355469 -0.132812 0.152344 -0.226562 L 0.152344 -1 L 0.203125 -1 C 0.375 -0.84375 0.589844 -0.722656 0.851562 -0.632812 C 1.109375 -0.542969 1.390625 -0.496094 1.6875 -0.496094 C 2.191406 -0.496094 2.601562 -0.683594 2.921875 -1.050781 C 3.238281 -1.421875 3.394531 -1.90625 3.394531 -2.511719 L 0.835938 -2.511719 L 0.835938 -3.121094 L 3.359375 -3.121094 C 3.308594 -3.628906 3.132812 -4.027344 2.832031 -4.320312 C 2.535156 -4.609375 2.152344 -4.753906 1.6875 -4.753906 C 1.398438 -4.753906 1.125 -4.710938 0.875 -4.621094 C 0.625 -4.53125 0.40625 -4.40625 0.21875 -4.246094 L 0.164062 -4.246094 L 0.164062 -5.023438 C 0.355469 -5.109375 0.585938 -5.183594 0.859375 -5.25 C 1.132812 -5.3125 1.417969 -5.347656 1.714844 -5.347656 C 2.472656 -5.347656 3.058594 -5.113281 3.472656 -4.644531 C 3.890625 -4.175781 4.097656 -3.507812 4.097656 -2.644531 Z "/>
</g>
<g id="glyph-0-1">
<path d="M 2.046875 0.0898438 C 1.773438 0.0898438 1.527344 0.046875 1.300781 -0.0351562 C 1.074219 -0.121094 0.882812 -0.246094 0.71875 -0.417969 C 0.558594 -0.585938 0.429688 -0.796875 0.34375 -1.054688 C 0.253906 -1.3125 0.207031 -1.617188 0.207031 -1.964844 C 0.207031 -2.308594 0.253906 -2.609375 0.347656 -2.859375 C 0.441406 -3.113281 0.5625 -3.324219 0.71875 -3.496094 C 0.875 -3.667969 1.066406 -3.800781 1.300781 -3.890625 C 1.53125 -3.984375 1.78125 -4.03125 2.046875 -4.03125 C 2.261719 -4.03125 2.46875 -4 2.671875 -3.9375 C 2.871094 -3.878906 3.050781 -3.808594 3.210938 -3.726562 L 3.210938 -2.984375 L 3.171875 -2.984375 C 3.125 -3.023438 3.0625 -3.070312 2.988281 -3.121094 C 2.914062 -3.171875 2.824219 -3.226562 2.71875 -3.28125 C 2.628906 -3.328125 2.519531 -3.367188 2.394531 -3.402344 C 2.269531 -3.4375 2.148438 -3.457031 2.035156 -3.457031 C 1.691406 -3.457031 1.414062 -3.328125 1.207031 -3.066406 C 1 -2.808594 0.894531 -2.4375 0.894531 -1.964844 C 0.894531 -1.5 0.996094 -1.136719 1.199219 -0.875 C 1.398438 -0.617188 1.675781 -0.488281 2.035156 -0.488281 C 2.25 -0.488281 2.457031 -0.53125 2.652344 -0.621094 C 2.847656 -0.710938 3.019531 -0.824219 3.171875 -0.964844 L 3.210938 -0.964844 L 3.210938 -0.222656 C 3.144531 -0.191406 3.0625 -0.15625 2.960938 -0.109375 C 2.863281 -0.0664062 2.773438 -0.0351562 2.695312 -0.015625 C 2.582031 0.0195312 2.480469 0.0429688 2.390625 0.0625 C 2.300781 0.078125 2.1875 0.0898438 2.046875 0.0898438 Z "/>
</g>
<g id="glyph-0-2">
<path d="M 3.570312 -1.191406 C 3.570312 -1 3.53125 -0.832031 3.460938 -0.6875 C 3.386719 -0.539062 3.285156 -0.417969 3.160156 -0.316406 C 3 -0.191406 2.832031 -0.109375 2.65625 -0.0664062 C 2.480469 -0.0234375 2.273438 0 2.027344 0 L 0.480469 0 L 0.480469 -3.9375 L 1.925781 -3.9375 C 2.214844 -3.9375 2.425781 -3.929688 2.558594 -3.914062 C 2.695312 -3.894531 2.828125 -3.851562 2.957031 -3.777344 C 3.097656 -3.703125 3.199219 -3.601562 3.265625 -3.476562 C 3.332031 -3.351562 3.363281 -3.203125 3.363281 -3.03125 C 3.363281 -2.84375 3.3125 -2.675781 3.210938 -2.527344 C 3.105469 -2.378906 2.96875 -2.261719 2.796875 -2.179688 L 2.8125 -2.15625 C 3.027344 -2.101562 3.207031 -1.992188 3.351562 -1.828125 C 3.496094 -1.664062 3.570312 -1.449219 3.570312 -1.191406 M 2.683594 -2.929688 C 2.683594 -3.019531 2.667969 -3.097656 2.640625 -3.164062 C 2.609375 -3.230469 2.558594 -3.28125 2.484375 -3.320312 C 2.402344 -3.363281 2.308594 -3.390625 2.203125 -3.398438 C 2.097656 -3.40625 1.953125 -3.410156 1.765625 -3.410156 L 1.136719 -3.410156 L 1.136719 -2.332031 L 1.898438 -2.332031 C 2.058594 -2.332031 2.175781 -2.339844 2.242188 -2.355469 C 2.3125 -2.371094 2.386719 -2.402344 2.46875 -2.449219 C 2.546875 -2.5 2.601562 -2.5625 2.632812 -2.640625 C 2.667969 -2.722656 2.683594 -2.816406 2.683594 -2.929688 M 2.886719 -1.1875 C 2.886719 -1.324219 2.867188 -1.429688 2.828125 -1.511719 C 2.789062 -1.59375 2.703125 -1.664062 2.570312 -1.726562 C 2.488281 -1.769531 2.402344 -1.792969 2.304688 -1.800781 C 2.210938 -1.8125 2.082031 -1.816406 1.914062 -1.816406 L 1.136719 -1.816406 L 1.136719 -0.527344 L 1.710938 -0.527344 C 1.949219 -0.527344 2.132812 -0.539062 2.265625 -0.558594 C 2.394531 -0.574219 2.507812 -0.613281 2.601562 -0.671875 C 2.703125 -0.730469 2.773438 -0.800781 2.816406 -0.882812 C 2.863281 -0.960938 2.886719 -1.0625 2.886719 -1.1875 Z "/>
</g>
<g id="glyph-0-3">
<path d="M 0.148438 -0.902344 L 0.191406 -0.902344 C 0.242188 -0.859375 0.304688 -0.8125 0.382812 -0.761719 C 0.460938 -0.714844 0.550781 -0.671875 0.652344 -0.628906 C 0.765625 -0.582031 0.875 -0.542969 0.976562 -0.519531 C 1.082031 -0.492188 1.207031 -0.480469 1.359375 -0.480469 C 1.695312 -0.480469 1.96875 -0.59375 2.171875 -0.820312 C 2.378906 -1.050781 2.496094 -1.378906 2.523438 -1.8125 L 0.734375 -1.8125 L 0.734375 -2.34375 L 2.523438 -2.34375 C 2.480469 -2.71875 2.355469 -3 2.152344 -3.183594 C 1.949219 -3.371094 1.699219 -3.464844 1.398438 -3.464844 C 1.261719 -3.464844 1.136719 -3.449219 1.023438 -3.417969 C 0.90625 -3.390625 0.796875 -3.351562 0.6875 -3.300781 C 0.597656 -3.257812 0.519531 -3.210938 0.449219 -3.164062 C 0.378906 -3.113281 0.3125 -3.0625 0.25 -3.011719 L 0.207031 -3.011719 L 0.207031 -3.738281 C 0.332031 -3.792969 0.507812 -3.855469 0.734375 -3.925781 C 0.960938 -3.996094 1.179688 -4.03125 1.382812 -4.03125 C 1.648438 -4.03125 1.890625 -3.992188 2.113281 -3.910156 C 2.332031 -3.832031 2.523438 -3.707031 2.683594 -3.542969 C 2.847656 -3.375 2.96875 -3.167969 3.054688 -2.929688 C 3.140625 -2.6875 3.183594 -2.394531 3.183594 -2.050781 C 3.183594 -1.390625 3.015625 -0.871094 2.679688 -0.488281 C 2.339844 -0.101562 1.886719 0.0898438 1.3125 0.0898438 C 1.097656 0.0898438 0.890625 0.0585938 0.6875 0.00390625 C 0.484375 -0.0507812 0.304688 -0.109375 0.148438 -0.175781 Z "/>
</g>
<g id="glyph-0-4">
<path d="M 3.53125 0 L 2.867188 0 L 2.867188 -3.382812 L 1.511719 -3.382812 C 1.507812 -3.1875 1.5 -3 1.492188 -2.820312 C 1.484375 -2.640625 1.476562 -2.476562 1.46875 -2.332031 C 1.457031 -1.960938 1.433594 -1.652344 1.398438 -1.402344 C 1.363281 -1.15625 1.320312 -0.953125 1.269531 -0.804688 C 1.21875 -0.648438 1.160156 -0.527344 1.097656 -0.441406 C 1.035156 -0.355469 0.964844 -0.273438 0.890625 -0.203125 C 0.808594 -0.132812 0.722656 -0.0820312 0.632812 -0.046875 C 0.539062 -0.0117188 0.4375 0.0078125 0.320312 0.0078125 C 0.285156 0.0078125 0.234375 0.0078125 0.175781 0.00390625 C 0.117188 0 0.078125 0 0.0546875 0 L 0.0546875 -0.578125 L 0.0898438 -0.578125 C 0.105469 -0.578125 0.121094 -0.578125 0.140625 -0.574219 C 0.15625 -0.574219 0.175781 -0.570312 0.199219 -0.570312 C 0.257812 -0.570312 0.3125 -0.578125 0.367188 -0.597656 C 0.421875 -0.613281 0.46875 -0.644531 0.511719 -0.6875 C 0.628906 -0.804688 0.714844 -1.003906 0.769531 -1.292969 C 0.824219 -1.582031 0.863281 -1.984375 0.886719 -2.5 C 0.894531 -2.691406 0.902344 -2.921875 0.910156 -3.183594 C 0.917969 -3.449219 0.925781 -3.699219 0.933594 -3.9375 L 3.53125 -3.9375 Z "/>
</g>
<g id="glyph-0-5">
<path d="M 1.699219 -2.933594 L 0.855469 -2.933594 L 0.855469 -3.9375 L 1.699219 -3.9375 L 1.699219 -2.933594 M 1.699219 0 L 0.855469 0 L 0.855469 -1.003906 L 1.699219 -1.003906 Z "/>
</g>
<g id="glyph-0-6">
</g>
<g id="glyph-0-7">
<path d="M 4.878906 -2.625 C 4.878906 -1.757812 4.667969 -1.085938 4.246094 -0.609375 C 3.828125 -0.128906 3.261719 0.109375 2.554688 0.109375 C 1.839844 0.109375 1.273438 -0.132812 0.855469 -0.613281 C 0.441406 -1.09375 0.234375 -1.761719 0.234375 -2.625 C 0.234375 -3.480469 0.441406 -4.15625 0.863281 -4.648438 C 1.269531 -5.125 1.832031 -5.359375 2.554688 -5.359375 C 3.269531 -5.359375 3.832031 -5.125 4.246094 -4.648438 C 4.667969 -4.167969 4.878906 -3.492188 4.878906 -2.625 M 4.121094 -3.144531 C 4.058594 -3.585938 3.925781 -3.945312 3.71875 -4.214844 C 3.441406 -4.578125 3.054688 -4.757812 2.558594 -4.757812 C 2.0625 -4.757812 1.671875 -4.578125 1.390625 -4.214844 C 1.183594 -3.949219 1.050781 -3.59375 0.992188 -3.144531 L 4.121094 -3.144531 M 4.152344 -2.515625 L 0.960938 -2.515625 C 0.972656 -1.945312 1.097656 -1.484375 1.332031 -1.128906 C 1.613281 -0.707031 2.019531 -0.492188 2.558594 -0.492188 C 3.09375 -0.492188 3.5 -0.707031 3.78125 -1.128906 C 4.011719 -1.480469 4.136719 -1.941406 4.152344 -2.515625 Z "/>
</g>
<g id="glyph-0-8">
<path d="M 3.589844 0 L 2.925781 0 L 2.925781 -1.773438 L 1.144531 -1.773438 L 1.144531 0 L 0.480469 0 L 0.480469 -3.9375 L 1.144531 -3.9375 L 1.144531 -2.34375 L 2.925781 -2.34375 L 2.925781 -3.9375 L 3.589844 -3.9375 Z "/>
</g>
<g id="glyph-0-9">
<path d="M 3.859375 0.945312 L 3.242188 0.945312 L 3.242188 -0.0117188 L 0.644531 -0.0117188 L 0.644531 0.945312 L 0.0273438 0.945312 L 0.0273438 -0.5625 L 0.289062 -0.5625 C 0.511719 -0.929688 0.695312 -1.410156 0.835938 -2 C 0.980469 -2.59375 1.050781 -3.238281 1.050781 -3.9375 L 3.464844 -3.9375 L 3.464844 -0.5625 L 3.859375 -0.5625 L 3.859375 0.945312 M 2.804688 -0.5625 L 2.804688 -3.382812 L 1.675781 -3.382812 C 1.644531 -2.792969 1.5625 -2.257812 1.433594 -1.773438 C 1.304688 -1.285156 1.140625 -0.882812 0.941406 -0.5625 Z "/>
</g>
<g id="glyph-0-10">
<path d="M 3.71875 -1.96875 C 3.71875 -1.367188 3.582031 -0.878906 3.304688 -0.507812 C 2.996094 -0.0976562 2.546875 0.109375 1.964844 0.109375 C 1.382812 0.109375 0.9375 -0.0976562 0.625 -0.511719 C 0.34375 -0.882812 0.199219 -1.367188 0.199219 -1.96875 C 0.199219 -2.566406 0.34375 -3.054688 0.625 -3.429688 C 0.9375 -3.839844 1.386719 -4.046875 1.964844 -4.046875 C 2.546875 -4.046875 2.996094 -3.839844 3.304688 -3.429688 C 3.582031 -3.058594 3.71875 -2.570312 3.71875 -1.96875 M 3.007812 -2.410156 C 2.910156 -3.121094 2.5625 -3.476562 1.964844 -3.476562 C 1.359375 -3.476562 1.011719 -3.121094 0.914062 -2.410156 L 3.007812 -2.410156 M 3.035156 -1.902344 L 0.886719 -1.902344 C 0.902344 -0.941406 1.261719 -0.460938 1.964844 -0.460938 C 2.664062 -0.460938 3.019531 -0.941406 3.035156 -1.902344 Z "/>
</g>
<g id="glyph-0-11">
<path d="M 3.785156 -2.074219 C 3.785156 -1.417969 3.628906 -0.894531 3.3125 -0.507812 C 3 -0.117188 2.601562 0.078125 2.125 0.078125 C 1.929688 0.078125 1.753906 0.0546875 1.605469 0.0117188 C 1.453125 -0.0351562 1.300781 -0.101562 1.144531 -0.199219 L 1.144531 1.453125 L 0.480469 1.453125 L 0.480469 -3.9375 L 1.144531 -3.9375 L 1.144531 -3.527344 C 1.308594 -3.675781 1.488281 -3.800781 1.691406 -3.898438 C 1.890625 -4 2.109375 -4.046875 2.347656 -4.046875 C 2.800781 -4.046875 3.152344 -3.871094 3.40625 -3.511719 C 3.65625 -3.15625 3.785156 -2.675781 3.785156 -2.074219 M 3.101562 -2 C 3.101562 -2.449219 3.027344 -2.796875 2.886719 -3.046875 C 2.742188 -3.292969 2.507812 -3.417969 2.1875 -3.417969 C 2 -3.417969 1.816406 -3.375 1.640625 -3.292969 C 1.464844 -3.207031 1.300781 -3.101562 1.144531 -2.96875 L 1.144531 -0.738281 C 1.316406 -0.652344 1.464844 -0.59375 1.589844 -0.5625 C 1.710938 -0.535156 1.855469 -0.519531 2.015625 -0.519531 C 2.355469 -0.519531 2.625 -0.644531 2.8125 -0.894531 C 3.003906 -1.148438 3.101562 -1.515625 3.101562 -2 Z "/>
</g>
<g id="glyph-0-12">
<path d="M 3.273438 -3.355469 C 3.425781 -3.203125 3.542969 -3.003906 3.628906 -2.765625 C 3.714844 -2.527344 3.757812 -2.25 3.757812 -1.9375 C 3.757812 -1.632812 3.707031 -1.351562 3.609375 -1.09375 C 3.515625 -0.835938 3.382812 -0.621094 3.21875 -0.445312 C 3.050781 -0.261719 2.863281 -0.121094 2.65625 -0.03125 C 2.453125 0.0625 2.226562 0.109375 1.984375 0.109375 C 1.738281 0.109375 1.511719 0.0664062 1.304688 -0.0195312 C 1.101562 -0.105469 0.925781 -0.238281 0.78125 -0.417969 C 0.597656 -0.640625 0.460938 -0.917969 0.371094 -1.253906 C 0.28125 -1.589844 0.234375 -2.007812 0.234375 -2.503906 C 0.234375 -2.679688 0.242188 -2.859375 0.257812 -3.042969 C 0.273438 -3.222656 0.308594 -3.441406 0.359375 -3.695312 C 0.40625 -3.921875 0.46875 -4.132812 0.550781 -4.324219 C 0.628906 -4.519531 0.734375 -4.683594 0.863281 -4.816406 C 1.03125 -4.992188 1.25 -5.128906 1.519531 -5.234375 C 1.789062 -5.335938 2.144531 -5.410156 2.589844 -5.449219 C 2.746094 -5.460938 2.914062 -5.476562 3.09375 -5.488281 C 3.273438 -5.503906 3.410156 -5.511719 3.503906 -5.519531 L 3.503906 -4.910156 C 3.382812 -4.902344 3.253906 -4.894531 3.113281 -4.882812 C 2.976562 -4.871094 2.816406 -4.859375 2.636719 -4.84375 C 2.402344 -4.828125 2.152344 -4.785156 1.894531 -4.71875 C 1.636719 -4.65625 1.441406 -4.554688 1.308594 -4.417969 C 1.210938 -4.316406 1.132812 -4.171875 1.070312 -3.984375 C 1.011719 -3.796875 0.972656 -3.585938 0.949219 -3.355469 C 1.121094 -3.480469 1.308594 -3.585938 1.507812 -3.671875 C 1.707031 -3.757812 1.921875 -3.800781 2.152344 -3.800781 C 2.363281 -3.800781 2.570312 -3.765625 2.761719 -3.695312 C 2.953125 -3.621094 3.125 -3.511719 3.273438 -3.355469 M 3.082031 -1.898438 C 3.082031 -2.316406 2.988281 -2.636719 2.800781 -2.859375 C 2.613281 -3.082031 2.34375 -3.195312 1.996094 -3.195312 C 1.804688 -3.195312 1.621094 -3.164062 1.441406 -3.101562 C 1.265625 -3.035156 1.09375 -2.953125 0.9375 -2.847656 C 0.933594 -2.789062 0.929688 -2.71875 0.925781 -2.636719 C 0.917969 -2.554688 0.917969 -2.480469 0.917969 -2.414062 C 0.917969 -2.007812 0.949219 -1.675781 1.015625 -1.417969 C 1.082031 -1.160156 1.171875 -0.960938 1.289062 -0.816406 C 1.398438 -0.683594 1.507812 -0.59375 1.625 -0.542969 C 1.742188 -0.492188 1.871094 -0.464844 2.011719 -0.464844 C 2.347656 -0.464844 2.613281 -0.59375 2.800781 -0.851562 C 2.988281 -1.105469 3.082031 -1.457031 3.082031 -1.898438 Z "/>
</g>
<g id="glyph-0-13">
<path d="M 2.679688 -0.96875 L 2.679688 -2.0625 C 2.523438 -2.050781 2.324219 -2.03125 2.082031 -2.003906 C 1.839844 -1.980469 1.648438 -1.945312 1.5 -1.902344 C 1.324219 -1.847656 1.175781 -1.765625 1.0625 -1.652344 C 0.945312 -1.539062 0.890625 -1.386719 0.890625 -1.183594 C 0.890625 -0.960938 0.953125 -0.789062 1.078125 -0.671875 C 1.207031 -0.558594 1.390625 -0.5 1.636719 -0.5 C 1.84375 -0.5 2.035156 -0.546875 2.203125 -0.636719 C 2.375 -0.726562 2.53125 -0.839844 2.679688 -0.96875 M 2.679688 -0.417969 C 2.625 -0.378906 2.554688 -0.324219 2.464844 -0.253906 C 2.371094 -0.179688 2.285156 -0.125 2.199219 -0.0820312 C 2.082031 -0.0195312 1.96875 0.0273438 1.859375 0.0585938 C 1.75 0.09375 1.597656 0.109375 1.398438 0.109375 C 1.238281 0.109375 1.082031 0.078125 0.9375 0.0195312 C 0.792969 -0.0429688 0.664062 -0.128906 0.554688 -0.238281 C 0.449219 -0.347656 0.363281 -0.480469 0.300781 -0.640625 C 0.234375 -0.796875 0.203125 -0.964844 0.203125 -1.144531 C 0.203125 -1.414062 0.261719 -1.648438 0.378906 -1.839844 C 0.492188 -2.03125 0.675781 -2.183594 0.925781 -2.296875 C 1.144531 -2.398438 1.40625 -2.46875 1.707031 -2.503906 C 2.007812 -2.542969 2.332031 -2.574219 2.679688 -2.59375 L 2.679688 -2.71875 C 2.679688 -2.875 2.65625 -3 2.609375 -3.09375 C 2.5625 -3.191406 2.496094 -3.261719 2.414062 -3.316406 C 2.328125 -3.371094 2.222656 -3.40625 2.101562 -3.421875 C 1.980469 -3.441406 1.855469 -3.449219 1.722656 -3.449219 C 1.570312 -3.449219 1.390625 -3.425781 1.183594 -3.378906 C 0.976562 -3.335938 0.769531 -3.269531 0.5625 -3.179688 L 0.527344 -3.179688 L 0.527344 -3.855469 C 0.648438 -3.890625 0.824219 -3.929688 1.050781 -3.972656 C 1.277344 -4.011719 1.503906 -4.035156 1.726562 -4.035156 C 2 -4.035156 2.226562 -4.011719 2.414062 -3.972656 C 2.597656 -3.929688 2.765625 -3.851562 2.914062 -3.742188 C 3.054688 -3.632812 3.164062 -3.492188 3.234375 -3.320312 C 3.304688 -3.152344 3.339844 -2.941406 3.339844 -2.695312 L 3.339844 0 L 2.679688 0 Z "/>
</g>
<g id="glyph-0-14">
<path d="M 6.503906 0 L 5.644531 0 L 3.894531 -2.414062 L 3.554688 -2.414062 L 3.554688 0 L 2.863281 0 L 2.863281 -2.414062 L 2.519531 -2.414062 L 0.769531 0 L -0.0507812 0 L 1.933594 -2.707031 C 1.78125 -2.808594 1.644531 -2.933594 1.53125 -3.082031 C 1.417969 -3.234375 1.308594 -3.480469 1.199219 -3.828125 C 1.105469 -4.128906 1.003906 -4.339844 0.898438 -4.453125 C 0.789062 -4.570312 0.585938 -4.628906 0.285156 -4.628906 L 0.144531 -4.628906 L 0.144531 -5.25 L 0.324219 -5.25 C 0.71875 -5.25 1.019531 -5.175781 1.234375 -5.027344 C 1.453125 -4.875 1.628906 -4.597656 1.773438 -4.191406 C 1.808594 -4.089844 1.84375 -3.988281 1.878906 -3.890625 C 1.914062 -3.792969 1.945312 -3.710938 1.972656 -3.648438 C 2.074219 -3.398438 2.199219 -3.210938 2.34375 -3.089844 C 2.488281 -2.96875 2.660156 -2.898438 2.863281 -2.882812 L 2.863281 -5.25 L 3.554688 -5.25 L 3.554688 -2.875 C 3.769531 -2.894531 3.953125 -2.964844 4.101562 -3.082031 C 4.246094 -3.195312 4.375 -3.386719 4.480469 -3.648438 C 4.523438 -3.757812 4.5625 -3.855469 4.597656 -3.953125 C 4.632812 -4.046875 4.660156 -4.128906 4.679688 -4.191406 C 4.820312 -4.59375 5 -4.871094 5.21875 -5.023438 C 5.4375 -5.175781 5.742188 -5.25 6.128906 -5.25 L 6.308594 -5.25 L 6.308594 -4.628906 L 6.167969 -4.628906 C 5.867188 -4.628906 5.660156 -4.570312 5.554688 -4.453125 C 5.445312 -4.335938 5.339844 -4.128906 5.246094 -3.828125 C 5.148438 -3.515625 5.035156 -3.28125 4.910156 -3.125 C 4.78125 -2.96875 4.644531 -2.84375 4.496094 -2.75 Z "/>
</g>
<g id="glyph-0-15">
<path d="M 3.589844 0 L 2.933594 0 L 2.933594 -2.9375 L 1.078125 0 L 0.480469 0 L 0.480469 -3.9375 L 1.136719 -3.9375 L 1.136719 -1.046875 L 2.96875 -3.9375 L 3.589844 -3.9375 Z "/>
</g>
</g>
</defs>
<g fill="rgb(0%, 0%, 0%)" fill-opacity="1">
<use xlink:href="#glyph-0-0" x="30" y="27.226562"/>
<use xlink:href="#glyph-0-1" x="34" y="27.226562"/>
<use xlink:href="#glyph-0-2" x="37" y="27.226562"/>
<use xlink:href="#glyph-0-3" x="41" y="27.226562"/>
<use xlink:href="#glyph-0-4" x="44" y="27.226562"/>
<use xlink:href="#glyph-0-5" x="48" y="27.226562"/>
<use xlink:href="#glyph-0-6" x="51" y="27.226562"/>
<use xlink:href="#glyph-0-7" x="53" y="27.226562"/>
<use xlink:href="#glyph-0-8" x="58" y="27.226562"/>
<use xlink:href="#glyph-0-9" x="62" y="27.226562"/>
<use xlink:href="#glyph-0-10" x="66" y="27.226562"/>
<use xlink:href="#glyph-0-11" x="70" y="27.226562"/>
<use xlink:href="#glyph-0-6" x="74" y="27.226562"/>
<use xlink:href="#glyph-0-12" x="76" y="27.226562"/>
<use xlink:href="#glyph-0-13" x="80" y="27.226562"/>
<use xlink:href="#glyph-0-6" x="84" y="27.226562"/>
<use xlink:href="#glyph-0-14" x="86" y="27.226562"/>
<use xlink:href="#glyph-0-15" x="92" y="27.226562"/>
<use xlink:href="#glyph-0-8" x="96" y="27.226562"/>
</g>
</svg>
