<?xml version="1.0" encoding="UTF-8"?>
<svg xmlns="http://www.w3.org/2000/svg" xmlns:xlink="http://www.w3.org/1999/xlink" width="854" height="480" viewBox="0 0 854 480">
<defs>
<g>
<g id="glyph-0-0">
<path d="M 1.570312 0 L 1.214844 0 L 1.214844 -2.6875 C 1.1875 -2.660156 1.148438 -2.628906 1.09375 -2.59375 C 1.042969 -2.558594 0.984375 -2.523438 0.917969 -2.488281 C 0.851562 -2.453125 0.78125 -2.421875 0.707031 -2.390625 C 0.636719 -2.359375 0.5625 -2.335938 0.496094 -2.320312 L 0.496094 -2.679688 C 0.574219 -2.703125 0.65625 -2.730469 0.742188 -2.769531 C 0.832031 -2.804688 0.917969 -2.847656 1 -2.890625 C 1.085938 -2.9375 1.164062 -2.984375 1.242188 -3.035156 C 1.316406 -3.085938 1.382812 -3.132812 1.4375 -3.179688 L 1.570312 -3.179688 Z "/>
</g>
<g id="glyph-0-1">
<path d="M 2.214844 -1.570312 C 2.214844 -1.308594 2.191406 -1.078125 2.144531 -0.875 C 2.097656 -0.675781 2.027344 -0.507812 1.9375 -0.367188 C 1.851562 -0.230469 1.742188 -0.125 1.609375 -0.0546875 C 1.480469 0.0195312 1.335938 0.0546875 1.167969 0.0546875 C 1.011719 0.0546875 0.875 0.0195312 0.75 -0.046875 C 0.628906 -0.117188 0.527344 -0.21875 0.441406 -0.347656 C 0.359375 -0.480469 0.296875 -0.644531 0.25 -0.835938 C 0.207031 -1.027344 0.1875 -1.246094 0.1875 -1.492188 C 0.1875 -1.765625 0.210938 -2.003906 0.253906 -2.214844 C 0.300781 -2.421875 0.367188 -2.597656 0.457031 -2.738281 C 0.542969 -2.878906 0.652344 -2.984375 0.785156 -3.054688 C 0.914062 -3.128906 1.066406 -3.164062 1.234375 -3.164062 C 1.886719 -3.164062 2.214844 -2.632812 2.214844 -1.570312 M 1.847656 -1.535156 C 1.847656 -2.417969 1.636719 -2.863281 1.21875 -2.863281 C 0.773438 -2.863281 0.550781 -2.410156 0.550781 -1.511719 C 0.550781 -0.667969 0.769531 -0.25 1.203125 -0.25 C 1.632812 -0.25 1.847656 -0.679688 1.847656 -1.535156 Z "/>
</g>
</g>
</defs>
<g fill="rgb(61.960784%, 61.960784%, 61.960784%)" fill-opacity="1">
<use xlink:href="#glyph-0-0" x="30" y="24.794922"/>
<use xlink:href="#glyph-0-1" x="32" y="24.794922"/>
</g>
</svg>
