<?xml version="1.0" encoding="UTF-8"?>
<svg xmlns="http://www.w3.org/2000/svg" xmlns:xlink="http://www.w3.org/1999/xlink" width="1920" height="1080" viewBox="0 0 1920 1080">
<defs>
<g>
<g id="glyph-0-0">
<path d="M 3.097656 -4.667969 L 3.097656 -1.726562 L 3.660156 -1.726562 L 3.660156 -0.957031 L 3.097656 -0.957031 L 3.097656 0 L 2.160156 0 L 2.160156 -0.957031 L 0.125 -0.957031 L 0.125 -1.761719 C 0.308594 -1.960938 0.492188 -2.183594 0.6875 -2.421875 C 0.878906 -2.664062 1.066406 -2.910156 1.246094 -3.164062 C 1.425781 -3.417969 1.59375 -3.671875 1.75 -3.929688 C 1.90625 -4.1875 2.035156 -4.433594 2.144531 -4.667969 L 3.097656 -4.667969 M 1.046875 -1.726562 L 2.160156 -1.726562 L 2.160156 -3.355469 C 2.085938 -3.214844 2.003906 -3.074219 1.914062 -2.929688 C 1.824219 -2.785156 1.730469 -2.640625 1.632812 -2.5 C 1.535156 -2.363281 1.4375 -2.226562 1.335938 -2.09375 C 1.238281 -1.964844 1.140625 -1.839844 1.046875 -1.726562 Z "/>
</g>
<g id="glyph-0-1">
<path d="M 0.890625 1.0625 L 0.0585938 1.0625 C 0.722656 0.214844 1.054688 -0.734375 1.054688 -1.785156 C 1.054688 -2.832031 0.722656 -3.792969 0.0585938 -4.667969 L 0.898438 -4.667969 C 1.601562 -3.832031 1.953125 -2.871094 1.953125 -1.785156 C 1.953125 -0.667969 1.597656 0.28125 0.890625 1.0625 Z "/>
</g>
<g id="glyph-0-2">
</g>
<g id="glyph-0-3">
<path d="M 3.878906 -0.164062 C 3.539062 0 3.09375 0.0820312 2.546875 0.0820312 C 1.828125 0.0820312 1.265625 -0.128906 0.855469 -0.550781 C 0.445312 -0.972656 0.242188 -1.53125 0.242188 -2.234375 C 0.242188 -2.980469 0.472656 -3.585938 0.933594 -4.050781 C 1.394531 -4.515625 1.992188 -4.746094 2.726562 -4.746094 C 3.183594 -4.746094 3.566406 -4.6875 3.878906 -4.574219 L 3.878906 -3.5625 C 3.566406 -3.746094 3.210938 -3.839844 2.8125 -3.839844 C 2.375 -3.839844 2.019531 -3.703125 1.75 -3.425781 C 1.480469 -3.152344 1.347656 -2.777344 1.347656 -2.308594 C 1.347656 -1.855469 1.472656 -1.496094 1.726562 -1.230469 C 1.980469 -0.960938 2.324219 -0.828125 2.753906 -0.828125 C 3.164062 -0.828125 3.539062 -0.925781 3.878906 -1.125 Z "/>
</g>
<g id="glyph-0-4">
<path d="M 2.925781 -2.550781 L 2.035156 -2.550781 L 2.035156 0 L 1 0 L 1 -2.550781 L 0.101562 -2.550781 L 0.101562 -3.332031 L 2.925781 -3.332031 Z "/>
</g>
<g id="glyph-0-5">
<path d="M 3.207031 0 L 2.234375 0 L 2.234375 -0.476562 L 2.21875 -0.476562 C 1.996094 -0.105469 1.664062 0.0820312 1.226562 0.0820312 C 0.902344 0.0820312 0.648438 -0.0117188 0.464844 -0.195312 C 0.277344 -0.378906 0.183594 -0.621094 0.183594 -0.925781 C 0.183594 -1.574219 0.570312 -1.949219 1.335938 -2.046875 L 2.238281 -2.167969 C 2.238281 -2.53125 2.042969 -2.714844 1.648438 -2.714844 C 1.25 -2.714844 0.871094 -2.597656 0.515625 -2.359375 L 0.515625 -3.132812 C 0.65625 -3.207031 0.851562 -3.273438 1.101562 -3.328125 C 1.351562 -3.386719 1.578125 -3.414062 1.78125 -3.414062 C 2.730469 -3.414062 3.207031 -2.941406 3.207031 -1.992188 L 3.207031 0 M 2.238281 -1.355469 L 2.238281 -1.578125 L 1.632812 -1.5 C 1.300781 -1.457031 1.132812 -1.304688 1.132812 -1.046875 C 1.132812 -0.929688 1.171875 -0.835938 1.253906 -0.761719 C 1.335938 -0.683594 1.445312 -0.648438 1.585938 -0.648438 C 1.777344 -0.648438 1.9375 -0.714844 2.058594 -0.847656 C 2.179688 -0.980469 2.238281 -1.148438 2.238281 -1.355469 Z "/>
</g>
<g id="glyph-0-6">
<path d="M 3.644531 0 L 2.613281 0 L 2.613281 -1.394531 L 1.460938 -1.394531 L 1.460938 0 L 0.433594 0 L 0.433594 -3.332031 L 1.460938 -3.332031 L 1.460938 -2.101562 L 2.613281 -2.101562 L 2.613281 -3.332031 L 3.644531 -3.332031 Z "/>
</g>
<g id="glyph-0-7">
<path d="M 3.96875 1.214844 L 3.128906 1.214844 L 3.128906 0 L 0.886719 0 L 0.886719 1.214844 L 0.0585938 1.214844 L 0.0585938 -0.726562 L 0.355469 -0.726562 C 0.824219 -1.464844 1.074219 -2.332031 1.101562 -3.332031 L 3.441406 -3.332031 L 3.441406 -0.726562 L 3.96875 -0.726562 L 3.96875 1.214844 M 2.414062 -0.726562 L 2.414062 -2.613281 L 1.902344 -2.613281 C 1.851562 -1.910156 1.667969 -1.28125 1.355469 -0.726562 Z "/>
</g>
<g id="glyph-0-8">
<path d="M 1.472656 -0.386719 L 1.460938 -0.386719 L 1.460938 1.53125 L 0.433594 1.53125 L 0.433594 -3.332031 L 1.460938 -3.332031 L 1.460938 -2.832031 L 1.472656 -2.832031 C 1.726562 -3.21875 2.085938 -3.414062 2.546875 -3.414062 C 2.976562 -3.414062 3.3125 -3.265625 3.546875 -2.96875 C 3.78125 -2.675781 3.898438 -2.269531 3.898438 -1.761719 C 3.898438 -1.207031 3.761719 -0.757812 3.488281 -0.421875 C 3.214844 -0.0859375 2.847656 0.0820312 2.390625 0.0820312 C 1.992188 0.0820312 1.683594 -0.0742188 1.472656 -0.386719 M 1.445312 -1.753906 L 1.445312 -1.488281 C 1.445312 -1.257812 1.507812 -1.070312 1.628906 -0.925781 C 1.75 -0.777344 1.910156 -0.707031 2.105469 -0.707031 C 2.339844 -0.707031 2.523438 -0.796875 2.652344 -0.976562 C 2.78125 -1.160156 2.84375 -1.414062 2.84375 -1.746094 C 2.84375 -2.332031 2.617188 -2.625 2.160156 -2.625 C 1.949219 -2.625 1.777344 -2.546875 1.644531 -2.386719 C 1.511719 -2.226562 1.445312 -2.015625 1.445312 -1.753906 Z "/>
</g>
<g id="glyph-0-9">
<path d="M 3.652344 -3.332031 L 2.550781 -1.71875 L 3.644531 0 L 2.460938 0 L 1.980469 -0.898438 C 1.941406 -0.96875 1.894531 -1.070312 1.839844 -1.203125 L 1.824219 -1.203125 C 1.792969 -1.109375 1.75 -1.011719 1.691406 -0.90625 L 1.207031 0 L 0.0273438 0 L 1.152344 -1.660156 L 0.09375 -3.332031 L 1.285156 -3.332031 L 1.761719 -2.398438 C 1.824219 -2.273438 1.867188 -2.171875 1.894531 -2.085938 L 1.90625 -2.085938 C 1.941406 -2.1875 1.988281 -2.296875 2.046875 -2.40625 L 2.53125 -3.332031 Z "/>
</g>
<g id="glyph-0-10">
<path d="M 0.261719 -0.0859375 L 0.261719 -0.832031 C 0.582031 -0.6875 0.902344 -0.613281 1.21875 -0.613281 C 1.683594 -0.613281 1.914062 -0.738281 1.914062 -0.992188 C 1.914062 -1.253906 1.664062 -1.386719 1.160156 -1.386719 L 0.691406 -1.386719 L 0.691406 -2.023438 L 1.164062 -2.023438 C 1.597656 -2.023438 1.8125 -2.148438 1.8125 -2.398438 C 1.8125 -2.621094 1.621094 -2.734375 1.234375 -2.734375 C 0.941406 -2.734375 0.652344 -2.667969 0.359375 -2.539062 L 0.359375 -3.246094 C 0.75 -3.359375 1.105469 -3.414062 1.417969 -3.414062 C 2.390625 -3.414062 2.875 -3.113281 2.875 -2.511719 C 2.875 -2.097656 2.617188 -1.839844 2.101562 -1.742188 L 2.101562 -1.726562 C 2.371094 -1.703125 2.585938 -1.617188 2.742188 -1.476562 C 2.894531 -1.335938 2.972656 -1.15625 2.972656 -0.941406 C 2.972656 -0.269531 2.429688 0.0664062 1.339844 0.0664062 C 0.925781 0.0664062 0.566406 0.015625 0.261719 -0.0859375 Z "/>
</g>
<g id="glyph-0-11">
<path d="M 3.746094 0 L 2.8125 0 L 2.8125 -2.179688 C 2.726562 -2.007812 2.636719 -1.851562 2.539062 -1.707031 L 1.40625 0 L 0.433594 0 L 0.433594 -3.332031 L 1.375 -3.332031 L 1.375 -1.21875 C 1.441406 -1.367188 1.519531 -1.5 1.601562 -1.628906 L 2.734375 -3.332031 L 3.746094 -3.332031 L 3.746094 0 M 3.503906 -4.925781 C 3.464844 -4.578125 3.316406 -4.304688 3.058594 -4.101562 C 2.800781 -3.898438 2.480469 -3.796875 2.101562 -3.796875 C 1.710938 -3.796875 1.386719 -3.898438 1.128906 -4.101562 C 0.871094 -4.304688 0.730469 -4.578125 0.710938 -4.925781 L 1.460938 -4.925781 C 1.472656 -4.757812 1.539062 -4.621094 1.667969 -4.511719 C 1.792969 -4.40625 1.941406 -4.351562 2.113281 -4.351562 C 2.28125 -4.351562 2.429688 -4.40625 2.550781 -4.515625 C 2.675781 -4.625 2.742188 -4.761719 2.757812 -4.925781 Z "/>
</g>
<g id="glyph-0-12">
<path d="M 3.585938 0 L 2.550781 0 L 2.550781 -2.605469 L 1.984375 -2.605469 C 1.867188 -1.597656 1.6875 -0.90625 1.449219 -0.527344 C 1.210938 -0.148438 0.878906 0.0390625 0.453125 0.0390625 C 0.304688 0.0390625 0.171875 0.015625 0.0507812 -0.0273438 L 0.0507812 -0.726562 C 0.128906 -0.691406 0.207031 -0.671875 0.292969 -0.671875 C 0.496094 -0.671875 0.667969 -0.863281 0.800781 -1.242188 C 0.933594 -1.625 1.058594 -2.320312 1.164062 -3.332031 L 3.585938 -3.332031 Z "/>
</g>
<g id="glyph-0-13">
<path d="M 0.890625 -2.300781 C 0.722656 -2.300781 0.582031 -2.351562 0.46875 -2.457031 C 0.355469 -2.558594 0.300781 -2.6875 0.300781 -2.839844 C 0.300781 -2.996094 0.359375 -3.121094 0.472656 -3.222656 C 0.589844 -3.324219 0.734375 -3.371094 0.90625 -3.371094 C 1.085938 -3.371094 1.226562 -3.320312 1.339844 -3.222656 C 1.453125 -3.121094 1.507812 -2.992188 1.507812 -2.839844 C 1.507812 -2.679688 1.449219 -2.550781 1.335938 -2.453125 C 1.222656 -2.351562 1.074219 -2.300781 0.890625 -2.300781 M 0.890625 0.0820312 C 0.722656 0.0820312 0.582031 0.0273438 0.46875 -0.0742188 C 0.355469 -0.179688 0.300781 -0.308594 0.300781 -0.457031 C 0.300781 -0.613281 0.359375 -0.742188 0.472656 -0.84375 C 0.589844 -0.941406 0.734375 -0.992188 0.90625 -0.992188 C 1.085938 -0.992188 1.226562 -0.941406 1.339844 -0.839844 C 1.453125 -0.742188 1.507812 -0.613281 1.507812 -0.457031 C 1.507812 -0.300781 1.449219 -0.171875 1.335938 -0.0703125 C 1.222656 0.03125 1.074219 0.0820312 0.890625 0.0820312 Z "/>
</g>
</g>
</defs>
<g fill="rgb(87.843137%, 87.843137%, 87.843137%)" fill-opacity="1">
<use xlink:href="#glyph-0-0" x="30" y="27.193359"/>
<use xlink:href="#glyph-0-1" x="34" y="27.193359"/>
<use xlink:href="#glyph-0-2" x="36" y="27.193359"/>
<use xlink:href="#glyph-0-3" x="38" y="27.193359"/>
<use xlink:href="#glyph-0-4" x="42" y="27.193359"/>
<use xlink:href="#glyph-0-5" x="45" y="27.193359"/>
<use xlink:href="#glyph-0-6" x="49" y="27.193359"/>
<use xlink:href="#glyph-0-7" x="53" y="27.193359"/>
<use xlink:href="#glyph-0-5" x="57" y="27.193359"/>
<use xlink:href="#glyph-0-8" x="61" y="27.193359"/>
<use xlink:href="#glyph-0-4" x="65" y="27.193359"/>
<use xlink:href="#glyph-0-2" x="68" y="27.193359"/>
<use xlink:href="#glyph-0-9" x="70" y="27.193359"/>
<use xlink:href="#glyph-0-5" x="74" y="27.193359"/>
<use xlink:href="#glyph-0-10" x="78" y="27.193359"/>
<use xlink:href="#glyph-0-5" x="81" y="27.193359"/>
<use xlink:href="#glyph-0-11" x="85" y="27.193359"/>
<use xlink:href="#glyph-0-12" x="89" y="27.193359"/>
<use xlink:href="#glyph-0-4" x="93" y="27.193359"/>
<use xlink:href="#glyph-0-13" x="96" y="27.193359"/>
</g>
</svg>
