<?xml version="1.0" encoding="UTF-8"?>
<svg xmlns="http://www.w3.org/2000/svg" xmlns:xlink="http://www.w3.org/1999/xlink" width="854" height="480" viewBox="0 0 854 480">
<defs>
<g>
<g id="glyph-0-0">
<path d="M 2.371094 -2.976562 L 2.335938 -2.976562 C 2.292969 -2.992188 2.242188 -3 2.191406 -3.003906 C 2.140625 -3.007812 2.078125 -3.007812 2.007812 -3.007812 C 1.84375 -3.007812 1.679688 -2.972656 1.515625 -2.898438 C 1.355469 -2.828125 1.199219 -2.722656 1.054688 -2.582031 L 1.054688 0 L 0.441406 0 L 0.441406 -3.636719 L 1.054688 -3.636719 L 1.054688 -3.09375 C 1.277344 -3.292969 1.472656 -3.433594 1.640625 -3.515625 C 1.804688 -3.59375 1.964844 -3.636719 2.121094 -3.636719 C 2.183594 -3.636719 2.234375 -3.632812 2.265625 -3.632812 C 2.296875 -3.628906 2.332031 -3.621094 2.371094 -3.617188 Z "/>
</g>
<g id="glyph-0-1">
</g>
<g id="glyph-0-2">
<path d="M 4.226562 -2.546875 L 0.625 -2.546875 L 0.625 -3.066406 L 4.226562 -3.066406 L 4.226562 -2.546875 M 4.226562 -1.179688 L 0.625 -1.179688 L 0.625 -1.699219 L 4.226562 -1.699219 Z "/>
</g>
<g id="glyph-0-3">
<path d="M 3.367188 -2.425781 C 3.367188 -1.554688 3.242188 -0.917969 2.988281 -0.507812 C 2.738281 -0.101562 2.347656 0.101562 1.820312 0.101562 C 1.285156 0.101562 0.894531 -0.105469 0.644531 -0.519531 C 0.394531 -0.933594 0.269531 -1.566406 0.269531 -2.417969 C 0.269531 -3.292969 0.398438 -3.933594 0.648438 -4.335938 C 0.902344 -4.742188 1.292969 -4.945312 1.820312 -4.945312 C 2.351562 -4.945312 2.746094 -4.734375 2.996094 -4.316406 C 3.246094 -3.898438 3.367188 -3.265625 3.367188 -2.425781 M 2.535156 -0.945312 C 2.597656 -1.109375 2.644531 -1.3125 2.667969 -1.554688 C 2.695312 -1.800781 2.707031 -2.089844 2.707031 -2.425781 C 2.707031 -2.757812 2.695312 -3.046875 2.667969 -3.289062 C 2.644531 -3.535156 2.597656 -3.738281 2.53125 -3.902344 C 2.46875 -4.066406 2.378906 -4.191406 2.265625 -4.277344 C 2.148438 -4.363281 2 -4.40625 1.820312 -4.40625 C 1.640625 -4.40625 1.492188 -4.363281 1.375 -4.277344 C 1.257812 -4.191406 1.167969 -4.066406 1.101562 -3.894531 C 1.035156 -3.730469 0.992188 -3.523438 0.964844 -3.269531 C 0.941406 -3.019531 0.929688 -2.734375 0.929688 -2.417969 C 0.929688 -2.078125 0.941406 -1.796875 0.960938 -1.570312 C 0.984375 -1.339844 1.027344 -1.136719 1.097656 -0.957031 C 1.160156 -0.789062 1.25 -0.660156 1.367188 -0.570312 C 1.480469 -0.480469 1.632812 -0.4375 1.820312 -0.4375 C 2 -0.4375 2.148438 -0.480469 2.265625 -0.566406 C 2.378906 -0.652344 2.46875 -0.777344 2.535156 -0.945312 Z "/>
</g>
<g id="glyph-0-4">
<path d="M 1.394531 0 L 0.617188 0 L 0.617188 -0.925781 L 1.394531 -0.925781 Z "/>
</g>
<g id="glyph-0-5">
<path d="M 3.421875 -1.570312 C 3.421875 -1.324219 3.378906 -1.09375 3.296875 -0.882812 C 3.214844 -0.671875 3.105469 -0.496094 2.964844 -0.355469 C 2.820312 -0.203125 2.65625 -0.0898438 2.476562 -0.015625 C 2.296875 0.0625 2.097656 0.101562 1.882812 0.101562 C 1.664062 0.101562 1.464844 0.0625 1.285156 -0.0078125 C 1.105469 -0.0820312 0.945312 -0.191406 0.808594 -0.339844 C 0.644531 -0.515625 0.511719 -0.75 0.417969 -1.042969 C 0.324219 -1.335938 0.277344 -1.699219 0.277344 -2.128906 C 0.277344 -2.550781 0.320312 -2.929688 0.40625 -3.269531 C 0.492188 -3.609375 0.628906 -3.90625 0.808594 -4.15625 C 0.984375 -4.402344 1.210938 -4.59375 1.488281 -4.730469 C 1.765625 -4.871094 2.085938 -4.9375 2.453125 -4.9375 C 2.558594 -4.9375 2.660156 -4.933594 2.753906 -4.921875 C 2.847656 -4.910156 2.929688 -4.894531 3 -4.871094 L 3 -4.25 L 2.972656 -4.25 C 2.914062 -4.28125 2.828125 -4.308594 2.71875 -4.335938 C 2.605469 -4.363281 2.488281 -4.378906 2.363281 -4.378906 C 1.960938 -4.378906 1.632812 -4.242188 1.386719 -3.96875 C 1.136719 -3.699219 0.988281 -3.292969 0.945312 -2.757812 C 1.097656 -2.867188 1.257812 -2.949219 1.417969 -3.007812 C 1.582031 -3.066406 1.761719 -3.09375 1.953125 -3.09375 C 2.140625 -3.09375 2.308594 -3.078125 2.449219 -3.039062 C 2.589844 -3 2.738281 -2.925781 2.894531 -2.808594 C 3.070312 -2.675781 3.203125 -2.503906 3.289062 -2.296875 C 3.378906 -2.09375 3.421875 -1.851562 3.421875 -1.570312 M 2.761719 -1.546875 C 2.761719 -1.746094 2.734375 -1.914062 2.683594 -2.046875 C 2.628906 -2.183594 2.546875 -2.296875 2.429688 -2.390625 C 2.34375 -2.460938 2.246094 -2.507812 2.140625 -2.527344 C 2.03125 -2.550781 1.921875 -2.5625 1.808594 -2.5625 C 1.65625 -2.5625 1.511719 -2.539062 1.367188 -2.492188 C 1.222656 -2.449219 1.082031 -2.382812 0.945312 -2.296875 C 0.941406 -2.246094 0.9375 -2.199219 0.933594 -2.15625 C 0.933594 -2.113281 0.929688 -2.054688 0.929688 -1.988281 C 0.929688 -1.652344 0.964844 -1.382812 1.03125 -1.175781 C 1.097656 -0.96875 1.179688 -0.8125 1.277344 -0.707031 C 1.371094 -0.605469 1.464844 -0.53125 1.5625 -0.492188 C 1.664062 -0.449219 1.769531 -0.429688 1.882812 -0.429688 C 2.144531 -0.429688 2.355469 -0.523438 2.519531 -0.710938 C 2.679688 -0.894531 2.761719 -1.175781 2.761719 -1.546875 Z "/>
</g>
<g id="glyph-0-6">
<path d="M 2.707031 -2.855469 C 2.707031 -3.183594 2.679688 -3.453125 2.617188 -3.660156 C 2.554688 -3.867188 2.472656 -4.027344 2.367188 -4.140625 C 2.269531 -4.246094 2.175781 -4.316406 2.078125 -4.355469 C 1.980469 -4.394531 1.871094 -4.414062 1.753906 -4.414062 C 1.488281 -4.414062 1.273438 -4.320312 1.117188 -4.128906 C 0.957031 -3.9375 0.878906 -3.660156 0.878906 -3.296875 C 0.878906 -3.09375 0.90625 -2.925781 0.957031 -2.792969 C 1.007812 -2.660156 1.09375 -2.546875 1.210938 -2.453125 C 1.292969 -2.382812 1.386719 -2.339844 1.492188 -2.316406 C 1.59375 -2.292969 1.707031 -2.28125 1.824219 -2.28125 C 1.964844 -2.28125 2.113281 -2.304688 2.273438 -2.355469 C 2.4375 -2.402344 2.574219 -2.46875 2.695312 -2.546875 C 2.699219 -2.582031 2.699219 -2.625 2.703125 -2.675781 C 2.707031 -2.730469 2.707031 -2.789062 2.707031 -2.855469 M 0.21875 -3.269531 C 0.21875 -3.519531 0.257812 -3.75 0.339844 -3.953125 C 0.421875 -4.160156 0.53125 -4.339844 0.671875 -4.488281 C 0.808594 -4.632812 0.972656 -4.742188 1.167969 -4.824219 C 1.359375 -4.90625 1.558594 -4.945312 1.757812 -4.945312 C 1.980469 -4.945312 2.183594 -4.90625 2.363281 -4.832031 C 2.546875 -4.757812 2.703125 -4.648438 2.835938 -4.507812 C 3.003906 -4.332031 3.132812 -4.097656 3.222656 -3.808594 C 3.316406 -3.519531 3.363281 -3.15625 3.363281 -2.714844 C 3.363281 -2.3125 3.316406 -1.933594 3.226562 -1.574219 C 3.136719 -1.214844 3.003906 -0.917969 2.828125 -0.679688 C 2.640625 -0.429688 2.417969 -0.238281 2.15625 -0.105469 C 1.894531 0.0273438 1.570312 0.09375 1.1875 0.09375 C 1.101562 0.09375 1.007812 0.0898438 0.910156 0.078125 C 0.8125 0.0703125 0.722656 0.0507812 0.636719 0.0273438 L 0.636719 -0.59375 L 0.671875 -0.59375 C 0.726562 -0.566406 0.808594 -0.535156 0.925781 -0.507812 C 1.039062 -0.480469 1.15625 -0.464844 1.277344 -0.464844 C 1.703125 -0.464844 2.035156 -0.605469 2.277344 -0.886719 C 2.523438 -1.164062 2.660156 -1.566406 2.691406 -2.085938 C 2.519531 -1.96875 2.351562 -1.882812 2.195312 -1.828125 C 2.039062 -1.773438 1.867188 -1.746094 1.683594 -1.746094 C 1.503906 -1.746094 1.339844 -1.765625 1.191406 -1.804688 C 1.042969 -1.84375 0.894531 -1.921875 0.746094 -2.035156 C 0.570312 -2.167969 0.441406 -2.335938 0.351562 -2.539062 C 0.261719 -2.742188 0.21875 -2.984375 0.21875 -3.269531 Z "/>
</g>
<g id="glyph-0-7">
<path d="M 3.097656 -3.097656 L 1.863281 -3.097656 L 1.863281 0 L 1.25 0 L 1.25 -3.097656 L 0.0117188 -3.097656 L 0.0117188 -3.636719 L 3.097656 -3.636719 Z "/>
</g>
<g id="glyph-0-8">
<path d="M 3.300781 -3.636719 L 1.34375 1.339844 L 0.691406 1.339844 L 1.339844 -0.175781 L 0.0195312 -3.636719 L 0.679688 -3.636719 L 1.671875 -0.945312 L 2.664062 -3.636719 Z "/>
</g>
<g id="glyph-0-9">
<path d="M 3.257812 0 L 2.644531 0 L 2.644531 -3.121094 L 1.394531 -3.121094 C 1.390625 -2.941406 1.382812 -2.769531 1.375 -2.601562 C 1.371094 -2.4375 1.363281 -2.285156 1.355469 -2.152344 C 1.34375 -1.8125 1.320312 -1.527344 1.289062 -1.296875 C 1.257812 -1.066406 1.21875 -0.882812 1.171875 -0.742188 C 1.125 -0.597656 1.070312 -0.488281 1.015625 -0.40625 C 0.957031 -0.328125 0.890625 -0.253906 0.820312 -0.1875 C 0.746094 -0.125 0.667969 -0.0742188 0.582031 -0.0429688 C 0.496094 -0.0117188 0.402344 0.0078125 0.296875 0.0078125 C 0.261719 0.0078125 0.21875 0.00390625 0.164062 0.00390625 C 0.109375 0 0.0703125 0 0.046875 0 L 0.046875 -0.535156 L 0.0820312 -0.535156 C 0.0976562 -0.535156 0.113281 -0.53125 0.128906 -0.53125 C 0.144531 -0.527344 0.164062 -0.527344 0.183594 -0.527344 C 0.238281 -0.527344 0.289062 -0.535156 0.339844 -0.550781 C 0.386719 -0.566406 0.433594 -0.59375 0.472656 -0.632812 C 0.582031 -0.742188 0.660156 -0.925781 0.710938 -1.191406 C 0.757812 -1.457031 0.796875 -1.832031 0.816406 -2.308594 C 0.824219 -2.484375 0.832031 -2.695312 0.839844 -2.9375 C 0.847656 -3.183594 0.855469 -3.414062 0.863281 -3.636719 L 3.257812 -3.636719 Z "/>
</g>
<g id="glyph-0-10">
<path d="M 0.136719 -0.832031 L 0.175781 -0.832031 C 0.222656 -0.792969 0.28125 -0.75 0.351562 -0.703125 C 0.421875 -0.660156 0.507812 -0.617188 0.601562 -0.578125 C 0.707031 -0.535156 0.804688 -0.503906 0.902344 -0.476562 C 0.996094 -0.453125 1.113281 -0.441406 1.253906 -0.441406 C 1.566406 -0.441406 1.816406 -0.546875 2.003906 -0.757812 C 2.195312 -0.96875 2.300781 -1.273438 2.332031 -1.671875 L 0.675781 -1.671875 L 0.675781 -2.164062 L 2.328125 -2.164062 C 2.289062 -2.507812 2.175781 -2.769531 1.988281 -2.9375 C 1.800781 -3.109375 1.566406 -3.195312 1.289062 -3.195312 C 1.164062 -3.195312 1.050781 -3.183594 0.945312 -3.15625 C 0.835938 -3.128906 0.734375 -3.09375 0.632812 -3.046875 C 0.550781 -3.007812 0.480469 -2.964844 0.414062 -2.917969 C 0.351562 -2.875 0.289062 -2.828125 0.230469 -2.78125 L 0.191406 -2.78125 L 0.191406 -3.449219 C 0.308594 -3.5 0.46875 -3.558594 0.679688 -3.621094 C 0.886719 -3.6875 1.085938 -3.71875 1.277344 -3.71875 C 1.519531 -3.71875 1.746094 -3.683594 1.949219 -3.609375 C 2.152344 -3.535156 2.328125 -3.421875 2.476562 -3.269531 C 2.625 -3.113281 2.742188 -2.925781 2.820312 -2.703125 C 2.898438 -2.480469 2.9375 -2.210938 2.9375 -1.890625 C 2.9375 -1.285156 2.785156 -0.804688 2.472656 -0.449219 C 2.160156 -0.09375 1.742188 0.0820312 1.210938 0.0820312 C 1.011719 0.0820312 0.820312 0.0546875 0.632812 0.00390625 C 0.445312 -0.046875 0.28125 -0.101562 0.136719 -0.164062 Z "/>
</g>
<g id="glyph-0-11">
<path d="M 2.023438 0.0859375 C 1.441406 0.0859375 0.992188 -0.078125 0.671875 -0.40625 C 0.351562 -0.730469 0.191406 -1.195312 0.191406 -1.796875 C 0.191406 -2.390625 0.347656 -2.859375 0.65625 -3.210938 C 0.96875 -3.5625 1.375 -3.738281 1.875 -3.738281 C 2.101562 -3.738281 2.300781 -3.703125 2.472656 -3.640625 C 2.648438 -3.574219 2.800781 -3.472656 2.929688 -3.332031 C 3.058594 -3.195312 3.160156 -3.023438 3.230469 -2.824219 C 3.296875 -2.625 3.332031 -2.378906 3.332031 -2.085938 L 3.332031 -1.753906 L 0.8125 -1.753906 C 0.8125 -1.332031 0.921875 -1.007812 1.132812 -0.785156 C 1.34375 -0.5625 1.640625 -0.449219 2.015625 -0.449219 C 2.148438 -0.449219 2.28125 -0.464844 2.410156 -0.496094 C 2.539062 -0.523438 2.65625 -0.5625 2.761719 -0.613281 C 2.871094 -0.660156 2.964844 -0.710938 3.039062 -0.757812 C 3.117188 -0.804688 3.179688 -0.847656 3.230469 -0.886719 L 3.265625 -0.886719 L 3.265625 -0.222656 C 3.191406 -0.191406 3.105469 -0.15625 2.996094 -0.117188 C 2.890625 -0.0742188 2.796875 -0.0390625 2.710938 -0.015625 C 2.59375 0.015625 2.484375 0.0429688 2.386719 0.0585938 C 2.292969 0.0742188 2.167969 0.0859375 2.023438 0.0859375 M 2.738281 -2.222656 C 2.734375 -2.386719 2.714844 -2.53125 2.679688 -2.648438 C 2.644531 -2.769531 2.59375 -2.871094 2.527344 -2.953125 C 2.457031 -3.042969 2.367188 -3.113281 2.253906 -3.160156 C 2.140625 -3.207031 2.003906 -3.230469 1.839844 -3.230469 C 1.675781 -3.230469 1.539062 -3.207031 1.425781 -3.160156 C 1.308594 -3.109375 1.207031 -3.039062 1.113281 -2.945312 C 1.023438 -2.851562 0.953125 -2.746094 0.90625 -2.628906 C 0.855469 -2.511719 0.828125 -2.378906 0.8125 -2.222656 Z "/>
</g>
<g id="glyph-0-12">
<path d="M 3.492188 -1.914062 C 3.492188 -1.308594 3.347656 -0.828125 3.058594 -0.46875 C 2.769531 -0.109375 2.402344 0.0703125 1.960938 0.0703125 C 1.78125 0.0703125 1.621094 0.0507812 1.480469 0.0078125 C 1.34375 -0.03125 1.199219 -0.09375 1.054688 -0.183594 L 1.054688 1.339844 L 0.441406 1.339844 L 0.441406 -3.636719 L 1.054688 -3.636719 L 1.054688 -3.253906 C 1.207031 -3.390625 1.375 -3.507812 1.5625 -3.597656 C 1.746094 -3.691406 1.949219 -3.738281 2.167969 -3.738281 C 2.585938 -3.738281 2.910156 -3.570312 3.144531 -3.242188 C 3.375 -2.914062 3.492188 -2.46875 3.492188 -1.914062 M 2.859375 -1.84375 C 2.859375 -2.261719 2.796875 -2.582031 2.664062 -2.8125 C 2.53125 -3.039062 2.316406 -3.152344 2.019531 -3.152344 C 1.84375 -3.152344 1.675781 -3.117188 1.515625 -3.039062 C 1.355469 -2.960938 1.199219 -2.863281 1.054688 -2.742188 L 1.054688 -0.679688 C 1.214844 -0.601562 1.351562 -0.550781 1.464844 -0.519531 C 1.582031 -0.492188 1.710938 -0.476562 1.859375 -0.476562 C 2.175781 -0.476562 2.421875 -0.59375 2.597656 -0.828125 C 2.773438 -1.058594 2.859375 -1.398438 2.859375 -1.84375 Z "/>
</g>
<g id="glyph-0-13">
<path d="M 2.753906 -3.097656 L 1.054688 -3.097656 L 1.054688 0 L 0.441406 0 L 0.441406 -3.636719 L 2.753906 -3.636719 Z "/>
</g>
<g id="glyph-0-14">
<path d="M 1.628906 -0.925781 L 0.714844 1.203125 L 0.242188 1.203125 L 0.8125 -0.925781 Z "/>
</g>
<g id="glyph-0-15">
<path d="M 3.3125 0 L 2.703125 0 L 2.703125 -1.636719 L 1.054688 -1.636719 L 1.054688 0 L 0.441406 0 L 0.441406 -3.636719 L 1.054688 -3.636719 L 1.054688 -2.164062 L 2.703125 -2.164062 L 2.703125 -3.636719 L 3.3125 -3.636719 Z "/>
</g>
<g id="glyph-0-16">
<path d="M 3.5625 0.871094 L 2.992188 0.871094 L 2.992188 -0.0078125 L 0.59375 -0.0078125 L 0.59375 0.871094 L 0.0273438 0.871094 L 0.0273438 -0.519531 L 0.265625 -0.519531 C 0.472656 -0.859375 0.640625 -1.300781 0.773438 -1.847656 C 0.90625 -2.394531 0.96875 -2.988281 0.96875 -3.636719 L 3.199219 -3.636719 L 3.199219 -0.519531 L 3.5625 -0.519531 L 3.5625 0.871094 M 2.585938 -0.519531 L 2.585938 -3.121094 L 1.546875 -3.121094 C 1.519531 -2.578125 1.445312 -2.082031 1.324219 -1.636719 C 1.203125 -1.1875 1.050781 -0.816406 0.867188 -0.519531 Z "/>
</g>
<g id="glyph-0-17">
<path d="M 3.269531 0 L 2.515625 0 L 1.632812 -1.375 L 0.726562 0 L 0.03125 0 L 1.296875 -1.804688 L 0.046875 -3.636719 L 0.796875 -3.636719 L 1.671875 -2.273438 L 2.570312 -3.636719 L 3.269531 -3.636719 L 2.011719 -1.84375 Z "/>
</g>
<g id="glyph-0-18">
<path d="M 3.300781 -3.636719 L 1.945312 -0.175781 L 1.945312 1.339844 L 1.339844 1.339844 L 1.339844 -0.175781 L 0.0195312 -3.636719 L 0.679688 -3.636719 L 1.671875 -0.945312 L 2.664062 -3.636719 Z "/>
</g>
<g id="glyph-0-19">
<path d="M 3.175781 0 L 2.566406 0 L 2.566406 -1.417969 C 2.375 -1.355469 2.1875 -1.308594 2.007812 -1.273438 C 1.828125 -1.238281 1.648438 -1.21875 1.472656 -1.21875 C 1.320312 -1.21875 1.171875 -1.242188 1.023438 -1.28125 C 0.878906 -1.320312 0.75 -1.386719 0.644531 -1.476562 C 0.539062 -1.570312 0.457031 -1.6875 0.398438 -1.828125 C 0.339844 -1.96875 0.3125 -2.136719 0.3125 -2.332031 L 0.3125 -3.636719 L 0.925781 -3.636719 L 0.925781 -2.648438 C 0.925781 -2.488281 0.929688 -2.363281 0.945312 -2.265625 C 0.957031 -2.171875 0.992188 -2.082031 1.050781 -1.992188 C 1.101562 -1.917969 1.175781 -1.859375 1.277344 -1.816406 C 1.378906 -1.773438 1.511719 -1.753906 1.675781 -1.753906 C 1.820312 -1.753906 1.972656 -1.769531 2.136719 -1.796875 C 2.300781 -1.824219 2.445312 -1.859375 2.566406 -1.898438 L 2.566406 -3.636719 L 3.175781 -3.636719 Z "/>
</g>
<g id="glyph-0-20">
<path d="M 3.3125 0 L 2.707031 0 L 2.707031 -2.710938 L 0.996094 0 L 0.441406 0 L 0.441406 -3.636719 L 1.046875 -3.636719 L 1.046875 -0.964844 L 2.742188 -3.636719 L 3.3125 -3.636719 L 3.3125 0 M 3.039062 -5.324219 C 3.039062 -5.140625 3.015625 -4.96875 2.972656 -4.816406 C 2.925781 -4.664062 2.859375 -4.535156 2.777344 -4.429688 C 2.679688 -4.316406 2.566406 -4.230469 2.445312 -4.171875 C 2.320312 -4.113281 2.164062 -4.085938 1.96875 -4.085938 C 1.792969 -4.085938 1.636719 -4.113281 1.503906 -4.175781 C 1.367188 -4.234375 1.257812 -4.320312 1.164062 -4.429688 C 1.078125 -4.539062 1.007812 -4.667969 0.964844 -4.820312 C 0.917969 -4.972656 0.894531 -5.140625 0.894531 -5.324219 L 1.421875 -5.324219 C 1.421875 -5.03125 1.46875 -4.820312 1.558594 -4.691406 C 1.648438 -4.5625 1.785156 -4.5 1.96875 -4.5 C 2.140625 -4.5 2.273438 -4.5625 2.371094 -4.6875 C 2.464844 -4.816406 2.511719 -5.027344 2.511719 -5.324219 Z "/>
</g>
<g id="glyph-0-21">
<path d="M 4.746094 0 L 0.441406 0 L 0.441406 -3.636719 L 1.054688 -3.636719 L 1.054688 -0.515625 L 2.289062 -0.515625 L 2.289062 -3.636719 L 2.898438 -3.636719 L 2.898438 -0.515625 L 4.132812 -0.515625 L 4.132812 -3.636719 L 4.746094 -3.636719 Z "/>
</g>
<g id="glyph-0-22">
<path d="M 2.472656 -0.894531 L 2.472656 -1.902344 C 2.328125 -1.890625 2.144531 -1.875 1.921875 -1.851562 C 1.699219 -1.828125 1.519531 -1.796875 1.382812 -1.753906 C 1.21875 -1.703125 1.085938 -1.628906 0.980469 -1.523438 C 0.875 -1.421875 0.820312 -1.277344 0.820312 -1.09375 C 0.820312 -0.886719 0.878906 -0.726562 0.996094 -0.621094 C 1.113281 -0.515625 1.285156 -0.460938 1.511719 -0.460938 C 1.703125 -0.460938 1.878906 -0.503906 2.035156 -0.585938 C 2.191406 -0.671875 2.335938 -0.773438 2.472656 -0.894531 M 2.472656 -0.386719 C 2.425781 -0.351562 2.355469 -0.300781 2.273438 -0.234375 C 2.191406 -0.167969 2.109375 -0.113281 2.03125 -0.0742188 C 1.921875 -0.0195312 1.816406 0.0234375 1.71875 0.0546875 C 1.617188 0.0859375 1.472656 0.101562 1.292969 0.101562 C 1.140625 0.101562 1 0.0742188 0.867188 0.015625 C 0.730469 -0.0390625 0.613281 -0.121094 0.511719 -0.222656 C 0.414062 -0.320312 0.335938 -0.445312 0.277344 -0.589844 C 0.21875 -0.738281 0.1875 -0.890625 0.1875 -1.054688 C 0.1875 -1.304688 0.242188 -1.519531 0.347656 -1.699219 C 0.453125 -1.875 0.621094 -2.015625 0.851562 -2.117188 C 1.058594 -2.210938 1.296875 -2.277344 1.574219 -2.3125 C 1.851562 -2.347656 2.152344 -2.375 2.472656 -2.390625 L 2.472656 -2.507812 C 2.472656 -2.652344 2.453125 -2.769531 2.410156 -2.855469 C 2.367188 -2.945312 2.304688 -3.011719 2.226562 -3.058594 C 2.148438 -3.109375 2.054688 -3.144531 1.941406 -3.160156 C 1.828125 -3.175781 1.710938 -3.183594 1.589844 -3.183594 C 1.449219 -3.183594 1.285156 -3.164062 1.09375 -3.121094 C 0.902344 -3.078125 0.710938 -3.015625 0.519531 -2.9375 L 0.484375 -2.9375 L 0.484375 -3.558594 C 0.597656 -3.589844 0.757812 -3.625 0.96875 -3.664062 C 1.179688 -3.703125 1.390625 -3.722656 1.59375 -3.722656 C 1.84375 -3.722656 2.054688 -3.703125 2.226562 -3.664062 C 2.398438 -3.625 2.550781 -3.554688 2.6875 -3.453125 C 2.820312 -3.355469 2.917969 -3.226562 2.984375 -3.066406 C 3.050781 -2.90625 3.082031 -2.714844 3.082031 -2.488281 L 3.082031 0 L 2.472656 0 Z "/>
</g>
<g id="glyph-0-23">
<path d="M 3.816406 0 L 3.210938 0 L 3.210938 -2.859375 L 2.335938 -1.003906 L 1.882812 -1.003906 L 1.015625 -2.859375 L 1.015625 0 L 0.441406 0 L 0.441406 -3.636719 L 1.179688 -3.636719 L 2.140625 -1.617188 L 3.0625 -3.636719 L 3.816406 -3.636719 Z "/>
</g>
<g id="glyph-0-24">
<path d="M 4.855469 0 L 4.117188 0 L 2.976562 -1.671875 L 2.738281 -1.671875 L 2.738281 0 L 2.132812 0 L 2.132812 -1.671875 L 1.894531 -1.671875 L 0.730469 0 L 0.0273438 0 L 1.394531 -1.902344 C 1.289062 -1.960938 1.195312 -2.042969 1.113281 -2.148438 C 1.03125 -2.257812 0.957031 -2.414062 0.890625 -2.617188 C 0.832031 -2.800781 0.765625 -2.929688 0.683594 -3 C 0.601562 -3.074219 0.472656 -3.109375 0.289062 -3.109375 L 0.148438 -3.109375 L 0.148438 -3.636719 L 0.316406 -3.636719 C 0.582031 -3.636719 0.800781 -3.582031 0.976562 -3.472656 C 1.148438 -3.363281 1.28125 -3.175781 1.378906 -2.902344 C 1.398438 -2.847656 1.425781 -2.78125 1.453125 -2.710938 C 1.484375 -2.636719 1.507812 -2.574219 1.53125 -2.527344 C 1.601562 -2.359375 1.683594 -2.242188 1.78125 -2.167969 C 1.875 -2.09375 1.992188 -2.054688 2.132812 -2.042969 L 2.132812 -3.636719 L 2.738281 -3.636719 L 2.738281 -2.042969 C 2.875 -2.054688 2.996094 -2.097656 3.09375 -2.171875 C 3.191406 -2.246094 3.277344 -2.363281 3.347656 -2.527344 C 3.371094 -2.582031 3.398438 -2.644531 3.425781 -2.714844 C 3.457031 -2.785156 3.480469 -2.847656 3.496094 -2.902344 C 3.589844 -3.171875 3.722656 -3.359375 3.894531 -3.46875 C 4.0625 -3.582031 4.28125 -3.636719 4.554688 -3.636719 L 4.71875 -3.636719 L 4.71875 -3.109375 L 4.578125 -3.109375 C 4.410156 -3.109375 4.28125 -3.074219 4.195312 -3.003906 C 4.109375 -2.933594 4.035156 -2.804688 3.976562 -2.617188 C 3.917969 -2.429688 3.84375 -2.28125 3.761719 -2.171875 C 3.679688 -2.0625 3.589844 -1.980469 3.488281 -1.921875 Z "/>
</g>
<g id="glyph-0-25">
<path d="M 2.851562 -1.007812 C 2.851562 -0.800781 2.808594 -0.628906 2.71875 -0.488281 C 2.628906 -0.347656 2.515625 -0.234375 2.375 -0.152344 C 2.242188 -0.0742188 2.09375 -0.0117188 1.921875 0.0273438 C 1.753906 0.0664062 1.585938 0.0859375 1.414062 0.0859375 C 1.175781 0.0859375 0.953125 0.0625 0.738281 0.015625 C 0.527344 -0.03125 0.316406 -0.105469 0.105469 -0.207031 L 0.105469 -0.886719 L 0.144531 -0.886719 C 0.289062 -0.75 0.476562 -0.640625 0.699219 -0.5625 C 0.921875 -0.480469 1.140625 -0.441406 1.363281 -0.441406 C 1.460938 -0.441406 1.5625 -0.453125 1.671875 -0.472656 C 1.78125 -0.496094 1.875 -0.527344 1.949219 -0.570312 C 2.050781 -0.628906 2.121094 -0.695312 2.164062 -0.765625 C 2.207031 -0.835938 2.226562 -0.929688 2.226562 -1.050781 C 2.226562 -1.179688 2.203125 -1.285156 2.152344 -1.367188 C 2.105469 -1.445312 2.039062 -1.503906 1.953125 -1.542969 C 1.867188 -1.582031 1.773438 -1.605469 1.667969 -1.617188 C 1.5625 -1.625 1.453125 -1.628906 1.335938 -1.628906 L 0.90625 -1.628906 L 0.90625 -2.15625 L 1.234375 -2.15625 C 1.316406 -2.15625 1.417969 -2.160156 1.542969 -2.167969 C 1.667969 -2.171875 1.765625 -2.1875 1.839844 -2.21875 C 1.933594 -2.25 2.007812 -2.300781 2.0625 -2.363281 C 2.121094 -2.429688 2.148438 -2.535156 2.148438 -2.6875 C 2.148438 -2.796875 2.125 -2.878906 2.078125 -2.945312 C 2.027344 -3.011719 1.96875 -3.0625 1.898438 -3.097656 C 1.824219 -3.136719 1.742188 -3.164062 1.65625 -3.179688 C 1.570312 -3.191406 1.488281 -3.199219 1.40625 -3.199219 C 1.199219 -3.199219 1.003906 -3.171875 0.8125 -3.113281 C 0.621094 -3.054688 0.457031 -2.972656 0.320312 -2.859375 L 0.28125 -2.859375 L 0.28125 -3.519531 C 0.4375 -3.574219 0.613281 -3.621094 0.800781 -3.660156 C 0.992188 -3.703125 1.183594 -3.722656 1.375 -3.722656 C 1.527344 -3.722656 1.683594 -3.707031 1.84375 -3.675781 C 2.003906 -3.644531 2.15625 -3.589844 2.296875 -3.515625 C 2.433594 -3.441406 2.546875 -3.339844 2.636719 -3.210938 C 2.726562 -3.082031 2.773438 -2.925781 2.773438 -2.738281 C 2.773438 -2.539062 2.71875 -2.367188 2.605469 -2.21875 C 2.492188 -2.070312 2.347656 -1.972656 2.160156 -1.921875 L 2.160156 -1.902344 C 2.363281 -1.832031 2.527344 -1.726562 2.65625 -1.582031 C 2.785156 -1.4375 2.851562 -1.246094 2.851562 -1.007812 Z "/>
</g>
<g id="glyph-0-26">
<path d="M 3.019531 -3.097656 C 3.160156 -2.957031 3.269531 -2.773438 3.347656 -2.554688 C 3.425781 -2.332031 3.464844 -2.078125 3.464844 -1.785156 C 3.464844 -1.507812 3.421875 -1.25 3.332031 -1.011719 C 3.246094 -0.773438 3.125 -0.574219 2.972656 -0.410156 C 2.816406 -0.242188 2.644531 -0.113281 2.453125 -0.0273438 C 2.261719 0.0585938 2.054688 0.101562 1.832031 0.101562 C 1.605469 0.101562 1.394531 0.0625 1.207031 -0.0195312 C 1.015625 -0.0976562 0.855469 -0.21875 0.71875 -0.382812 C 0.550781 -0.589844 0.425781 -0.847656 0.34375 -1.160156 C 0.261719 -1.46875 0.21875 -1.851562 0.21875 -2.3125 C 0.21875 -2.472656 0.226562 -2.640625 0.238281 -2.808594 C 0.253906 -2.976562 0.285156 -3.175781 0.332031 -3.410156 C 0.375 -3.621094 0.433594 -3.8125 0.507812 -3.992188 C 0.582031 -4.171875 0.679688 -4.324219 0.796875 -4.445312 C 0.953125 -4.605469 1.152344 -4.734375 1.402344 -4.832031 C 1.648438 -4.925781 1.980469 -4.992188 2.390625 -5.027344 C 2.535156 -5.042969 2.691406 -5.054688 2.855469 -5.066406 C 3.023438 -5.078125 3.148438 -5.085938 3.234375 -5.09375 L 3.234375 -4.53125 C 3.121094 -4.523438 3.003906 -4.515625 2.875 -4.507812 C 2.746094 -4.496094 2.601562 -4.484375 2.433594 -4.472656 C 2.214844 -4.457031 1.988281 -4.417969 1.746094 -4.355469 C 1.507812 -4.296875 1.328125 -4.203125 1.207031 -4.078125 C 1.117188 -3.984375 1.042969 -3.851562 0.988281 -3.679688 C 0.933594 -3.503906 0.898438 -3.3125 0.875 -3.097656 C 1.035156 -3.214844 1.207031 -3.3125 1.390625 -3.390625 C 1.574219 -3.46875 1.773438 -3.507812 1.984375 -3.507812 C 2.183594 -3.507812 2.371094 -3.476562 2.546875 -3.410156 C 2.726562 -3.34375 2.882812 -3.238281 3.019531 -3.097656 M 2.84375 -1.75 C 2.84375 -2.136719 2.757812 -2.433594 2.585938 -2.640625 C 2.410156 -2.847656 2.164062 -2.949219 1.84375 -2.949219 C 1.667969 -2.949219 1.496094 -2.917969 1.332031 -2.859375 C 1.167969 -2.800781 1.011719 -2.722656 0.867188 -2.625 C 0.863281 -2.574219 0.855469 -2.507812 0.851562 -2.433594 C 0.847656 -2.359375 0.847656 -2.289062 0.847656 -2.230469 C 0.847656 -1.851562 0.875 -1.546875 0.9375 -1.308594 C 1 -1.070312 1.082031 -0.886719 1.191406 -0.75 C 1.289062 -0.628906 1.390625 -0.546875 1.5 -0.5 C 1.609375 -0.453125 1.726562 -0.429688 1.855469 -0.429688 C 2.167969 -0.429688 2.410156 -0.546875 2.585938 -0.785156 C 2.757812 -1.019531 2.84375 -1.34375 2.84375 -1.75 Z "/>
</g>
<g id="glyph-0-27">
<path d="M 3.433594 -1.816406 C 3.433594 -1.203125 3.285156 -0.730469 2.992188 -0.398438 C 2.695312 -0.0664062 2.304688 0.101562 1.8125 0.101562 C 1.308594 0.101562 0.910156 -0.0703125 0.621094 -0.414062 C 0.332031 -0.757812 0.183594 -1.226562 0.183594 -1.816406 C 0.183594 -2.425781 0.335938 -2.894531 0.632812 -3.230469 C 0.929688 -3.570312 1.324219 -3.738281 1.8125 -3.738281 C 2.304688 -3.738281 2.695312 -3.570312 2.992188 -3.234375 C 3.285156 -2.898438 3.433594 -2.425781 3.433594 -1.816406 M 2.800781 -1.816406 C 2.800781 -2.289062 2.71875 -2.636719 2.546875 -2.867188 C 2.375 -3.09375 2.128906 -3.210938 1.8125 -3.210938 C 1.492188 -3.210938 1.25 -3.09375 1.074219 -2.867188 C 0.902344 -2.636719 0.816406 -2.289062 0.816406 -1.816406 C 0.816406 -1.359375 0.902344 -1.015625 1.074219 -0.78125 C 1.25 -0.542969 1.492188 -0.425781 1.8125 -0.425781 C 2.128906 -0.425781 2.371094 -0.542969 2.542969 -0.773438 C 2.714844 -1.003906 2.800781 -1.351562 2.800781 -1.816406 Z "/>
</g>
</g>
</defs>
<g fill="rgb(46.666667%, 69.019608%, 36.470588%)" fill-opacity="1">
<use xlink:href="#glyph-0-0" x="30" y="26.668945"/>
<use xlink:href="#glyph-0-1" x="32" y="26.668945"/>
<use xlink:href="#glyph-0-2" x="34" y="26.668945"/>
<use xlink:href="#glyph-0-1" x="39" y="26.668945"/>
<use xlink:href="#glyph-0-3" x="41" y="26.668945"/>
<use xlink:href="#glyph-0-4" x="45" y="26.668945"/>
<use xlink:href="#glyph-0-5" x="47" y="26.668945"/>
<use xlink:href="#glyph-0-6" x="51" y="26.668945"/>
<use xlink:href="#glyph-0-1" x="55" y="26.668945"/>
</g>
<g fill="rgb(46.666667%, 69.019608%, 36.470588%)" fill-opacity="1">
<use xlink:href="#glyph-0-7" x="57" y="26.668945"/>
<use xlink:href="#glyph-0-8" x="60" y="26.668945"/>
<use xlink:href="#glyph-0-9" x="63" y="26.668945"/>
<use xlink:href="#glyph-0-1" x="67" y="26.668945"/>
<use xlink:href="#glyph-0-10" x="69" y="26.668945"/>
<use xlink:href="#glyph-0-11" x="72" y="26.668945"/>
<use xlink:href="#glyph-0-12" x="76" y="26.668945"/>
<use xlink:href="#glyph-0-10" x="80" y="26.668945"/>
<use xlink:href="#glyph-0-13" x="83" y="26.668945"/>
<use xlink:href="#glyph-0-14" x="86" y="26.668945"/>
<use xlink:href="#glyph-0-1" x="88" y="26.668945"/>
<use xlink:href="#glyph-0-15" x="90" y="26.668945"/>
<use xlink:href="#glyph-0-10" x="94" y="26.668945"/>
<use xlink:href="#glyph-0-9" x="97" y="26.668945"/>
<use xlink:href="#glyph-0-10" x="101" y="26.668945"/>
<use xlink:href="#glyph-0-10" x="104" y="26.668945"/>
<use xlink:href="#glyph-0-16" x="107" y="26.668945"/>
<use xlink:href="#glyph-0-1" x="111" y="26.668945"/>
<use xlink:href="#glyph-0-17" x="113" y="26.668945"/>
<use xlink:href="#glyph-0-18" x="116" y="26.668945"/>
<use xlink:href="#glyph-0-19" x="119" y="26.668945"/>
<use xlink:href="#glyph-0-7" x="123" y="26.668945"/>
<use xlink:href="#glyph-0-10" x="126" y="26.668945"/>
<use xlink:href="#glyph-0-20" x="129" y="26.668945"/>
<use xlink:href="#glyph-0-1" x="133" y="26.668945"/>
<use xlink:href="#glyph-0-21" x="135" y="26.668945"/>
<use xlink:href="#glyph-0-8" x="140" y="26.668945"/>
<use xlink:href="#glyph-0-13" x="143" y="26.668945"/>
<use xlink:href="#glyph-0-22" x="146" y="26.668945"/>
<use xlink:href="#glyph-0-23" x="149" y="26.668945"/>
<use xlink:href="#glyph-0-22" x="153" y="26.668945"/>
<use xlink:href="#glyph-0-15" x="156" y="26.668945"/>
<use xlink:href="#glyph-0-1" x="160" y="26.668945"/>
<use xlink:href="#glyph-0-17" x="162" y="26.668945"/>
<use xlink:href="#glyph-0-22" x="165" y="26.668945"/>
<use xlink:href="#glyph-0-23" x="168" y="26.668945"/>
<use xlink:href="#glyph-0-22" x="172" y="26.668945"/>
<use xlink:href="#glyph-0-22" x="175" y="26.668945"/>
<use xlink:href="#glyph-0-12" x="178" y="26.668945"/>
<use xlink:href="#glyph-0-22" x="182" y="26.668945"/>
<use xlink:href="#glyph-0-9" x="185" y="26.668945"/>
<use xlink:href="#glyph-0-7" x="189" y="26.668945"/>
<use xlink:href="#glyph-0-22" x="192" y="26.668945"/>
<use xlink:href="#glyph-0-20" x="195" y="26.668945"/>
<use xlink:href="#glyph-0-1" x="199" y="26.668945"/>
<use xlink:href="#glyph-0-13" x="201" y="26.668945"/>
<use xlink:href="#glyph-0-10" x="204" y="26.668945"/>
<use xlink:href="#glyph-0-24" x="207" y="26.668945"/>
<use xlink:href="#glyph-0-1" x="212" y="26.668945"/>
<use xlink:href="#glyph-0-18" x="214" y="26.668945"/>
<use xlink:href="#glyph-0-25" x="217" y="26.668945"/>
<use xlink:href="#glyph-0-10" x="220" y="26.668945"/>
<use xlink:href="#glyph-0-24" x="223" y="26.668945"/>
<use xlink:href="#glyph-0-1" x="228" y="26.668945"/>
<use xlink:href="#glyph-0-26" x="230" y="26.668945"/>
<use xlink:href="#glyph-0-27" x="234" y="26.668945"/>
<use xlink:href="#glyph-0-9" x="238" y="26.668945"/>
<use xlink:href="#glyph-0-15" x="242" y="26.668945"/>
<use xlink:href="#glyph-0-27" x="246" y="26.668945"/>
<use xlink:href="#glyph-0-4" x="250" y="26.668945"/>
</g>
</svg>
