<?xml version="1.0" encoding="UTF-8"?>
<svg xmlns="http://www.w3.org/2000/svg" xmlns:xlink="http://www.w3.org/1999/xlink" width="854" height="480" viewBox="0 0 854 480">
<defs>
<g>
<g id="glyph-0-0">
<path d="M 7.386719 1.910156 L 6 1.910156 L 6 0 L 1.558594 0 L 1.558594 1.910156 L 0.191406 1.910156 L 0.191406 -1.289062 L 0.839844 -1.289062 C 1.746094 -2.925781 2.246094 -4.832031 2.339844 -7 L 6.390625 -7 L 6.390625 -1.289062 L 7.386719 -1.289062 L 7.386719 1.910156 M 4.808594 -1.289062 L 4.808594 -5.6875 L 3.617188 -5.6875 C 3.582031 -5.039062 3.457031 -4.3125 3.246094 -3.5 C 3.035156 -2.691406 2.773438 -1.953125 2.460938 -1.289062 Z "/>
</g>
<g id="glyph-0-1">
<path d="M 4.808594 0 L 3.351562 0 L 3.351562 -0.71875 L 3.328125 -0.71875 C 2.996094 -0.15625 2.5 0.121094 1.839844 0.121094 C 1.355469 0.121094 0.972656 -0.015625 0.695312 -0.289062 C 0.417969 -0.566406 0.277344 -0.933594 0.277344 -1.390625 C 0.277344 -2.363281 0.851562 -2.921875 2 -3.070312 L 3.359375 -3.25 C 3.359375 -3.796875 3.0625 -4.070312 2.46875 -4.070312 C 1.875 -4.070312 1.308594 -3.894531 0.773438 -3.539062 L 0.773438 -4.703125 C 0.984375 -4.8125 1.28125 -4.910156 1.652344 -4.996094 C 2.027344 -5.078125 2.363281 -5.121094 2.671875 -5.121094 C 4.097656 -5.121094 4.808594 -4.410156 4.808594 -2.988281 L 4.808594 0 M 3.359375 -2.03125 L 3.359375 -2.367188 L 2.453125 -2.25 C 1.949219 -2.1875 1.699219 -1.960938 1.699219 -1.570312 C 1.699219 -1.398438 1.761719 -1.253906 1.882812 -1.140625 C 2.003906 -1.027344 2.167969 -0.972656 2.378906 -0.972656 C 2.667969 -0.972656 2.902344 -1.070312 3.085938 -1.273438 C 3.269531 -1.472656 3.359375 -1.726562 3.359375 -2.03125 Z "/>
</g>
<g id="glyph-0-2">
<path d="M 4.4375 -0.179688 C 4.089844 0.0195312 3.585938 0.121094 2.929688 0.121094 C 2.160156 0.121094 1.539062 -0.109375 1.0625 -0.578125 C 0.589844 -1.042969 0.351562 -1.640625 0.351562 -2.378906 C 0.351562 -3.226562 0.605469 -3.898438 1.117188 -4.386719 C 1.625 -4.878906 2.304688 -5.121094 3.160156 -5.121094 C 3.75 -5.121094 4.175781 -5.042969 4.4375 -4.886719 L 4.4375 -3.578125 C 4.117188 -3.820312 3.757812 -3.941406 3.359375 -3.941406 C 2.917969 -3.941406 2.566406 -3.8125 2.308594 -3.550781 C 2.046875 -3.292969 1.917969 -2.9375 1.917969 -2.480469 C 1.917969 -2.039062 2.042969 -1.691406 2.289062 -1.4375 C 2.539062 -1.1875 2.878906 -1.058594 3.3125 -1.058594 C 3.695312 -1.058594 4.070312 -1.179688 4.4375 -1.421875 Z "/>
</g>
<g id="glyph-0-3">
<path d="M 3.910156 -3.828125 L 2.191406 -3.828125 L 2.191406 0 L 0.648438 0 L 0.648438 -5 L 3.910156 -5 Z "/>
</g>
<g id="glyph-0-4">
<path d="M 5.382812 0 L 3.828125 0 L 3.828125 -3.910156 L 2.976562 -3.910156 C 2.800781 -2.398438 2.53125 -1.359375 2.175781 -0.789062 C 1.820312 -0.226562 1.320312 0.0585938 0.679688 0.0585938 C 0.457031 0.0585938 0.257812 0.0273438 0.078125 -0.0390625 L 0.078125 -1.089844 C 0.191406 -1.035156 0.3125 -1.011719 0.4375 -1.011719 C 0.746094 -1.011719 1 -1.296875 1.203125 -1.867188 C 1.402344 -2.433594 1.585938 -3.480469 1.75 -5 L 5.382812 -5 Z "/>
</g>
<g id="glyph-0-5">
</g>
<g id="glyph-0-6">
<path d="M 5.078125 -7.519531 L 5.078125 -6.296875 C 4.921875 -6.179688 4.714844 -6.097656 4.453125 -6.058594 C 3.71875 -5.945312 3.28125 -5.871094 3.140625 -5.839844 C 2.84375 -5.773438 2.628906 -5.679688 2.492188 -5.5625 C 2.359375 -5.445312 2.246094 -5.273438 2.160156 -5.046875 C 2.074219 -4.824219 2.015625 -4.550781 1.984375 -4.226562 L 2 -4.226562 C 2.375 -4.65625 2.871094 -4.867188 3.492188 -4.867188 C 4.199219 -4.867188 4.753906 -4.65625 5.148438 -4.234375 C 5.542969 -3.8125 5.742188 -3.234375 5.742188 -2.492188 C 5.742188 -1.695312 5.5 -1.0625 5.015625 -0.589844 C 4.53125 -0.113281 3.871094 0.121094 3.042969 0.121094 C 2.171875 0.121094 1.511719 -0.15625 1.058594 -0.707031 C 0.605469 -1.261719 0.382812 -2.0625 0.382812 -3.109375 C 0.382812 -3.613281 0.417969 -4.066406 0.492188 -4.46875 C 0.566406 -4.875 0.679688 -5.234375 0.828125 -5.542969 C 0.980469 -5.855469 1.164062 -6.113281 1.382812 -6.324219 C 1.605469 -6.53125 1.828125 -6.683594 2.058594 -6.78125 C 2.289062 -6.875 2.511719 -6.949219 2.734375 -6.996094 C 2.957031 -7.042969 3.511719 -7.132812 4.398438 -7.269531 C 4.691406 -7.34375 4.917969 -7.429688 5.078125 -7.519531 M 1.957031 -3.148438 C 1.953125 -3.070312 1.949219 -2.917969 1.949219 -2.691406 C 1.949219 -2.191406 2.046875 -1.796875 2.25 -1.5 C 2.449219 -1.207031 2.726562 -1.058594 3.082031 -1.058594 C 3.402344 -1.058594 3.664062 -1.183594 3.867188 -1.429688 C 4.070312 -1.679688 4.171875 -2.007812 4.171875 -2.421875 C 4.171875 -2.84375 4.066406 -3.167969 3.863281 -3.40625 C 3.660156 -3.640625 3.386719 -3.757812 3.042969 -3.757812 C 2.816406 -3.757812 2.605469 -3.703125 2.40625 -3.585938 C 2.203125 -3.46875 2.054688 -3.320312 1.957031 -3.148438 Z "/>
</g>
<g id="glyph-0-7">
<path d="M 3.03125 0.121094 C 2.199219 0.121094 1.542969 -0.113281 1.066406 -0.578125 C 0.589844 -1.046875 0.351562 -1.679688 0.351562 -2.480469 C 0.351562 -3.308594 0.597656 -3.953125 1.09375 -4.421875 C 1.589844 -4.886719 2.257812 -5.121094 3.101562 -5.121094 C 3.929688 -5.121094 4.582031 -4.886719 5.054688 -4.421875 C 5.527344 -3.953125 5.761719 -3.335938 5.761719 -2.570312 C 5.761719 -1.738281 5.519531 -1.082031 5.03125 -0.601562 C 4.546875 -0.117188 3.878906 0.121094 3.03125 0.121094 M 3.070312 -3.941406 C 2.707031 -3.941406 2.421875 -3.816406 2.222656 -3.5625 C 2.019531 -3.3125 1.917969 -2.960938 1.917969 -2.5 C 1.917969 -1.539062 2.304688 -1.058594 3.082031 -1.058594 C 3.820312 -1.058594 4.1875 -1.554688 4.1875 -2.539062 C 4.1875 -3.472656 3.816406 -3.941406 3.070312 -3.941406 Z "/>
</g>
<g id="glyph-0-8">
<path d="M 5.953125 1.820312 L 4.691406 1.820312 L 4.691406 0 L 1.328125 0 L 1.328125 1.820312 L 0.0859375 1.820312 L 0.0859375 -1.089844 L 0.53125 -1.089844 C 1.238281 -2.195312 1.609375 -3.5 1.648438 -5 L 5.160156 -5 L 5.160156 -1.089844 L 5.953125 -1.089844 L 5.953125 1.820312 M 3.617188 -1.089844 L 3.617188 -3.921875 L 2.851562 -3.921875 C 2.777344 -2.867188 2.503906 -1.921875 2.03125 -1.089844 Z "/>
</g>
<g id="glyph-0-9">
<path d="M 1.335938 -3.453125 C 1.085938 -3.453125 0.871094 -3.53125 0.703125 -3.683594 C 0.535156 -3.839844 0.449219 -4.03125 0.449219 -4.257812 C 0.449219 -4.492188 0.535156 -4.683594 0.710938 -4.835938 C 0.882812 -4.984375 1.101562 -5.058594 1.363281 -5.058594 C 1.625 -5.058594 1.839844 -4.984375 2.007812 -4.832031 C 2.175781 -4.679688 2.261719 -4.488281 2.261719 -4.257812 C 2.261719 -4.019531 2.175781 -3.828125 2.003906 -3.675781 C 1.832031 -3.527344 1.609375 -3.453125 1.335938 -3.453125 M 1.335938 0.121094 C 1.085938 0.121094 0.871094 0.0429688 0.703125 -0.113281 C 0.535156 -0.269531 0.449219 -0.460938 0.449219 -0.6875 C 0.449219 -0.921875 0.535156 -1.113281 0.710938 -1.265625 C 0.882812 -1.414062 1.101562 -1.488281 1.363281 -1.488281 C 1.625 -1.488281 1.839844 -1.414062 2.007812 -1.261719 C 2.175781 -1.109375 2.261719 -0.917969 2.261719 -0.6875 C 2.261719 -0.449219 2.175781 -0.257812 2.003906 -0.105469 C 1.832031 0.046875 1.609375 0.121094 1.335938 0.121094 Z "/>
</g>
<g id="glyph-0-10">
<path d="M 3.609375 1.59375 L 2.347656 1.59375 C 1.296875 0.433594 0.773438 -0.992188 0.773438 -2.679688 C 0.773438 -4.3125 1.296875 -5.75 2.347656 -7 L 3.597656 -7 C 2.613281 -5.695312 2.117188 -4.253906 2.117188 -2.679688 C 2.117188 -1.109375 2.617188 0.316406 3.609375 1.59375 Z "/>
</g>
<g id="glyph-0-11">
<path d="M 0.800781 0 L 0.800781 -7 L 3.351562 -7 C 4.132812 -7 4.730469 -6.859375 5.152344 -6.570312 C 5.570312 -6.285156 5.78125 -5.882812 5.78125 -5.359375 C 5.78125 -4.984375 5.652344 -4.652344 5.398438 -4.371094 C 5.140625 -4.085938 4.816406 -3.890625 4.417969 -3.78125 L 4.417969 -3.757812 C 4.917969 -3.699219 5.316406 -3.515625 5.613281 -3.207031 C 5.910156 -2.902344 6.058594 -2.53125 6.058594 -2.089844 C 6.058594 -1.449219 5.828125 -0.941406 5.371094 -0.5625 C 4.914062 -0.1875 4.285156 0 3.492188 0 L 0.800781 0 M 2.378906 -5.839844 L 2.378906 -4.179688 L 3.070312 -4.179688 C 3.398438 -4.179688 3.652344 -4.257812 3.839844 -4.417969 C 4.027344 -4.574219 4.121094 -4.792969 4.121094 -5.070312 C 4.121094 -5.582031 3.738281 -5.839844 2.96875 -5.839844 L 2.378906 -5.839844 M 2.378906 -3.007812 L 2.378906 -1.164062 L 3.234375 -1.164062 C 3.597656 -1.164062 3.882812 -1.246094 4.089844 -1.414062 C 4.296875 -1.585938 4.398438 -1.816406 4.398438 -2.109375 C 4.398438 -2.390625 4.296875 -2.609375 4.09375 -2.769531 C 3.890625 -2.929688 3.605469 -3.007812 3.242188 -3.007812 Z "/>
</g>
<g id="glyph-0-12">
<path d="M 1.335938 1.59375 L 0.0859375 1.59375 C 1.082031 0.324219 1.582031 -1.101562 1.582031 -2.679688 C 1.582031 -4.246094 1.082031 -5.6875 0.0859375 -7 L 1.347656 -7 C 2.402344 -5.75 2.929688 -4.308594 2.929688 -2.679688 C 2.929688 -1.003906 2.398438 0.421875 1.335938 1.59375 Z "/>
</g>
<g id="glyph-0-13">
<path d="M 3.03125 0.121094 C 2.199219 0.121094 1.542969 -0.113281 1.066406 -0.578125 C 0.589844 -1.046875 0.351562 -1.679688 0.351562 -2.480469 C 0.351562 -3.308594 0.597656 -3.953125 1.09375 -4.421875 C 1.589844 -4.886719 2.257812 -5.121094 3.101562 -5.121094 C 3.929688 -5.121094 4.582031 -4.886719 5.054688 -4.421875 C 5.527344 -3.953125 5.761719 -3.335938 5.761719 -2.570312 C 5.761719 -1.738281 5.519531 -1.082031 5.03125 -0.601562 C 4.546875 -0.117188 3.878906 0.121094 3.03125 0.121094 M 4.21875 -2.929688 C 4.117188 -3.667969 3.734375 -4.039062 3.070312 -4.039062 C 2.40625 -4.039062 2.015625 -3.667969 1.898438 -2.929688 L 4.21875 -2.929688 M 4.199219 -2.023438 L 1.910156 -2.023438 C 2.035156 -1.308594 2.425781 -0.953125 3.082031 -0.953125 C 3.707031 -0.953125 4.078125 -1.308594 4.199219 -2.023438 Z "/>
</g>
</g>
</defs>
<g fill="rgb(88.235294%, 74.509804%, 90.588235%)" fill-opacity="1">
<use xlink:href="#glyph-0-0" x="30" y="30.791016"/>
<use xlink:href="#glyph-0-1" x="38" y="30.791016"/>
<use xlink:href="#glyph-0-2" x="43" y="30.791016"/>
<use xlink:href="#glyph-0-3" x="48" y="30.791016"/>
<use xlink:href="#glyph-0-1" x="52" y="30.791016"/>
<use xlink:href="#glyph-0-4" x="57" y="30.791016"/>
<use xlink:href="#glyph-0-5" x="63" y="30.791016"/>
<use xlink:href="#glyph-0-6" x="66" y="30.791016"/>
<use xlink:href="#glyph-0-7" x="72" y="30.791016"/>
<use xlink:href="#glyph-0-8" x="78" y="30.791016"/>
<use xlink:href="#glyph-0-4" x="84" y="30.791016"/>
<use xlink:href="#glyph-0-7" x="90" y="30.791016"/>
<use xlink:href="#glyph-0-3" x="96" y="30.791016"/>
<use xlink:href="#glyph-0-7" x="100" y="30.791016"/>
<use xlink:href="#glyph-0-9" x="106" y="30.791016"/>
<use xlink:href="#glyph-0-5" x="109" y="30.791016"/>
<use xlink:href="#glyph-0-10" x="112" y="30.791016"/>
</g>
<g fill="rgb(88.235294%, 74.509804%, 90.588235%)" fill-opacity="1">
<use xlink:href="#glyph-0-11" x="116" y="30.791016"/>
</g>
<g fill="rgb(88.235294%, 74.509804%, 90.588235%)" fill-opacity="1">
<use xlink:href="#glyph-0-12" x="122" y="30.791016"/>
<use xlink:href="#glyph-0-5" x="126" y="30.791016"/>
<use xlink:href="#glyph-0-13" x="129" y="30.791016"/>
<use xlink:href="#glyph-0-3" x="135" y="30.791016"/>
<use xlink:href="#glyph-0-13" x="139" y="30.791016"/>
<use xlink:href="#glyph-0-3" x="145" y="30.791016"/>
<use xlink:href="#glyph-0-8" x="149" y="30.791016"/>
<use xlink:href="#glyph-0-13" x="155" y="30.791016"/>
<use xlink:href="#glyph-0-4" x="161" y="30.791016"/>
</g>
</svg>
