<?xml version="1.0" encoding="UTF-8"?>
<svg xmlns="http://www.w3.org/2000/svg" xmlns:xlink="http://www.w3.org/1999/xlink" width="854" height="480" viewBox="0 0 854 480">
<defs>
<g>
<g id="glyph-0-0">
<path d="M 5.09375 0 L 4.070312 0 L 1.929688 -2.773438 L 1.421875 -2.773438 L 1.421875 0 L 0.613281 0 L 0.613281 -6.058594 L 1.421875 -6.058594 L 1.421875 -3.328125 C 1.738281 -3.339844 1.988281 -3.417969 2.175781 -3.570312 C 2.359375 -3.71875 2.511719 -3.933594 2.628906 -4.210938 C 2.675781 -4.332031 2.722656 -4.449219 2.761719 -4.558594 C 2.800781 -4.667969 2.832031 -4.761719 2.855469 -4.839844 C 3.019531 -5.300781 3.226562 -5.621094 3.480469 -5.796875 C 3.730469 -5.972656 4.082031 -6.058594 4.527344 -6.058594 L 4.777344 -6.058594 L 4.777344 -5.339844 L 4.574219 -5.339844 C 4.242188 -5.339844 4.011719 -5.273438 3.878906 -5.144531 C 3.746094 -5.015625 3.621094 -4.773438 3.511719 -4.414062 C 3.398438 -4.058594 3.277344 -3.792969 3.136719 -3.628906 C 3 -3.460938 2.832031 -3.3125 2.636719 -3.1875 Z "/>
</g>
<g id="glyph-0-1">
<path d="M 4.292969 -2.269531 C 4.292969 -1.503906 4.109375 -0.914062 3.738281 -0.5 C 3.371094 -0.0820312 2.878906 0.125 2.265625 0.125 C 1.632812 0.125 1.136719 -0.0898438 0.773438 -0.519531 C 0.414062 -0.949219 0.230469 -1.53125 0.230469 -2.269531 C 0.230469 -3.03125 0.417969 -3.621094 0.792969 -4.039062 C 1.164062 -4.460938 1.65625 -4.671875 2.265625 -4.671875 C 2.878906 -4.671875 3.371094 -4.460938 3.738281 -4.042969 C 4.109375 -3.625 4.292969 -3.03125 4.292969 -2.269531 M 3.503906 -2.269531 C 3.503906 -2.859375 3.394531 -3.296875 3.183594 -3.582031 C 2.96875 -3.867188 2.664062 -4.011719 2.265625 -4.011719 C 1.867188 -4.011719 1.558594 -3.867188 1.34375 -3.582031 C 1.128906 -3.296875 1.019531 -2.859375 1.019531 -2.269531 C 1.019531 -1.699219 1.128906 -1.269531 1.34375 -0.972656 C 1.558594 -0.679688 1.867188 -0.53125 2.265625 -0.53125 C 2.660156 -0.53125 2.964844 -0.675781 3.179688 -0.964844 C 3.394531 -1.253906 3.503906 -1.691406 3.503906 -2.269531 Z "/>
</g>
<g id="glyph-0-2">
<path d="M 4.367188 -2.390625 C 4.367188 -1.636719 4.183594 -1.03125 3.824219 -0.582031 C 3.460938 -0.136719 3.003906 0.0898438 2.449219 0.0898438 C 2.222656 0.0898438 2.023438 0.0625 1.851562 0.0117188 C 1.679688 -0.0390625 1.5 -0.121094 1.316406 -0.226562 L 1.316406 1.675781 L 0.554688 1.675781 L 0.554688 -4.546875 L 1.316406 -4.546875 L 1.316406 -4.070312 C 1.507812 -4.238281 1.71875 -4.382812 1.949219 -4.5 C 2.183594 -4.613281 2.4375 -4.671875 2.710938 -4.671875 C 3.230469 -4.671875 3.636719 -4.464844 3.929688 -4.050781 C 4.21875 -3.640625 4.367188 -3.085938 4.367188 -2.390625 M 3.578125 -2.308594 C 3.578125 -2.824219 3.492188 -3.226562 3.328125 -3.511719 C 3.164062 -3.800781 2.894531 -3.941406 2.523438 -3.941406 C 2.304688 -3.941406 2.097656 -3.894531 1.894531 -3.796875 C 1.691406 -3.703125 1.5 -3.578125 1.316406 -3.425781 L 1.316406 -0.851562 C 1.519531 -0.753906 1.691406 -0.6875 1.832031 -0.652344 C 1.976562 -0.617188 2.140625 -0.597656 2.324219 -0.597656 C 2.71875 -0.597656 3.027344 -0.742188 3.246094 -1.035156 C 3.464844 -1.324219 3.578125 -1.75 3.578125 -2.308594 Z "/>
</g>
<g id="glyph-0-3">
<path d="M 2.527344 0.105469 C 1.800781 0.105469 1.242188 -0.0976562 0.839844 -0.507812 C 0.441406 -0.914062 0.238281 -1.496094 0.238281 -2.246094 C 0.238281 -2.988281 0.433594 -3.574219 0.820312 -4.015625 C 1.210938 -4.453125 1.71875 -4.671875 2.34375 -4.671875 C 2.625 -4.671875 2.875 -4.628906 3.09375 -4.550781 C 3.308594 -4.46875 3.5 -4.339844 3.660156 -4.167969 C 3.824219 -3.992188 3.949219 -3.78125 4.035156 -3.53125 C 4.125 -3.277344 4.167969 -2.972656 4.167969 -2.609375 L 4.167969 -2.191406 L 1.015625 -2.191406 C 1.015625 -1.664062 1.148438 -1.261719 1.414062 -0.980469 C 1.683594 -0.703125 2.050781 -0.5625 2.519531 -0.5625 C 2.6875 -0.5625 2.851562 -0.582031 3.011719 -0.617188 C 3.175781 -0.65625 3.320312 -0.707031 3.449219 -0.765625 C 3.589844 -0.828125 3.707031 -0.886719 3.800781 -0.945312 C 3.894531 -1.003906 3.972656 -1.058594 4.035156 -1.109375 L 4.082031 -1.109375 L 4.082031 -0.277344 C 3.992188 -0.242188 3.878906 -0.199219 3.746094 -0.144531 C 3.613281 -0.0898438 3.496094 -0.0507812 3.390625 -0.0195312 C 3.242188 0.0195312 3.105469 0.0507812 2.984375 0.0742188 C 2.863281 0.09375 2.710938 0.105469 2.527344 0.105469 M 3.421875 -2.777344 C 3.417969 -2.984375 3.390625 -3.164062 3.347656 -3.3125 C 3.304688 -3.460938 3.242188 -3.585938 3.160156 -3.691406 C 3.070312 -3.804688 2.957031 -3.890625 2.816406 -3.949219 C 2.679688 -4.011719 2.503906 -4.039062 2.300781 -4.039062 C 2.09375 -4.039062 1.921875 -4.011719 1.78125 -3.949219 C 1.636719 -3.886719 1.507812 -3.800781 1.390625 -3.683594 C 1.277344 -3.5625 1.191406 -3.429688 1.132812 -3.285156 C 1.070312 -3.140625 1.035156 -2.972656 1.015625 -2.777344 Z "/>
</g>
<g id="glyph-0-4">
<path d="M 4.074219 0 L 3.308594 0 L 3.308594 -3.902344 L 1.746094 -3.902344 C 1.738281 -3.675781 1.730469 -3.460938 1.722656 -3.253906 C 1.714844 -3.046875 1.703125 -2.859375 1.695312 -2.691406 C 1.679688 -2.265625 1.652344 -1.90625 1.613281 -1.621094 C 1.574219 -1.332031 1.523438 -1.101562 1.464844 -0.925781 C 1.40625 -0.75 1.339844 -0.609375 1.265625 -0.507812 C 1.195312 -0.410156 1.113281 -0.316406 1.023438 -0.234375 C 0.933594 -0.15625 0.835938 -0.09375 0.726562 -0.0546875 C 0.621094 -0.0117188 0.503906 0.0078125 0.371094 0.0078125 C 0.328125 0.0078125 0.269531 0.0078125 0.203125 0.00390625 C 0.136719 0 0.0898438 0 0.0625 0 L 0.0625 -0.667969 L 0.101562 -0.667969 C 0.121094 -0.667969 0.140625 -0.664062 0.160156 -0.664062 C 0.179688 -0.660156 0.203125 -0.660156 0.230469 -0.660156 C 0.296875 -0.660156 0.359375 -0.667969 0.421875 -0.6875 C 0.484375 -0.707031 0.542969 -0.742188 0.589844 -0.792969 C 0.726562 -0.925781 0.824219 -1.160156 0.886719 -1.492188 C 0.949219 -1.824219 0.996094 -2.289062 1.019531 -2.886719 C 1.03125 -3.105469 1.042969 -3.371094 1.050781 -3.675781 C 1.0625 -3.976562 1.070312 -4.269531 1.078125 -4.546875 L 4.074219 -4.546875 Z "/>
</g>
<g id="glyph-0-5">
<path d="M 3.84375 0 L 3.082031 0 L 3.082031 -1.800781 L 2.324219 -1.800781 L 0.976562 0 L 0.0859375 0 L 1.546875 -1.871094 C 1.167969 -1.984375 0.894531 -2.148438 0.71875 -2.367188 C 0.542969 -2.585938 0.457031 -2.882812 0.457031 -3.25 C 0.457031 -3.476562 0.503906 -3.671875 0.605469 -3.84375 C 0.703125 -4.011719 0.835938 -4.15625 1.003906 -4.273438 C 1.140625 -4.363281 1.3125 -4.433594 1.519531 -4.476562 C 1.722656 -4.523438 1.953125 -4.546875 2.210938 -4.546875 L 3.84375 -4.546875 L 3.84375 0 M 3.082031 -2.40625 L 3.082031 -3.933594 L 2.25 -3.933594 C 2.074219 -3.933594 1.933594 -3.925781 1.832031 -3.90625 C 1.730469 -3.886719 1.632812 -3.851562 1.539062 -3.796875 C 1.441406 -3.738281 1.367188 -3.65625 1.316406 -3.554688 C 1.265625 -3.453125 1.242188 -3.34375 1.242188 -3.226562 C 1.242188 -3.078125 1.257812 -2.957031 1.292969 -2.863281 C 1.324219 -2.769531 1.386719 -2.683594 1.476562 -2.605469 C 1.570312 -2.523438 1.6875 -2.46875 1.824219 -2.445312 C 1.960938 -2.417969 2.113281 -2.40625 2.273438 -2.40625 Z "/>
</g>
<g id="glyph-0-6">
<path d="M 4.566406 1.089844 L 3.851562 1.089844 L 3.851562 0 L 0.554688 0 L 0.554688 -4.546875 L 1.316406 -4.546875 L 1.316406 -0.660156 L 3.347656 -0.660156 L 3.347656 -4.546875 L 4.113281 -4.546875 L 4.113281 -0.660156 L 4.566406 -0.660156 Z "/>
</g>
<g id="glyph-0-7">
<path d="M 4.140625 0 L 3.386719 0 L 3.386719 -3.390625 L 1.246094 0 L 0.554688 0 L 0.554688 -4.546875 L 1.308594 -4.546875 L 1.308594 -1.207031 L 3.425781 -4.546875 L 4.140625 -4.546875 Z "/>
</g>
<g id="glyph-0-8">
<path d="M 2.035156 -1.160156 L 0.894531 1.503906 L 0.300781 1.503906 L 1.015625 -1.160156 Z "/>
</g>
<g id="glyph-0-9">
</g>
<g id="glyph-0-10">
<path d="M 4.210938 0 L 3.257812 0 L 1.699219 -2.09375 L 1.316406 -2.09375 L 1.316406 0 L 0.554688 0 L 0.554688 -4.546875 L 1.316406 -4.546875 L 1.316406 -2.566406 C 1.515625 -2.570312 1.683594 -2.613281 1.824219 -2.691406 C 1.964844 -2.773438 2.082031 -2.925781 2.179688 -3.15625 C 2.210938 -3.226562 2.242188 -3.304688 2.28125 -3.394531 C 2.316406 -3.484375 2.347656 -3.5625 2.367188 -3.628906 C 2.488281 -3.964844 2.652344 -4.199219 2.863281 -4.335938 C 3.074219 -4.476562 3.351562 -4.546875 3.691406 -4.546875 L 3.898438 -4.546875 L 3.898438 -3.886719 L 3.722656 -3.886719 C 3.507812 -3.886719 3.347656 -3.84375 3.242188 -3.753906 C 3.132812 -3.664062 3.042969 -3.503906 2.96875 -3.269531 C 2.894531 -3.035156 2.804688 -2.851562 2.703125 -2.71875 C 2.597656 -2.589844 2.484375 -2.488281 2.359375 -2.417969 Z "/>
</g>
<g id="glyph-0-11">
<path d="M 4.117188 -1.375 C 4.117188 -1.15625 4.074219 -0.960938 3.992188 -0.792969 C 3.90625 -0.621094 3.792969 -0.480469 3.644531 -0.367188 C 3.460938 -0.222656 3.269531 -0.125 3.066406 -0.0742188 C 2.863281 -0.0234375 2.621094 0 2.339844 0 L 0.554688 0 L 0.554688 -4.546875 L 2.222656 -4.546875 C 2.554688 -4.546875 2.800781 -4.535156 2.953125 -4.515625 C 3.109375 -4.496094 3.261719 -4.441406 3.414062 -4.359375 C 3.574219 -4.269531 3.691406 -4.15625 3.769531 -4.011719 C 3.84375 -3.867188 3.882812 -3.699219 3.882812 -3.5 C 3.882812 -3.28125 3.820312 -3.085938 3.703125 -2.914062 C 3.582031 -2.742188 3.425781 -2.609375 3.226562 -2.515625 L 3.246094 -2.484375 C 3.492188 -2.421875 3.699219 -2.296875 3.867188 -2.109375 C 4.035156 -1.917969 4.117188 -1.671875 4.117188 -1.375 M 3.097656 -3.382812 C 3.097656 -3.484375 3.078125 -3.574219 3.046875 -3.648438 C 3.011719 -3.726562 2.953125 -3.785156 2.867188 -3.828125 C 2.769531 -3.878906 2.660156 -3.910156 2.542969 -3.921875 C 2.421875 -3.929688 2.253906 -3.933594 2.039062 -3.933594 L 1.308594 -3.933594 L 1.308594 -2.691406 L 2.1875 -2.691406 C 2.375 -2.691406 2.507812 -2.699219 2.585938 -2.714844 C 2.667969 -2.734375 2.753906 -2.769531 2.847656 -2.828125 C 2.9375 -2.882812 3 -2.957031 3.039062 -3.046875 C 3.078125 -3.140625 3.097656 -3.25 3.097656 -3.382812 M 3.328125 -1.371094 C 3.328125 -1.527344 3.304688 -1.648438 3.261719 -1.742188 C 3.214844 -1.835938 3.117188 -1.921875 2.964844 -1.992188 C 2.871094 -2.039062 2.769531 -2.070312 2.660156 -2.078125 C 2.550781 -2.089844 2.402344 -2.09375 2.210938 -2.09375 L 1.308594 -2.09375 L 1.308594 -0.609375 L 1.972656 -0.609375 C 2.246094 -0.609375 2.460938 -0.621094 2.613281 -0.644531 C 2.765625 -0.664062 2.894531 -0.707031 3.003906 -0.773438 C 3.117188 -0.84375 3.199219 -0.925781 3.25 -1.015625 C 3.300781 -1.109375 3.328125 -1.226562 3.328125 -1.371094 Z "/>
</g>
<g id="glyph-0-12">
<path d="M 3.09375 -1.117188 L 3.09375 -2.378906 C 2.910156 -2.363281 2.679688 -2.339844 2.402344 -2.3125 C 2.125 -2.285156 1.898438 -2.246094 1.730469 -2.191406 C 1.527344 -2.128906 1.359375 -2.035156 1.226562 -1.90625 C 1.09375 -1.777344 1.023438 -1.597656 1.023438 -1.367188 C 1.023438 -1.105469 1.097656 -0.910156 1.246094 -0.777344 C 1.390625 -0.644531 1.605469 -0.578125 1.886719 -0.578125 C 2.128906 -0.578125 2.347656 -0.628906 2.542969 -0.734375 C 2.738281 -0.839844 2.921875 -0.96875 3.09375 -1.117188 M 3.09375 -0.484375 C 3.03125 -0.4375 2.945312 -0.375 2.84375 -0.289062 C 2.738281 -0.207031 2.636719 -0.140625 2.539062 -0.09375 C 2.402344 -0.0234375 2.273438 0.03125 2.144531 0.0703125 C 2.019531 0.105469 1.84375 0.125 1.617188 0.125 C 1.429688 0.125 1.25 0.0898438 1.082031 0.0195312 C 0.914062 -0.0507812 0.765625 -0.148438 0.640625 -0.277344 C 0.515625 -0.402344 0.417969 -0.554688 0.347656 -0.738281 C 0.273438 -0.921875 0.234375 -1.113281 0.234375 -1.316406 C 0.234375 -1.632812 0.300781 -1.902344 0.433594 -2.121094 C 0.566406 -2.34375 0.777344 -2.519531 1.066406 -2.648438 C 1.320312 -2.765625 1.621094 -2.847656 1.96875 -2.890625 C 2.316406 -2.9375 2.691406 -2.96875 3.09375 -2.992188 L 3.09375 -3.136719 C 3.09375 -3.316406 3.066406 -3.460938 3.011719 -3.570312 C 2.957031 -3.679688 2.878906 -3.765625 2.78125 -3.824219 C 2.683594 -3.886719 2.566406 -3.929688 2.425781 -3.949219 C 2.285156 -3.96875 2.140625 -3.980469 1.988281 -3.980469 C 1.8125 -3.980469 1.605469 -3.953125 1.367188 -3.898438 C 1.128906 -3.847656 0.890625 -3.769531 0.652344 -3.671875 L 0.605469 -3.671875 L 0.605469 -4.449219 C 0.746094 -4.488281 0.949219 -4.53125 1.210938 -4.582031 C 1.476562 -4.628906 1.734375 -4.65625 1.992188 -4.65625 C 2.304688 -4.65625 2.570312 -4.628906 2.78125 -4.582031 C 2.996094 -4.53125 3.191406 -4.445312 3.359375 -4.316406 C 3.527344 -4.191406 3.648438 -4.03125 3.730469 -3.832031 C 3.8125 -3.636719 3.851562 -3.394531 3.851562 -3.109375 L 3.851562 0 L 3.09375 0 Z "/>
</g>
<g id="glyph-0-13">
<path d="M 4.140625 0 L 3.386719 0 L 3.386719 -3.390625 L 1.246094 0 L 0.554688 0 L 0.554688 -4.546875 L 1.308594 -4.546875 L 1.308594 -1.207031 L 3.425781 -4.546875 L 4.140625 -4.546875 L 4.140625 0 M 3.800781 -6.65625 C 3.800781 -6.421875 3.773438 -6.210938 3.714844 -6.019531 C 3.65625 -5.828125 3.578125 -5.667969 3.472656 -5.539062 C 3.347656 -5.394531 3.210938 -5.285156 3.054688 -5.214844 C 2.902344 -5.140625 2.703125 -5.105469 2.460938 -5.105469 C 2.238281 -5.105469 2.042969 -5.144531 1.878906 -5.21875 C 1.710938 -5.292969 1.570312 -5.398438 1.457031 -5.539062 C 1.34375 -5.671875 1.261719 -5.835938 1.203125 -6.027344 C 1.148438 -6.214844 1.117188 -6.425781 1.117188 -6.65625 L 1.777344 -6.65625 C 1.777344 -6.289062 1.835938 -6.027344 1.949219 -5.867188 C 2.0625 -5.703125 2.234375 -5.625 2.460938 -5.625 C 2.675781 -5.625 2.84375 -5.703125 2.960938 -5.863281 C 3.082031 -6.019531 3.140625 -6.285156 3.140625 -6.65625 Z "/>
</g>
<g id="glyph-0-14">
<path d="M 4.140625 0 L 3.378906 0 L 3.378906 -2.046875 L 1.316406 -2.046875 L 1.316406 0 L 0.554688 0 L 0.554688 -4.546875 L 1.316406 -4.546875 L 1.316406 -2.707031 L 3.378906 -2.707031 L 3.378906 -4.546875 L 4.140625 -4.546875 Z "/>
</g>
<g id="glyph-0-15">
<path d="M 0.171875 -1.042969 L 0.21875 -1.042969 C 0.28125 -0.988281 0.351562 -0.9375 0.441406 -0.882812 C 0.53125 -0.824219 0.632812 -0.773438 0.753906 -0.722656 C 0.882812 -0.671875 1.007812 -0.628906 1.128906 -0.597656 C 1.246094 -0.566406 1.394531 -0.554688 1.566406 -0.554688 C 1.957031 -0.554688 2.269531 -0.683594 2.507812 -0.949219 C 2.742188 -1.210938 2.878906 -1.59375 2.914062 -2.089844 L 0.847656 -2.089844 L 0.847656 -2.707031 L 2.910156 -2.707031 C 2.859375 -3.136719 2.71875 -3.460938 2.484375 -3.675781 C 2.25 -3.886719 1.957031 -3.996094 1.609375 -3.996094 C 1.457031 -3.996094 1.3125 -3.980469 1.179688 -3.945312 C 1.046875 -3.910156 0.917969 -3.867188 0.792969 -3.808594 C 0.691406 -3.757812 0.597656 -3.707031 0.519531 -3.648438 C 0.4375 -3.59375 0.363281 -3.535156 0.289062 -3.476562 L 0.238281 -3.476562 L 0.238281 -4.3125 C 0.382812 -4.375 0.585938 -4.449219 0.847656 -4.527344 C 1.109375 -4.609375 1.359375 -4.652344 1.59375 -4.652344 C 1.902344 -4.652344 2.183594 -4.605469 2.4375 -4.511719 C 2.691406 -4.421875 2.910156 -4.277344 3.097656 -4.089844 C 3.285156 -3.894531 3.425781 -3.65625 3.527344 -3.378906 C 3.625 -3.101562 3.675781 -2.761719 3.675781 -2.363281 C 3.675781 -1.605469 3.480469 -1.003906 3.089844 -0.5625 C 2.699219 -0.121094 2.175781 0.101562 1.511719 0.101562 C 1.265625 0.101562 1.027344 0.0703125 0.792969 0.0078125 C 0.558594 -0.0585938 0.351562 -0.128906 0.171875 -0.203125 Z "/>
</g>
<g id="glyph-0-16">
<path d="M 6.078125 -2.390625 C 6.078125 -1.988281 6.03125 -1.632812 5.929688 -1.320312 C 5.832031 -1.011719 5.699219 -0.753906 5.539062 -0.554688 C 5.371094 -0.351562 5.183594 -0.195312 4.976562 -0.0898438 C 4.765625 0.0117188 4.550781 0.0664062 4.320312 0.0664062 C 4.148438 0.0664062 4 0.03125 3.871094 -0.03125 C 3.742188 -0.0976562 3.632812 -0.152344 3.542969 -0.199219 L 3.542969 1.675781 L 2.789062 1.675781 L 2.789062 -0.199219 C 2.628906 -0.117188 2.5 -0.0507812 2.40625 -0.00390625 C 2.308594 0.0429688 2.152344 0.0664062 1.9375 0.0664062 C 1.425781 0.0664062 1.019531 -0.140625 0.710938 -0.554688 C 0.40625 -0.96875 0.253906 -1.535156 0.253906 -2.257812 C 0.253906 -2.636719 0.300781 -2.976562 0.398438 -3.277344 C 0.496094 -3.574219 0.628906 -3.828125 0.800781 -4.035156 C 0.957031 -4.230469 1.140625 -4.378906 1.347656 -4.484375 C 1.554688 -4.59375 1.773438 -4.648438 1.996094 -4.648438 C 2.15625 -4.648438 2.300781 -4.617188 2.429688 -4.5625 C 2.558594 -4.507812 2.679688 -4.445312 2.789062 -4.375 L 2.789062 -6.332031 L 3.542969 -6.332031 L 3.542969 -4.375 C 3.664062 -4.449219 3.800781 -4.511719 3.953125 -4.566406 C 4.109375 -4.621094 4.269531 -4.648438 4.429688 -4.648438 C 4.941406 -4.648438 5.34375 -4.441406 5.636719 -4.035156 C 5.933594 -3.625 6.078125 -3.078125 6.078125 -2.390625 M 5.292969 -2.308594 C 5.292969 -2.824219 5.207031 -3.234375 5.03125 -3.535156 C 4.855469 -3.835938 4.597656 -3.988281 4.257812 -3.988281 C 4.113281 -3.988281 3.992188 -3.96875 3.882812 -3.933594 C 3.777344 -3.894531 3.664062 -3.855469 3.542969 -3.8125 L 3.542969 -0.78125 C 3.664062 -0.722656 3.761719 -0.679688 3.835938 -0.644531 C 3.910156 -0.609375 4.019531 -0.589844 4.164062 -0.589844 C 4.515625 -0.589844 4.792969 -0.734375 4.992188 -1.023438 C 5.195312 -1.316406 5.292969 -1.742188 5.292969 -2.308594 M 2.789062 -0.78125 L 2.789062 -3.8125 C 2.691406 -3.859375 2.59375 -3.898438 2.496094 -3.933594 C 2.398438 -3.96875 2.289062 -3.988281 2.167969 -3.988281 C 1.820312 -3.988281 1.546875 -3.851562 1.34375 -3.578125 C 1.140625 -3.300781 1.039062 -2.875 1.039062 -2.292969 C 1.039062 -1.765625 1.128906 -1.347656 1.3125 -1.046875 C 1.496094 -0.742188 1.757812 -0.589844 2.097656 -0.589844 C 2.234375 -0.589844 2.355469 -0.609375 2.464844 -0.652344 C 2.574219 -0.691406 2.679688 -0.734375 2.789062 -0.78125 Z "/>
</g>
<g id="glyph-0-17">
<path d="M 3.875 -3.875 L 2.328125 -3.875 L 2.328125 0 L 1.5625 0 L 1.5625 -3.875 L 0.015625 -3.875 L 0.015625 -4.546875 L 3.875 -4.546875 Z "/>
</g>
</g>
</defs>
<g fill="rgb(44.313725%, 33.333333%, 50.980392%)" fill-opacity="1">
<use xlink:href="#glyph-0-0" x="30" y="28.336914"/>
<use xlink:href="#glyph-0-1" x="35" y="28.336914"/>
<use xlink:href="#glyph-0-2" x="40" y="28.336914"/>
<use xlink:href="#glyph-0-2" x="45" y="28.336914"/>
<use xlink:href="#glyph-0-3" x="50" y="28.336914"/>
<use xlink:href="#glyph-0-4" x="54" y="28.336914"/>
<use xlink:href="#glyph-0-5" x="59" y="28.336914"/>
<use xlink:href="#glyph-0-6" x="63" y="28.336914"/>
<use xlink:href="#glyph-0-7" x="68" y="28.336914"/>
<use xlink:href="#glyph-0-8" x="73" y="28.336914"/>
<use xlink:href="#glyph-0-9" x="76" y="28.336914"/>
<use xlink:href="#glyph-0-10" x="79" y="28.336914"/>
<use xlink:href="#glyph-0-1" x="83" y="28.336914"/>
<use xlink:href="#glyph-0-11" x="88" y="28.336914"/>
<use xlink:href="#glyph-0-12" x="92" y="28.336914"/>
<use xlink:href="#glyph-0-2" x="96" y="28.336914"/>
<use xlink:href="#glyph-0-7" x="101" y="28.336914"/>
<use xlink:href="#glyph-0-12" x="106" y="28.336914"/>
<use xlink:href="#glyph-0-6" x="110" y="28.336914"/>
<use xlink:href="#glyph-0-8" x="115" y="28.336914"/>
<use xlink:href="#glyph-0-9" x="118" y="28.336914"/>
<use xlink:href="#glyph-0-10" x="121" y="28.336914"/>
<use xlink:href="#glyph-0-1" x="125" y="28.336914"/>
<use xlink:href="#glyph-0-2" x="130" y="28.336914"/>
<use xlink:href="#glyph-0-2" x="135" y="28.336914"/>
<use xlink:href="#glyph-0-3" x="140" y="28.336914"/>
<use xlink:href="#glyph-0-4" x="144" y="28.336914"/>
<use xlink:href="#glyph-0-5" x="149" y="28.336914"/>
<use xlink:href="#glyph-0-6" x="153" y="28.336914"/>
<use xlink:href="#glyph-0-7" x="158" y="28.336914"/>
<use xlink:href="#glyph-0-13" x="163" y="28.336914"/>
<use xlink:href="#glyph-0-14" x="168" y="28.336914"/>
<use xlink:href="#glyph-0-9" x="173" y="28.336914"/>
<use xlink:href="#glyph-0-10" x="176" y="28.336914"/>
<use xlink:href="#glyph-0-1" x="180" y="28.336914"/>
<use xlink:href="#glyph-0-15" x="185" y="28.336914"/>
<use xlink:href="#glyph-0-16" x="189" y="28.336914"/>
<use xlink:href="#glyph-0-16" x="195" y="28.336914"/>
<use xlink:href="#glyph-0-7" x="201" y="28.336914"/>
<use xlink:href="#glyph-0-6" x="206" y="28.336914"/>
<use xlink:href="#glyph-0-7" x="211" y="28.336914"/>
<use xlink:href="#glyph-0-3" x="216" y="28.336914"/>
<use xlink:href="#glyph-0-14" x="220" y="28.336914"/>
<use xlink:href="#glyph-0-17" x="225" y="28.336914"/>
</g>
</svg>
