<?xml version="1.0" encoding="UTF-8"?>
<svg xmlns="http://www.w3.org/2000/svg" xmlns:xlink="http://www.w3.org/1999/xlink" width="1920" height="1080" viewBox="0 0 1920 1080">
<defs>
<g>
<g id="glyph-0-0">
<path d="M 6.816406 -2.566406 C 6.816406 -1.6875 6.503906 -0.9375 5.871094 -0.3125 C 5.242188 0.3125 4.484375 0.625 3.605469 0.625 C 2.722656 0.625 1.964844 0.3125 1.335938 -0.3125 C 0.707031 -0.9375 0.390625 -1.6875 0.390625 -2.566406 C 0.390625 -3.445312 0.707031 -4.199219 1.335938 -4.828125 C 1.964844 -5.453125 2.722656 -5.765625 3.605469 -5.765625 C 4.484375 -5.765625 5.242188 -5.453125 5.871094 -4.828125 C 6.503906 -4.199219 6.816406 -3.445312 6.816406 -2.566406 M 6.527344 -2.566406 C 6.527344 -3.378906 6.242188 -4.070312 5.675781 -4.640625 C 5.105469 -5.210938 4.414062 -5.496094 3.605469 -5.496094 C 2.792969 -5.496094 2.101562 -5.210938 1.535156 -4.640625 C 0.964844 -4.070312 0.679688 -3.378906 0.679688 -2.566406 C 0.679688 -1.757812 0.964844 -1.070312 1.535156 -0.503906 C 2.105469 0.0664062 2.796875 0.347656 3.605469 0.347656 C 4.414062 0.347656 5.101562 0.0664062 5.671875 -0.503906 C 6.242188 -1.070312 6.527344 -1.757812 6.527344 -2.566406 M 4.578125 -0.554688 L 2.453125 -0.554688 L 2.453125 -1.007812 L 3.25 -1.007812 L 3.25 -3.671875 L 2.453125 -3.671875 L 2.453125 -4.089844 C 3.015625 -4.089844 3.3125 -4.277344 3.351562 -4.65625 L 3.8125 -4.65625 L 3.8125 -1.007812 L 4.578125 -1.007812 Z "/>
</g>
<g id="glyph-1-0">
</g>
<g id="glyph-1-1">
<path d="M 5.140625 1.359375 L 4.59375 1.359375 L 4.59375 0 L 0.664062 0 L 0.664062 -5.058594 L 1.253906 -5.058594 L 1.253906 -0.535156 L 3.871094 -0.535156 L 3.871094 -5.058594 L 4.464844 -5.058594 L 4.464844 -0.535156 L 5.140625 -0.535156 Z "/>
</g>
<g id="glyph-1-2">
<path d="M 0.316406 -0.160156 L 0.316406 -0.707031 C 0.589844 -0.503906 0.902344 -0.402344 1.253906 -0.402344 C 1.597656 -0.402344 1.871094 -0.507812 2.082031 -0.71875 C 2.292969 -0.929688 2.40625 -1.214844 2.425781 -1.574219 L 0.890625 -1.574219 L 0.890625 -2.066406 L 2.425781 -2.066406 C 2.398438 -2.425781 2.28125 -2.703125 2.070312 -2.90625 C 1.859375 -3.109375 1.582031 -3.210938 1.234375 -3.210938 C 0.898438 -3.210938 0.605469 -3.117188 0.359375 -2.933594 L 0.359375 -3.503906 C 0.609375 -3.632812 0.902344 -3.695312 1.242188 -3.695312 C 1.816406 -3.695312 2.257812 -3.527344 2.5625 -3.195312 C 2.871094 -2.859375 3.027344 -2.386719 3.027344 -1.777344 C 3.027344 -1.210938 2.867188 -0.757812 2.550781 -0.421875 C 2.234375 -0.0859375 1.808594 0.0859375 1.277344 0.0859375 C 0.90625 0.0859375 0.585938 0.00390625 0.316406 -0.160156 Z "/>
</g>
<g id="glyph-1-3">
<path d="M 2.59375 -3.117188 L 1.164062 -3.117188 L 1.164062 0 L 0.585938 0 L 0.585938 -3.609375 L 2.59375 -3.609375 Z "/>
</g>
<g id="glyph-1-4">
<path d="M 3.582031 0 L 3.003906 0 L 3.003906 -1.640625 L 1.164062 -1.640625 L 1.164062 0 L 0.585938 0 L 0.585938 -3.609375 L 1.164062 -3.609375 L 1.164062 -2.128906 L 3.003906 -2.128906 L 3.003906 -3.609375 L 3.582031 -3.609375 Z "/>
</g>
<g id="glyph-1-5">
<path d="M 3.734375 1.316406 L 3.246094 1.316406 L 3.246094 0 L 0.558594 0 L 0.558594 1.316406 L 0.0625 1.316406 L 0.0625 -0.488281 L 0.382812 -0.488281 C 1 -1.378906 1.3125 -2.417969 1.324219 -3.609375 L 3.199219 -3.609375 L 3.199219 -0.488281 L 3.734375 -0.488281 L 3.734375 1.316406 M 2.621094 -0.488281 L 2.621094 -3.121094 L 1.820312 -3.121094 C 1.757812 -2.148438 1.480469 -1.269531 1 -0.488281 Z "/>
</g>
<g id="glyph-1-6">
<path d="M 3.609375 0 L 3.089844 0 L 3.089844 -2.882812 C 3.039062 -2.78125 2.957031 -2.636719 2.851562 -2.453125 L 1.183594 0 L 0.585938 0 L 0.585938 -3.609375 L 1.113281 -3.609375 L 1.113281 -0.765625 C 1.144531 -0.832031 1.203125 -0.949219 1.296875 -1.113281 L 3.011719 -3.609375 L 3.609375 -3.609375 Z "/>
</g>
<g id="glyph-1-7">
<path d="M 3.171875 0 L 2.59375 0 L 2.59375 -0.5625 L 2.578125 -0.5625 C 2.328125 -0.132812 1.957031 0.0859375 1.46875 0.0859375 C 1.105469 0.0859375 0.824219 -0.0117188 0.621094 -0.199219 C 0.417969 -0.390625 0.316406 -0.644531 0.316406 -0.960938 C 0.316406 -1.632812 0.714844 -2.027344 1.507812 -2.136719 L 2.59375 -2.289062 C 2.59375 -2.902344 2.34375 -3.210938 1.847656 -3.210938 C 1.414062 -3.210938 1.019531 -3.0625 0.671875 -2.765625 L 0.671875 -3.355469 C 1.023438 -3.582031 1.433594 -3.695312 1.898438 -3.695312 C 2.746094 -3.695312 3.171875 -3.246094 3.171875 -2.347656 L 3.171875 0 M 2.59375 -1.828125 L 1.722656 -1.707031 C 1.453125 -1.667969 1.25 -1.601562 1.113281 -1.507812 C 0.976562 -1.414062 0.910156 -1.242188 0.910156 -1 C 0.910156 -0.824219 0.972656 -0.679688 1.097656 -0.570312 C 1.222656 -0.457031 1.390625 -0.402344 1.601562 -0.402344 C 1.886719 -0.402344 2.125 -0.503906 2.3125 -0.703125 C 2.5 -0.90625 2.59375 -1.160156 2.59375 -1.46875 Z "/>
</g>
<g id="glyph-1-8">
<path d="M 1.179688 -0.523438 L 1.164062 -0.523438 L 1.164062 1.660156 L 0.585938 1.660156 L 0.585938 -3.609375 L 1.164062 -3.609375 L 1.164062 -2.976562 L 1.179688 -2.976562 C 1.460938 -3.457031 1.878906 -3.695312 2.425781 -3.695312 C 2.890625 -3.695312 3.253906 -3.535156 3.515625 -3.210938 C 3.777344 -2.886719 3.90625 -2.453125 3.90625 -1.910156 C 3.90625 -1.308594 3.761719 -0.824219 3.464844 -0.460938 C 3.171875 -0.0976562 2.769531 0.0859375 2.261719 0.0859375 C 1.792969 0.0859375 1.433594 -0.117188 1.179688 -0.523438 M 1.164062 -1.976562 L 1.164062 -1.472656 C 1.164062 -1.175781 1.261719 -0.921875 1.453125 -0.714844 C 1.648438 -0.507812 1.894531 -0.402344 2.195312 -0.402344 C 2.542969 -0.402344 2.820312 -0.535156 3.015625 -0.804688 C 3.214844 -1.070312 3.316406 -1.445312 3.316406 -1.921875 C 3.316406 -2.324219 3.222656 -2.640625 3.035156 -2.867188 C 2.851562 -3.09375 2.597656 -3.210938 2.28125 -3.210938 C 1.945312 -3.210938 1.675781 -3.09375 1.46875 -2.859375 C 1.265625 -2.625 1.164062 -2.332031 1.164062 -1.976562 Z "/>
</g>
<g id="glyph-1-9">
<path d="M 4.484375 0 L 3.914062 0 L 3.914062 -2.976562 C 3.863281 -2.824219 3.78125 -2.605469 3.675781 -2.3125 L 2.773438 0 L 2.253906 0 L 1.324219 -2.3125 C 1.273438 -2.4375 1.191406 -2.660156 1.082031 -2.976562 L 1.082031 0 L 0.585938 0 L 0.585938 -3.609375 L 1.324219 -3.609375 L 2.273438 -1.253906 C 2.34375 -1.082031 2.429688 -0.847656 2.535156 -0.542969 L 2.792969 -1.242188 L 3.71875 -3.609375 L 4.484375 -3.609375 Z "/>
</g>
<g id="glyph-1-10">
<path d="M 3.222656 -3.609375 L 2.011719 -1.785156 L 3.203125 0 L 2.527344 0 L 1.820312 -1.171875 C 1.773438 -1.242188 1.722656 -1.335938 1.660156 -1.445312 L 1.648438 -1.445312 C 1.636719 -1.425781 1.578125 -1.332031 1.480469 -1.171875 L 0.757812 0 L 0.0898438 0 L 1.324219 -1.769531 L 0.144531 -3.609375 L 0.816406 -3.609375 L 1.515625 -2.378906 C 1.566406 -2.285156 1.617188 -2.191406 1.667969 -2.09375 L 1.683594 -2.09375 L 2.585938 -3.609375 Z "/>
</g>
<g id="glyph-1-11">
<path d="M 3.21875 0 L 2.644531 0 L 2.644531 -3.121094 L 1.804688 -3.121094 C 1.710938 -1.953125 1.542969 -1.132812 1.308594 -0.660156 C 1.078125 -0.1875 0.761719 0.0507812 0.367188 0.0507812 C 0.246094 0.0507812 0.144531 0.03125 0.0546875 0 L 0.0546875 -0.496094 C 0.140625 -0.453125 0.226562 -0.433594 0.324219 -0.433594 C 0.839844 -0.433594 1.175781 -1.492188 1.324219 -3.609375 L 3.21875 -3.609375 Z "/>
</g>
<g id="glyph-1-12">
<path d="M 4.535156 0 L 3.964844 0 L 3.964844 -3.609375 L 4.535156 -3.609375 L 4.535156 0 M 0.585938 0 L 0.585938 -3.609375 L 1.164062 -3.609375 L 1.164062 -2.226562 L 2.136719 -2.226562 C 2.507812 -2.226562 2.800781 -2.128906 3.015625 -1.9375 C 3.234375 -1.742188 3.34375 -1.472656 3.34375 -1.128906 C 3.34375 -0.78125 3.234375 -0.503906 3.015625 -0.304688 C 2.796875 -0.101562 2.519531 0 2.1875 0 L 0.585938 0 M 1.164062 -1.726562 L 1.164062 -0.492188 L 2.03125 -0.492188 C 2.511719 -0.492188 2.75 -0.707031 2.75 -1.128906 C 2.75 -1.527344 2.507812 -1.726562 2.023438 -1.726562 Z "/>
</g>
<g id="glyph-1-13">
<path d="M 3.460938 -3.609375 L 2.023438 -0.0195312 L 2.023438 1.660156 L 1.445312 1.660156 L 1.445312 -0.0273438 L 0.0507812 -3.609375 L 0.691406 -3.609375 L 1.640625 -0.917969 L 1.742188 -0.5625 L 1.75 -0.5625 C 1.773438 -0.644531 1.808594 -0.765625 1.863281 -0.929688 L 2.859375 -3.609375 Z "/>
</g>
<g id="glyph-1-14">
<path d="M 3.460938 -3.609375 L 1.796875 0.578125 C 1.503906 1.324219 1.085938 1.699219 0.550781 1.699219 C 0.398438 1.699219 0.273438 1.683594 0.171875 1.652344 L 0.171875 1.136719 C 0.296875 1.179688 0.410156 1.199219 0.515625 1.199219 C 0.804688 1.199219 1.023438 1.023438 1.171875 0.675781 L 1.460938 -0.0078125 L 0.0507812 -3.609375 L 0.691406 -3.609375 L 1.667969 -0.832031 C 1.679688 -0.796875 1.703125 -0.707031 1.742188 -0.558594 L 1.761719 -0.558594 C 1.773438 -0.613281 1.796875 -0.703125 1.832031 -0.824219 L 2.859375 -3.609375 Z "/>
</g>
</g>
</defs>
<g fill="rgb(87.843137%, 87.843137%, 87.843137%)" fill-opacity="1">
<use xlink:href="#glyph-0-0" x="30" y="27.793945"/>
</g>
<g fill="rgb(87.843137%, 87.843137%, 87.843137%)" fill-opacity="1">
<use xlink:href="#glyph-1-0" x="37" y="27.793945"/>
<use xlink:href="#glyph-1-1" x="39" y="27.793945"/>
<use xlink:href="#glyph-1-2" x="44" y="27.793945"/>
<use xlink:href="#glyph-1-3" x="47" y="27.793945"/>
<use xlink:href="#glyph-1-2" x="50" y="27.793945"/>
<use xlink:href="#glyph-1-4" x="53" y="27.793945"/>
<use xlink:href="#glyph-1-0" x="57" y="27.793945"/>
<use xlink:href="#glyph-1-5" x="59" y="27.793945"/>
<use xlink:href="#glyph-1-6" x="63" y="27.793945"/>
<use xlink:href="#glyph-1-7" x="67" y="27.793945"/>
<use xlink:href="#glyph-1-3" x="71" y="27.793945"/>
<use xlink:href="#glyph-1-8" x="74" y="27.793945"/>
<use xlink:href="#glyph-1-7" x="78" y="27.793945"/>
<use xlink:href="#glyph-1-9" x="82" y="27.793945"/>
<use xlink:href="#glyph-1-9" x="87" y="27.793945"/>
<use xlink:href="#glyph-1-0" x="92" y="27.793945"/>
<use xlink:href="#glyph-1-10" x="94" y="27.793945"/>
<use xlink:href="#glyph-1-7" x="97" y="27.793945"/>
<use xlink:href="#glyph-1-9" x="101" y="27.793945"/>
<use xlink:href="#glyph-1-7" x="106" y="27.793945"/>
<use xlink:href="#glyph-1-7" x="110" y="27.793945"/>
<use xlink:href="#glyph-1-8" x="114" y="27.793945"/>
<use xlink:href="#glyph-1-11" x="118" y="27.793945"/>
<use xlink:href="#glyph-1-12" x="122" y="27.793945"/>
<use xlink:href="#glyph-1-3" x="127" y="27.793945"/>
<use xlink:href="#glyph-1-0" x="130" y="27.793945"/>
<use xlink:href="#glyph-1-4" x="132" y="27.793945"/>
<use xlink:href="#glyph-1-13" x="136" y="27.793945"/>
<use xlink:href="#glyph-1-5" x="139" y="27.793945"/>
<use xlink:href="#glyph-1-2" x="143" y="27.793945"/>
<use xlink:href="#glyph-1-2" x="146" y="27.793945"/>
<use xlink:href="#glyph-1-8" x="149" y="27.793945"/>
<use xlink:href="#glyph-1-0" x="153" y="27.793945"/>
<use xlink:href="#glyph-1-10" x="155" y="27.793945"/>
<use xlink:href="#glyph-1-7" x="158" y="27.793945"/>
<use xlink:href="#glyph-1-8" x="162" y="27.793945"/>
<use xlink:href="#glyph-1-14" x="166" y="27.793945"/>
<use xlink:href="#glyph-1-14" x="169" y="27.793945"/>
<use xlink:href="#glyph-1-11" x="172" y="27.793945"/>
<use xlink:href="#glyph-1-4" x="176" y="27.793945"/>
<use xlink:href="#glyph-1-7" x="180" y="27.793945"/>
</g>
</svg>
